<?xml version="1.0" standalone="no"?>
<!DOCTYPE svg PUBLIC "-//W3C//DTD SVG 20010904//EN"
 "http://www.w3.org/TR/2001/REC-SVG-20010904/DTD/svg10.dtd">
<svg version="1.0" xmlns="http://www.w3.org/2000/svg"
 width="1000.000000pt" height="1000.000000pt" viewBox="0 0 1000.000000 1000.000000"
 preserveAspectRatio="xMidYMid meet">

<g transform="translate(0.000000,1000.000000) scale(0.100000,-0.100000)"
fill="#000000" stroke="none">
<path d="M0 9784 c0 -141 3 -213 10 -209 14 8 14 425 0 425 -6 0 -10 -79 -10
-216z"/>
<path d="M238 9917 l82 -82 0 -320 0 -320 103 -103 102 -102 625 0 625 0 95
-95 95 -95 143 0 144 0 28 -30 c34 -36 63 -38 95 -5 32 31 32 59 0 90 -32 33
-61 31 -95 -5 l-28 -30 -139 0 -138 0 -95 95 -95 95 -625 0 -625 0 -98 98 -97
97 0 320 0 320 -78 78 c-42 42 -84 77 -92 77 -8 0 22 -37 68 -83z m2116 -1090
c11 -18 0 -47 -21 -54 -12 -4 -43 23 -43 37 0 14 31 41 43 37 6 -2 15 -11 21
-20z"/>
<path d="M418 9947 l52 -53 0 -300 0 -300 123 -122 124 -122 384 0 384 0 145
145 145 145 370 0 370 0 125 -125 125 -125 822 0 822 0 16 -30 c26 -50 94 -57
133 -14 47 53 10 134 -61 134 -34 0 -77 -33 -77 -58 0 -9 -195 -12 -823 -12
l-822 0 -125 125 -125 125 -380 0 -380 0 -145 -145 -145 -145 -374 0 -375 0
-118 118 -118 118 0 300 0 300 -48 47 c-26 26 -54 47 -62 47 -8 0 9 -24 38
-53z m4110 -819 c18 -18 15 -43 -8 -63 -18 -17 -21 -17 -45 -1 -28 18 -30 28
-15 57 12 21 50 25 68 7z"/>
<path d="M603 9942 l57 -58 0 -219 0 -220 117 -117 118 -118 166 0 166 0 11
-24 c38 -84 156 -61 156 31 0 72 -89 109 -139 58 -14 -13 -25 -29 -25 -35 0
-6 -56 -10 -163 -10 l-162 0 -113 113 -112 112 0 220 0 221 -53 52 c-29 29
-59 52 -67 52 -8 0 11 -26 43 -58z m741 -698 c20 -20 20 -27 -2 -54 -23 -28
-59 -20 -68 16 -12 46 37 72 70 38z"/>
<path d="M763 9972 c27 -28 27 -29 27 -173 l0 -144 108 -108 107 -107 627 0
c623 0 627 0 638 -21 40 -73 151 -14 119 63 -20 49 -99 50 -121 3 l-11 -25
-621 0 -621 0 -98 98 -97 97 0 146 0 145 -28 27 c-38 37 -64 36 -29 -1z m1596
-501 c13 -24 -8 -55 -34 -50 -28 6 -42 34 -26 53 18 22 48 20 60 -3z"/>
<path d="M9207 9972 c-27 -28 -27 -29 -27 -173 l0 -144 -98 -98 -97 -97 -621
0 -621 0 -11 25 c-22 47 -101 46 -121 -3 -32 -77 79 -136 119 -63 11 21 15 21
638 21 l627 0 108 108 107 107 0 145 c0 143 0 144 27 172 19 20 22 28 12 28
-9 0 -27 -13 -42 -28z m-1506 -498 c9 -11 10 -20 2 -32 -15 -24 -44 -27 -59
-7 -28 38 27 75 57 39z"/>
<path d="M9372 9947 l-52 -53 0 -219 0 -220 -113 -113 -112 -112 -163 0 c-106
0 -162 4 -162 10 0 6 -11 22 -25 35 -50 51 -139 14 -139 -58 0 -92 118 -115
156 -31 l11 24 166 0 166 0 118 118 117 117 0 220 0 219 57 58 c33 33 51 58
42 58 -8 0 -38 -24 -67 -53z m-652 -702 c17 -21 4 -62 -22 -71 -16 -5 -27 -1
-40 16 -22 27 -22 34 -2 54 20 20 48 20 64 1z"/>
<path d="M9557 9952 l-47 -48 0 -299 0 -299 -118 -118 -118 -118 -375 0 -374
0 -145 145 -145 145 -380 0 -380 0 -125 -125 -125 -125 -822 0 c-677 0 -823 2
-823 13 0 8 -10 23 -23 35 -74 70 -182 -36 -114 -112 38 -43 106 -36 132 14
l16 30 822 0 822 0 125 125 125 125 370 0 370 0 145 -145 145 -145 384 0 384
0 124 122 123 122 0 300 0 300 52 53 c30 31 46 53 37 53 -8 0 -36 -22 -62 -48z
m-4017 -831 c15 -29 13 -39 -15 -57 -24 -16 -27 -16 -45 1 -23 20 -26 45 -8
63 18 18 56 14 68 -7z"/>
<path d="M9737 9922 l-77 -77 0 -320 0 -320 -98 -98 -97 -97 -625 0 -625 0
-95 -95 -95 -95 -138 0 -139 0 -28 30 c-15 17 -38 30 -49 30 -28 0 -71 -43
-71 -70 0 -27 43 -70 71 -70 11 0 34 14 49 30 l28 30 144 0 143 0 95 95 95 95
625 0 625 0 102 102 103 103 0 320 0 320 82 82 c46 46 76 83 68 83 -9 0 -50
-35 -93 -78z m-2043 -1088 c9 -8 16 -19 16 -24 0 -10 -29 -40 -39 -40 -13 0
-31 24 -31 40 0 16 18 40 31 40 4 0 15 -7 23 -16z"/>
<path d="M9980 9791 c0 -129 4 -212 10 -216 7 -4 10 68 10 209 0 137 -4 216
-10 216 -6 0 -10 -76 -10 -209z"/>
<path d="M117 9852 c-25 -27 -21 -67 8 -90 l25 -20 0 -254 0 -254 -63 -62
c-34 -34 -68 -62 -75 -62 -15 0 -15 -13 0 -28 10 -10 10 -17 0 -33 -16 -25 -8
-37 13 -19 8 7 15 24 15 39 0 19 17 44 65 91 l65 64 0 263 c0 155 4 263 9 263
19 0 41 32 41 59 0 54 -68 82 -103 43z m68 -42 c0 -18 -6 -26 -23 -28 -13 -2
-25 3 -28 12 -10 26 4 48 28 44 17 -2 23 -10 23 -28z"/>
<path d="M9797 9852 c-29 -32 -13 -102 24 -102 5 0 9 -108 9 -263 l0 -263 65
-64 c48 -47 65 -72 65 -91 0 -15 7 -32 15 -39 21 -18 29 -6 13 19 -10 16 -10
23 0 33 16 16 15 28 -1 28 -7 0 -41 28 -75 63 l-62 63 0 253 0 253 25 20 c47
37 22 108 -37 108 -14 0 -32 -8 -41 -18z m68 -42 c0 -18 -6 -26 -23 -28 -24
-4 -38 18 -28 44 3 9 15 14 28 12 17 -2 23 -10 23 -28z"/>
<path d="M1796 9199 c-32 -25 -35 -70 -6 -99 29 -29 67 -25 100 10 l28 30 300
0 c286 0 301 -1 307 -19 3 -10 19 -24 35 -31 25 -10 34 -10 55 4 56 37 36 116
-30 116 -24 0 -39 -7 -53 -25 l-20 -25 -297 0 -297 0 -28 30 c-33 35 -57 38
-94 9z m74 -48 c0 -28 -28 -47 -48 -34 -23 14 -26 38 -7 57 20 20 55 5 55 -23z
m739 15 c23 -28 -17 -68 -45 -45 -15 12 -19 41 -7 52 11 12 40 8 52 -7z"/>
<path d="M8110 9190 l-28 -30 -297 0 -297 0 -20 25 c-14 18 -29 25 -53 25 -66
0 -86 -79 -30 -116 21 -14 30 -14 55 -4 16 7 32 21 35 31 6 18 21 19 307 19
l300 0 28 -30 c33 -35 71 -39 100 -10 29 29 26 74 -6 99 -37 29 -61 26 -94 -9z
m86 -32 c9 -29 -20 -57 -44 -42 -24 15 -27 45 -7 60 21 16 42 8 51 -18z m-748
-4 c4 -25 -19 -47 -41 -38 -22 8 -30 34 -16 51 17 20 53 12 57 -13z"/>
<path d="M1959 9032 c-15 -13 -22 -30 -22 -50 0 -72 79 -98 126 -42 l26 30
118 0 118 0 85 -85 85 -85 126 0 c124 0 126 0 137 -25 6 -13 23 -27 38 -31 62
-16 109 34 88 93 -18 52 -104 57 -126 8 -11 -25 -13 -25 -132 -25 l-121 0 -85
85 -85 85 -125 0 -126 0 -22 30 c-27 35 -67 40 -103 12z m75 -31 c19 -21 12
-48 -15 -56 -38 -12 -65 35 -37 63 17 17 32 15 52 -7z m816 -166 c26 -32 -13
-81 -47 -59 -35 22 -23 74 17 74 10 0 23 -7 30 -15z"/>
<path d="M7938 9020 l-22 -30 -126 0 -125 0 -85 -85 -85 -85 -121 0 c-119 0
-121 0 -132 25 -22 49 -108 44 -126 -8 -21 -59 26 -109 88 -93 15 4 32 18 38
31 11 25 13 25 137 25 l126 0 85 85 85 85 118 0 118 0 26 -30 c47 -56 126 -30
126 42 0 66 -84 92 -125 38z m80 -12 c28 -28 1 -75 -37 -63 -27 8 -34 35 -15
56 20 22 35 24 52 7z m-808 -173 c26 -32 -13 -81 -47 -59 -35 22 -23 74 17 74
10 0 23 -7 30 -15z"/>
<path d="M4832 9010 c-12 -12 -22 -27 -22 -35 0 -8 -6 -15 -12 -16 -7 0 -494
0 -1082 1 l-1069 1 -28 30 c-17 18 -37 29 -53 29 -34 0 -76 -41 -76 -75 0 -33
42 -75 75 -75 26 0 75 39 75 60 0 7 335 10 1080 10 l1079 0 15 -29 c17 -33 34
-41 81 -41 67 0 99 87 50 135 -30 31 -82 33 -113 5z m92 -42 c15 -24 -3 -52
-37 -56 -33 -4 -53 28 -37 59 14 25 58 23 74 -3z m-2325 -7 c14 -26 -8 -54
-39 -49 -25 3 -36 27 -26 54 8 20 53 17 65 -5z"/>
<path d="M5055 9005 c-49 -48 -17 -135 50 -135 47 0 64 8 81 41 l15 29 1079 0
c745 0 1080 -3 1080 -10 0 -21 49 -60 75 -60 33 0 75 42 75 75 0 34 -42 75
-76 75 -16 0 -36 -11 -53 -29 l-28 -30 -1069 -1 c-588 -1 -1075 -1 -1081 -1
-7 1 -13 8 -13 16 0 8 -10 23 -22 35 -31 28 -83 26 -113 -5z m95 -35 c8 -14 8
-26 0 -40 -19 -35 -80 -20 -80 20 0 40 61 55 80 20z m2315 -25 c0 -24 -5 -31
-24 -33 -32 -5 -54 23 -40 50 7 13 19 18 37 16 23 -2 27 -8 27 -33z"/>
<path d="M533 8910 c-16 -18 -30 -20 -173 -20 l-156 0 -43 -44 c-37 -38 -48
-44 -75 -39 -49 8 -86 -27 -86 -82 0 -35 5 -48 26 -64 37 -29 70 -26 105 8 31
32 36 55 17 97 -11 24 -9 29 30 65 l41 39 148 0 c137 0 149 -1 161 -20 16 -27
57 -26 76 2 9 12 16 26 16 30 0 14 -39 48 -55 48 -8 0 -23 -9 -32 -20z m57
-15 c17 -20 5 -45 -20 -45 -23 0 -35 22 -26 45 7 19 30 19 46 0z m-486 -141
c9 -8 16 -22 16 -29 0 -16 -27 -45 -42 -45 -16 0 -48 31 -48 46 0 17 28 44 45
44 7 0 21 -7 29 -16z"/>
<path d="M9400 8910 c-24 -24 -24 -29 -4 -58 19 -28 60 -29 76 -2 12 19 24 20
161 20 l148 0 41 -39 c39 -36 41 -41 30 -65 -19 -42 -14 -65 17 -97 35 -34 68
-37 105 -8 21 16 26 29 26 64 0 55 -37 90 -86 82 -27 -5 -38 1 -75 39 l-43 44
-156 0 c-143 0 -157 2 -173 20 -9 11 -24 20 -32 20 -8 0 -24 -9 -35 -20z m55
-30 c0 -18 -6 -26 -23 -28 -27 -4 -40 22 -22 44 19 22 45 13 45 -16z m499
-126 c9 -8 16 -20 16 -26 0 -16 -31 -48 -46 -48 -17 0 -44 28 -44 45 0 7 7 21
16 29 8 9 22 16 29 16 7 0 21 -7 29 -16z"/>
<path d="M780 8870 c-14 -26 -5 -57 22 -71 16 -9 26 -7 49 10 28 21 38 21 431
21 l403 0 140 -140 140 -140 415 0 415 0 125 125 125 125 362 0 c246 0 363 -3
363 -10 0 -23 50 -60 80 -60 43 0 65 14 80 50 10 24 10 36 0 60 -15 36 -37 50
-80 50 -30 0 -80 -37 -80 -60 0 -7 -119 -10 -368 -10 l-367 0 -125 -125 -125
-125 -405 0 -405 0 -140 140 -140 140 -410 0 c-399 0 -411 1 -423 20 -17 27
-68 27 -82 0z m58 -2 c17 -17 15 -45 -4 -52 -18 -7 -44 10 -44 28 0 13 20 36
30 36 3 0 11 -5 18 -12z m3052 -38 c8 -14 8 -26 0 -40 -19 -35 -80 -20 -80 20
0 40 61 55 80 20z"/>
<path d="M6099 8880 c-29 -17 -43 -66 -29 -100 15 -36 37 -50 80 -50 30 0 80
37 80 60 0 7 117 10 363 10 l362 0 125 -125 125 -125 415 0 415 0 140 140 140
140 403 0 c393 0 403 0 431 -21 23 -17 33 -19 49 -10 27 14 36 45 22 71 -14
27 -65 27 -82 0 -12 -19 -24 -20 -423 -20 l-410 0 -140 -140 -140 -140 -405 0
-405 0 -125 125 -125 125 -367 0 c-249 0 -368 3 -368 10 0 6 -11 22 -25 35
-25 26 -75 33 -106 15z m3105 -23 c14 -21 -13 -51 -37 -41 -20 7 -22 35 -5 52
15 15 28 11 42 -11z m-3020 -29 c15 -24 -3 -52 -37 -56 -33 -4 -53 28 -37 59
14 25 58 23 74 -3z"/>
<path d="M591 8694 c-65 -82 48 -185 119 -109 l23 25 299 0 298 0 39 35 38 35
119 0 119 0 118 -118 117 -117 0 -243 c0 -201 -3 -247 -15 -266 -21 -32 -10
-58 24 -54 20 2 27 9 29 31 2 15 -1 27 -7 27 -8 0 -11 82 -11 258 l0 257 -123
123 -122 122 -129 0 -129 0 -38 -35 -39 -35 -289 0 -289 0 -11 31 c-14 42 -38
58 -83 59 -28 0 -41 -6 -57 -26z m99 -34 c8 -14 8 -26 0 -40 -19 -35 -80 -20
-80 20 0 40 61 55 80 20z m1218 -743 c4 -22 -27 -35 -38 -16 -10 15 7 42 24
36 6 -2 12 -11 14 -20z"/>
<path d="M9297 8706 c-9 -7 -22 -27 -28 -45 l-11 -31 -289 0 -289 0 -39 35
-38 35 -129 0 -129 0 -123 -123 -122 -122 0 -258 c0 -175 -3 -257 -11 -257 -6
0 -9 -12 -7 -27 2 -22 9 -29 29 -31 34 -4 45 22 24 54 -12 19 -15 65 -15 266
l0 243 117 117 118 118 119 0 119 0 38 -35 39 -35 298 0 299 0 23 -25 c32 -34
82 -34 115 0 51 50 17 135 -53 135 -20 0 -45 -7 -55 -14z m87 -48 c15 -24 -3
-52 -37 -56 -33 -4 -53 28 -37 59 14 25 58 23 74 -3z m-1257 -729 c14 -14 6
-39 -12 -39 -18 0 -28 17 -21 35 6 18 18 19 33 4z"/>
<path d="M300 8523 c-43 -54 -5 -133 64 -133 35 1 57 15 75 48 l12 22 537 0
537 0 93 -93 92 -92 0 -153 c0 -139 -2 -154 -20 -172 -27 -27 -25 -56 5 -76
23 -15 27 -15 50 0 30 20 32 50 5 73 -18 16 -20 30 -20 178 l0 160 -98 98 -97
97 -543 0 -542 0 -10 24 c-20 53 -104 64 -140 19z m100 -28 c10 -12 10 -21 2
-40 -19 -40 -82 -29 -82 15 0 37 55 55 80 25z m1348 -582 c3 -22 -28 -40 -48
-28 -12 7 -13 38 -3 49 15 14 48 1 51 -21z"/>
<path d="M3405 8525 c-14 -13 -25 -29 -25 -35 0 -7 -178 -10 -563 -10 l-562 0
-103 -103 -102 -102 0 -155 c0 -144 -1 -156 -20 -168 -24 -15 -26 -54 -4 -76
21 -21 40 -20 64 4 25 25 25 46 0 67 -18 16 -20 30 -20 168 l0 150 98 98 97
97 558 0 c381 0 557 -3 557 -10 0 -6 11 -22 25 -35 58 -59 158 -5 140 76 -13
60 -95 80 -140 34z m101 -40 c9 -22 -15 -55 -39 -55 -47 0 -63 48 -25 74 23
16 54 7 64 -19z m-1420 -560 c7 -18 -13 -45 -33 -45 -17 0 -27 24 -19 45 7 20
45 19 52 0z"/>
<path d="M6483 8535 c-41 -29 -38 -98 6 -132 27 -21 79 -15 106 12 14 13 25
29 25 35 0 7 176 10 558 10 l557 0 98 -98 97 -97 0 -150 c0 -138 -2 -152 -20
-168 -11 -9 -20 -24 -20 -32 0 -19 35 -55 54 -55 42 0 62 70 26 92 -19 12 -20
24 -20 168 l0 155 -103 103 -102 102 -563 0 c-384 0 -562 3 -562 10 0 6 -11
22 -25 35 -28 29 -79 33 -112 10z m95 -59 c10 -47 -60 -64 -80 -20 -11 23 -10
29 11 45 21 17 26 18 45 6 12 -8 22 -22 24 -31z m1390 -564 c4 -28 -24 -40
-45 -19 -21 21 -9 49 19 45 15 -2 24 -11 26 -26z"/>
<path d="M9587 8539 c-10 -6 -22 -22 -27 -35 l-10 -24 -542 0 -543 0 -98 -98
-97 -97 0 -160 c0 -148 -2 -162 -20 -178 -27 -23 -25 -53 5 -73 23 -15 27 -15
50 0 30 20 32 49 5 76 -18 18 -20 33 -20 173 l0 152 93 93 92 92 537 0 537 0
12 -22 c18 -33 40 -47 75 -48 69 0 107 79 64 133 -17 21 -30 27 -58 27 -20 0
-45 -5 -55 -11z m87 -51 c15 -25 -3 -52 -37 -56 -34 -4 -58 38 -37 63 17 20
59 16 74 -7z m-1366 -572 c5 -25 -12 -39 -37 -31 -20 6 -28 34 -14 49 13 13
48 1 51 -18z"/>
<path d="M22 8438 c-30 -30 10 -98 49 -83 9 3 33 -13 58 -39 l44 -45 585 0
c512 0 587 -2 602 -16 26 -24 69 -19 81 9 24 52 -38 90 -82 50 -16 -15 -78
-16 -600 -16 l-582 1 -39 38 c-25 25 -36 43 -32 55 9 28 -14 58 -44 58 -16 0
-33 -5 -40 -12z m68 -32 c0 -20 -25 -37 -44 -30 -19 7 -21 35 -4 52 14 14 48
-2 48 -22z m1334 -109 c8 -12 7 -21 -5 -32 -21 -21 -49 -9 -49 20 0 36 34 44
54 12z"/>
<path d="M9900 8430 c-6 -12 -9 -29 -6 -38 4 -12 -7 -30 -32 -55 l-39 -38
-582 -1 c-522 0 -584 1 -600 16 -44 40 -106 2 -82 -50 12 -28 55 -33 81 -9 15
14 90 16 602 16 l585 0 44 45 c25 26 49 42 58 39 39 -15 79 53 49 83 -20 20
-66 15 -78 -8z m70 -30 c0 -23 -28 -34 -46 -19 -19 16 -17 36 3 48 21 11 43
-3 43 -29z m-1356 -86 c21 -8 21 -50 0 -58 -32 -12 -57 27 -32 52 14 14 12 14
32 6z"/>
<path d="M3772 8380 c-12 -5 -30 -23 -40 -40 l-17 -30 -680 0 -681 0 -64 -65
c-54 -54 -70 -65 -98 -65 -42 0 -82 -38 -82 -78 0 -45 34 -82 76 -82 47 0 69
13 83 49 11 25 10 35 -5 66 l-17 36 59 60 58 59 678 0 c465 0 678 -3 678 -10
0 -22 50 -60 78 -60 36 0 78 32 84 64 8 39 -16 82 -52 95 -18 6 -33 11 -34 10
-1 0 -11 -4 -24 -9z m47 -40 c40 -21 31 -80 -12 -80 -44 0 -62 43 -31 74 18
19 20 19 43 6z m-1589 -220 c8 -14 8 -26 0 -40 -19 -35 -80 -20 -80 20 0 40
61 55 80 20z"/>
<path d="M6163 8375 c-33 -14 -50 -49 -44 -90 3 -30 48 -65 82 -65 29 0 79 37
79 60 0 7 213 10 678 10 l678 0 58 -59 59 -60 -17 -36 c-15 -31 -16 -41 -5
-66 14 -36 36 -49 83 -49 42 0 76 37 76 82 0 40 -40 78 -82 78 -28 0 -44 11
-98 65 l-64 65 -683 0 c-657 0 -682 1 -688 19 -14 45 -65 66 -112 46z m61 -41
c31 -31 13 -74 -31 -74 -55 0 -47 83 9 89 4 1 14 -6 22 -15z m1620 -216 c15
-24 -3 -52 -37 -56 -33 -4 -53 28 -37 59 14 25 58 23 74 -3z"/>
<path d="M106 8199 c-17 -13 -26 -30 -26 -49 0 -28 22 -60 41 -60 5 0 9 -369
9 -943 l0 -943 -65 -64 c-36 -35 -65 -71 -65 -79 0 -9 34 18 75 59 l75 74 0
941 0 941 30 22 c39 29 41 72 4 101 -15 12 -32 21 -39 21 -7 0 -24 -9 -39 -21z
m73 -43 c5 -27 -26 -48 -50 -35 -19 10 -25 39 -12 53 14 14 58 1 62 -18z"/>
<path d="M9816 8199 c-37 -29 -35 -72 4 -101 l30 -22 0 -941 0 -941 75 -74
c41 -41 75 -68 75 -59 0 8 -29 44 -65 79 l-65 64 0 943 c0 574 4 943 9 943 19
0 41 32 41 60 0 29 -38 70 -65 70 -7 0 -24 -9 -39 -21z m73 -43 c5 -27 -26
-48 -50 -35 -19 10 -25 39 -12 53 14 14 58 1 62 -18z"/>
<path d="M312 8077 l-62 -63 0 -171 c0 -162 -1 -173 -20 -183 -49 -26 -27
-110 30 -110 59 0 84 74 35 106 l-25 16 0 167 0 167 58 57 58 57 495 0 494 0
83 -83 c63 -63 82 -89 82 -110 0 -19 7 -31 24 -38 34 -16 66 3 66 40 0 35 -22
55 -54 49 -20 -4 -39 10 -108 79 l-83 83 -505 0 -506 0 -62 -63z m1302 -133
c7 -19 -10 -44 -29 -44 -19 0 -36 25 -29 44 3 9 16 16 29 16 13 0 26 -7 29
-16z m-1324 -323 c14 -28 -13 -55 -41 -41 -22 12 -25 30 -7 48 18 18 36 15 48
-7z"/>
<path d="M8532 8057 c-69 -69 -88 -83 -108 -79 -32 6 -54 -14 -54 -49 0 -37
32 -56 66 -40 17 7 24 19 24 39 0 21 18 46 83 110 l82 82 496 0 495 0 57 -58
57 -58 0 -166 0 -166 -25 -16 c-49 -32 -24 -106 35 -106 57 0 79 84 30 110
-19 10 -20 21 -20 183 l0 173 -63 62 -63 62 -504 0 -505 0 -83 -83z m-88 -113
c7 -19 -10 -44 -29 -44 -19 0 -36 25 -29 44 3 9 16 16 29 16 13 0 26 -7 29
-16z m1314 -316 c18 -18 15 -36 -7 -48 -15 -7 -23 -6 -35 6 -12 12 -13 20 -6
35 12 22 30 25 48 7z"/>
<path d="M0 8008 c0 -9 7 -21 15 -28 23 -19 22 -340 -1 -375 -21 -32 -3 -57
35 -53 20 2 27 9 29 31 2 18 -2 29 -12 33 -14 5 -16 32 -16 183 0 176 0 178
-25 201 -19 18 -25 20 -25 8z m68 -421 c4 -20 -25 -34 -40 -19 -15 15 -1 44
19 40 10 -2 19 -11 21 -21z"/>
<path d="M9972 7997 c-21 -22 -22 -31 -22 -199 0 -150 -2 -177 -16 -182 -10
-4 -14 -15 -12 -33 2 -22 9 -29 29 -31 38 -4 56 21 35 53 -24 36 -24 350 0
376 25 28 12 43 -14 16z m6 -410 c4 -20 -25 -34 -40 -19 -15 15 -1 44 19 40
10 -2 19 -11 21 -21z"/>
<path d="M592 7937 l-72 -72 0 -198 0 -197 -25 -10 c-47 -18 -58 -84 -21 -126
18 -22 32 -28 60 -27 89 3 113 107 36 151 l-30 17 0 190 0 191 68 67 68 67
290 0 290 0 66 -67 c52 -53 66 -73 62 -89 -11 -41 53 -73 84 -42 30 30 -6 96
-45 84 -14 -4 -37 12 -88 64 l-69 70 -301 0 -301 0 -72 -73z m863 -107 c0 -18
-6 -26 -23 -28 -13 -2 -25 3 -28 12 -10 26 4 48 28 44 17 -2 23 -10 23 -28z
m-891 -416 c22 -22 20 -41 -8 -59 -29 -19 -54 -10 -62 21 -12 46 37 72 70 38z"/>
<path d="M8665 7940 c-51 -52 -74 -68 -88 -64 -39 12 -75 -54 -45 -84 31 -31
95 1 84 42 -4 16 10 36 62 89 l66 67 291 0 291 0 67 -68 67 -68 0 -189 0 -190
-30 -17 c-77 -44 -53 -148 36 -151 28 -1 42 5 60 27 37 42 26 108 -21 126
l-25 10 0 198 0 198 -73 72 -72 72 -301 0 -300 0 -69 -70z m-70 -110 c0 -18
-6 -26 -23 -28 -24 -4 -38 18 -28 44 3 9 15 14 28 12 17 -2 23 -10 23 -28z
m905 -415 c15 -19 6 -61 -16 -69 -20 -8 -64 19 -64 39 0 37 56 58 80 30z"/>
<path d="M344 7932 c-39 -26 -36 -90 6 -112 20 -11 20 -15 20 -733 l0 -722
138 -138 137 -137 220 0 220 0 94 94 c68 69 98 92 112 89 26 -7 49 14 49 46 0
32 -16 51 -45 51 -30 0 -45 -19 -45 -55 0 -26 -15 -46 -89 -118 l-88 -87 -209
0 -209 0 -133 133 -132 132 0 716 0 717 25 16 c55 36 36 116 -28 116 -17 0
-37 -4 -43 -8z m65 -36 c23 -28 -17 -68 -45 -45 -15 12 -19 41 -7 52 11 12 40
8 52 -7z m911 -1561 c10 -12 10 -18 0 -30 -7 -8 -18 -15 -25 -15 -7 0 -18 7
-25 15 -10 12 -10 18 0 30 7 8 18 15 25 15 7 0 18 -7 25 -15z"/>
<path d="M9564 7915 c-21 -32 -12 -69 21 -91 l25 -16 0 -717 0 -716 -132 -132
-133 -133 -209 0 -209 0 -88 87 c-74 72 -89 92 -89 118 0 36 -15 55 -45 55
-29 0 -45 -19 -45 -51 0 -32 23 -53 49 -46 14 3 44 -20 112 -89 l94 -94 220 0
220 0 138 138 137 137 0 722 c0 718 0 722 20 733 29 16 43 56 29 83 -16 30
-28 37 -66 37 -24 0 -37 -7 -49 -25z m84 -31 c4 -25 -19 -47 -41 -38 -22 8
-30 34 -16 51 17 20 53 12 57 -13z m-918 -1549 c10 -12 10 -18 0 -30 -7 -8
-18 -15 -25 -15 -7 0 -18 7 -25 15 -10 12 -10 18 0 30 7 8 18 15 25 15 7 0 18
-7 25 -15z"/>
<path d="M737 7812 l-57 -58 0 -270 0 -270 -70 -69 -70 -69 0 -93 c0 -89 -1
-94 -24 -105 -37 -16 -54 -64 -35 -97 20 -36 60 -54 93 -42 62 24 71 107 15
140 -28 16 -29 18 -29 95 l0 79 70 73 70 72 0 274 0 274 53 52 53 52 175 0
175 0 74 -75 c53 -53 74 -82 72 -96 -5 -28 15 -49 47 -49 32 0 51 16 51 45 0
29 -19 45 -55 45 -25 0 -44 14 -105 75 l-74 75 -186 0 -186 0 -57 -58z m637
-125 c16 -25 -16 -56 -38 -37 -19 15 -20 32 -4 48 15 15 28 11 42 -11z m-794
-852 c26 -32 -13 -81 -47 -59 -35 22 -23 74 17 74 10 0 23 -7 30 -15z"/>
<path d="M8760 7795 c-61 -61 -80 -75 -105 -75 -36 0 -55 -16 -55 -45 0 -29
19 -45 51 -45 32 0 52 21 47 49 -2 14 19 43 72 96 l74 75 176 0 176 0 52 -53
52 -53 0 -273 0 -273 70 -72 70 -73 0 -79 c0 -77 -1 -79 -29 -95 -56 -33 -47
-116 15 -140 33 -12 73 6 93 42 19 33 2 81 -35 97 -23 11 -24 16 -24 105 l0
93 -70 69 -70 69 0 271 0 271 -58 57 -58 57 -185 0 -185 0 -74 -75z m-86 -108
c16 -25 -16 -56 -38 -37 -19 15 -20 32 -4 48 15 15 28 11 42 -11z m806 -852
c26 -32 -13 -81 -47 -59 -35 22 -23 74 17 74 10 0 23 -7 30 -15z"/>
<path d="M1907 7810 c-22 -17 -40 -20 -134 -20 l-109 0 -62 -63 -62 -63 0
-159 0 -160 -120 -120 -120 -120 0 -120 0 -120 -173 -173 -172 -172 -137 0
c-111 0 -137 3 -142 15 -3 9 -18 15 -40 15 -30 0 -37 -4 -42 -27 -14 -53 44
-84 81 -43 17 18 30 20 154 20 l136 0 177 177 178 178 0 120 0 120 120 120
120 120 0 160 0 159 57 58 57 58 106 0 c95 0 106 -2 118 -21 20 -32 74 -23 87
15 8 24 6 31 -14 47 -29 24 -32 24 -64 -1z m47 -6 c22 -8 20 -41 -2 -53 -22
-12 -42 3 -42 29 0 28 14 36 44 24z m-1295 -1278 c25 -30 -16 -67 -44 -40 -18
19 -19 26 -3 42 16 16 33 15 47 -2z"/>
<path d="M8029 7811 c-20 -16 -22 -23 -14 -47 13 -38 67 -47 87 -15 12 19 23
21 118 21 l106 0 57 -58 57 -58 0 -159 0 -160 120 -120 120 -120 0 -120 0
-120 178 -178 177 -177 136 0 c124 0 137 -2 154 -20 37 -41 95 -10 81 43 -5
23 -12 27 -42 27 -22 0 -37 -6 -40 -15 -5 -12 -31 -15 -143 -15 l-136 0 -173
173 -172 172 0 120 0 120 -120 120 -120 120 0 160 0 161 -63 62 -63 62 -108 0
c-93 0 -111 3 -133 20 -32 25 -35 25 -64 1z m59 -24 c2 -10 -2 -24 -8 -32 -16
-19 -50 -2 -50 25 0 33 52 39 58 7z m1301 -1261 c25 -30 -16 -67 -44 -40 -18
19 -19 26 -3 42 16 16 33 15 47 -2z"/>
<path d="M2022 7778 c-18 -18 -14 -53 8 -73 37 -33 26 -65 -50 -140 -55 -54
-72 -67 -82 -57 -18 18 -73 15 -97 -5 -59 -49 -23 -145 53 -145 54 0 80 29 81
87 0 41 5 49 68 112 55 56 67 74 67 101 0 19 8 40 20 52 24 24 25 43 4 64 -18
19 -55 21 -72 4z m68 -32 c0 -20 -27 -39 -45 -32 -18 6 -20 37 -3 54 14 14 48
-2 48 -22z m-198 -292 c11 -23 10 -29 -11 -45 -21 -17 -26 -18 -45 -6 -41 27
-27 77 20 77 17 0 28 -9 36 -26z"/>
<path d="M7906 7774 c-21 -21 -20 -40 4 -64 12 -12 20 -33 20 -52 0 -27 12
-45 68 -101 62 -63 67 -71 67 -112 1 -58 27 -87 81 -87 53 0 89 40 80 91 -3
20 -15 44 -27 54 -24 20 -79 23 -97 5 -10 -10 -27 3 -82 57 -76 75 -87 107
-50 140 22 20 26 55 8 73 -17 17 -54 15 -72 -4z m62 -38 c-4 -26 -37 -28 -52
-3 -9 15 -7 21 8 32 24 18 48 2 44 -29z m212 -271 c16 -19 9 -45 -16 -62 -19
-12 -24 -11 -45 6 -21 16 -22 22 -11 45 13 29 52 36 72 11z"/>
<path d="M790 7720 c-11 -11 -20 -33 -20 -50 0 -29 29 -70 50 -70 6 0 10 -86
10 -238 l0 -237 85 -85 85 -85 0 -70 c0 -59 -3 -72 -20 -83 -40 -25 -13 -97
33 -90 12 2 28 15 36 30 14 25 14 29 -7 51 -19 20 -22 35 -22 98 l0 74 -85 85
-85 85 0 228 0 228 30 26 c36 30 40 69 10 101 -26 28 -73 29 -100 2z m74 -26
c9 -8 16 -19 16 -24 0 -9 -28 -40 -36 -40 -17 0 -44 23 -44 38 0 38 37 53 64
26z m171 -934 c0 -18 -6 -26 -23 -28 -24 -4 -38 18 -28 44 3 9 15 14 28 12 17
-2 23 -10 23 -28z"/>
<path d="M9110 7718 c-30 -32 -26 -71 10 -101 l30 -26 0 -228 0 -228 -85 -85
-85 -85 0 -74 c0 -63 -3 -78 -22 -98 -21 -22 -21 -26 -7 -51 8 -15 24 -28 36
-30 46 -7 73 65 33 90 -17 11 -20 24 -20 83 l0 70 85 85 85 85 0 237 c0 152 4
238 10 238 21 0 50 41 50 70 0 63 -77 94 -120 48z m78 -20 c18 -18 14 -46 -7
-58 -11 -5 -22 -10 -25 -10 -8 0 -36 31 -36 40 0 13 30 40 44 40 6 0 17 -5 24
-12z m-173 -938 c0 -18 -6 -26 -23 -28 -24 -4 -38 18 -28 44 3 9 15 14 28 12
17 -2 23 -10 23 -28z"/>
<path d="M1023 7700 c-30 -12 -45 -44 -41 -88 2 -29 10 -41 35 -57 l32 -20 1
-109 c0 -104 -1 -109 -25 -128 -30 -24 -32 -61 -5 -88 26 -26 50 -25 78 0 29
27 28 55 -3 86 -24 24 -25 31 -25 134 l0 109 29 15 c31 16 41 34 41 71 0 37
-10 55 -41 70 -32 17 -44 18 -76 5z m58 -40 c37 -20 15 -87 -27 -78 -9 2 -23
12 -30 23 -12 18 -11 24 2 43 17 25 27 27 55 12z m5 -395 c7 -18 -13 -45 -33
-45 -17 0 -27 24 -19 45 7 20 45 19 52 0z"/>
<path d="M8905 7699 c-30 -17 -45 -40 -45 -70 0 -41 9 -58 41 -75 l29 -15 0
-109 c0 -103 -1 -110 -25 -134 -31 -31 -32 -59 -3 -86 28 -25 52 -26 78 0 27
27 25 64 -5 88 -24 19 -25 24 -25 128 l1 109 32 20 c26 17 33 28 35 61 2 28
-3 47 -15 62 -22 26 -70 37 -98 21z m71 -54 c26 -39 -31 -86 -64 -53 -18 18
-15 55 6 67 23 14 42 10 58 -14z m-8 -393 c4 -28 -24 -40 -45 -19 -21 21 -9
49 19 45 15 -2 24 -11 26 -26z"/>
<path d="M1377 7449 c-8 -11 -13 -28 -10 -37 2 -11 -30 -50 -97 -117 l-100
-100 0 -115 c0 -104 -2 -116 -20 -128 -42 -26 -7 -102 39 -87 40 12 49 67 14
88 -9 6 -13 38 -13 120 l0 112 98 98 c69 69 103 96 114 92 27 -11 58 13 58 43
0 16 -5 33 -12 40 -19 19 -55 14 -71 -9z m63 -14 c10 -12 10 -18 0 -30 -7 -8
-18 -15 -25 -15 -19 0 -36 25 -29 44 8 20 38 21 54 1z m-230 -519 c0 -20 -27
-39 -45 -32 -18 7 -20 52 -2 59 17 6 47 -11 47 -27z"/>
<path d="M8552 7458 c-7 -7 -12 -24 -12 -40 0 -30 31 -54 58 -43 11 4 45 -23
114 -92 l98 -98 0 -113 c0 -87 -3 -114 -14 -118 -35 -13 -24 -77 15 -89 46
-15 81 61 39 87 -18 12 -20 24 -20 128 l0 115 -100 100 c-67 67 -99 106 -97
117 11 41 -51 76 -81 46z m62 -24 c7 -19 -10 -44 -29 -44 -7 0 -18 7 -25 15
-10 12 -10 18 0 30 16 20 46 19 54 -1z m234 -523 c-4 -31 -35 -36 -52 -8 -9
14 -7 21 7 32 27 19 49 8 45 -24z"/>
<path d="M217 7402 c-26 -28 -22 -77 8 -100 l25 -20 0 -574 0 -574 -40 -39
-40 -39 0 -401 c0 -389 -1 -401 -20 -413 -25 -15 -26 -54 -2 -75 24 -22 38
-21 62 3 25 25 25 46 0 67 -19 17 -20 30 -20 413 l0 396 40 39 40 39 0 574 0
574 30 28 c35 33 39 71 10 100 -25 25 -72 26 -93 2z m74 -28 c17 -21 0 -49
-32 -49 -18 0 -25 6 -27 24 -6 38 34 55 59 25z m-85 -2159 c7 -18 -13 -45 -33
-45 -17 0 -27 24 -19 45 7 20 45 19 52 0z"/>
<path d="M9690 7400 c-29 -29 -25 -67 10 -100 l30 -28 0 -574 0 -574 40 -39
40 -39 0 -396 c0 -383 -1 -396 -20 -413 -11 -9 -20 -24 -20 -32 0 -19 35 -55
53 -55 20 0 47 33 47 58 0 12 -9 27 -20 34 -19 12 -20 24 -20 413 l0 401 -40
39 -40 39 0 574 0 574 25 20 c31 24 34 77 7 101 -25 23 -68 21 -92 -3z m68
-19 c8 -4 12 -19 10 -32 -4 -29 -45 -34 -61 -7 -19 30 19 60 51 39z m90 -2179
c4 -28 -24 -40 -45 -19 -21 21 -9 49 19 45 15 -2 24 -11 26 -26z"/>
<path d="M0 7324 c0 -10 6 -14 15 -10 19 7 46 -20 39 -39 -4 -8 -17 -15 -31
-15 -22 0 -24 -3 -19 -26 9 -34 9 -925 0 -961 -7 -28 -7 -28 15 -9 21 19 21
21 21 491 0 459 1 472 20 490 24 22 26 58 4 79 -21 21 -64 21 -64 0z"/>
<path d="M9936 7324 c-22 -21 -20 -57 4 -79 19 -18 20 -31 20 -490 0 -470 0
-472 21 -491 22 -19 22 -19 15 9 -9 36 -9 927 0 961 5 23 3 26 -19 26 -30 0
-42 24 -21 44 8 8 21 13 29 10 9 -4 15 0 15 10 0 21 -43 21 -64 0z"/>
<path d="M1641 7276 c-7 -8 -14 -25 -16 -37 -3 -13 -56 -75 -120 -138 l-115
-114 0 -103 c0 -79 -3 -104 -16 -114 -8 -8 -14 -25 -12 -39 2 -21 8 -26 32
-26 39 0 56 27 33 53 -14 15 -17 38 -17 118 l0 99 115 115 c84 83 121 114 136
112 27 -4 49 15 49 42 0 41 -45 62 -69 32z m53 -22 c8 -21 -1 -34 -24 -34 -22
0 -34 15 -26 35 7 20 42 19 50 -1z m-276 -517 c4 -20 -25 -34 -40 -19 -15 15
-1 44 19 40 10 -2 19 -11 21 -21z"/>
<path d="M8302 7278 c-29 -29 -4 -83 37 -76 15 2 52 -29 136 -112 l115 -115 0
-99 c0 -80 -3 -103 -17 -118 -23 -26 -6 -53 33 -53 24 0 30 5 32 26 2 14 -4
31 -12 39 -13 10 -16 35 -16 114 l0 103 -115 114 c-64 63 -117 125 -120 138
-9 46 -46 66 -73 39z m53 -33 c0 -21 -31 -33 -46 -18 -5 5 -7 17 -3 27 9 24
49 17 49 -9z m273 -508 c4 -20 -25 -34 -40 -19 -15 15 -1 44 19 40 10 -2 19
-11 21 -21z"/>
<path d="M717 7009 c-16 -22 -12 -52 9 -70 10 -8 14 -38 14 -113 l0 -102 -38
-37 c-32 -32 -44 -37 -83 -37 -33 0 -51 6 -64 20 -33 36 -85 20 -85 -26 0 -25
24 -54 46 -54 8 0 23 9 34 20 15 15 33 20 73 20 49 0 56 3 95 43 l42 43 0 107
c0 96 2 107 20 117 23 12 27 59 8 78 -19 19 -55 14 -71 -9z m63 -14 c10 -12
10 -18 0 -30 -7 -8 -18 -15 -25 -15 -19 0 -36 25 -29 44 8 20 38 21 54 1z
m-235 -349 c0 -10 -8 -24 -18 -30 -24 -15 -53 19 -35 41 16 20 53 12 53 -11z"/>
<path d="M9212 7018 c-19 -19 -15 -66 8 -78 18 -10 20 -21 20 -117 l0 -107 42
-43 c39 -40 46 -43 95 -43 40 0 58 -5 73 -20 11 -11 26 -20 34 -20 22 0 46 29
46 54 0 46 -52 62 -85 26 -13 -15 -31 -20 -65 -20 -40 0 -51 5 -83 38 l-37 38
0 101 c0 74 4 104 14 112 21 18 25 48 9 70 -16 23 -52 28 -71 9z m62 -24 c7
-19 -10 -44 -29 -44 -7 0 -18 7 -25 15 -10 12 -10 18 0 30 16 20 46 19 54 -1z
m234 -336 c14 -14 -2 -48 -22 -48 -20 0 -39 27 -32 45 6 18 37 20 54 3z"/>
<path d="M1561 6732 c-5 -10 -9 -27 -8 -37 2 -19 -6 -20 -138 -23 l-141 -3
-144 -144 -145 -145 -71 0 c-59 0 -74 4 -89 20 -22 24 -63 23 -78 -1 -31 -49
38 -105 74 -61 15 19 27 22 96 22 l78 0 145 145 145 145 137 0 c81 0 139 4
143 10 3 6 17 7 30 4 32 -8 62 35 45 65 -14 27 -65 29 -79 3z m59 -7 c17 -20
5 -45 -20 -45 -11 0 -23 7 -26 15 -6 15 11 45 26 45 4 0 13 -7 20 -15z m-805
-335 c11 -18 -6 -50 -26 -50 -22 0 -34 22 -25 45 6 17 42 20 51 5z"/>
<path d="M8360 6729 c-17 -30 13 -73 45 -65 13 3 27 2 30 -4 4 -6 62 -10 143
-10 l137 0 145 -145 145 -145 78 0 c69 0 81 -3 96 -22 36 -44 105 12 74 61
-15 24 -56 25 -78 1 -15 -16 -30 -20 -89 -20 l-71 0 -145 145 -144 144 -141 3
c-132 3 -140 4 -138 23 4 52 -63 79 -87 34z m60 -4 c17 -20 5 -45 -20 -45 -11
0 -23 7 -26 15 -6 15 11 45 26 45 4 0 13 -7 20 -15z m818 -353 c4 -28 -24 -40
-45 -19 -21 21 -9 49 19 45 15 -2 24 -11 26 -26z"/>
<path d="M2052 6497 c-12 -13 -22 -29 -22 -35 0 -9 -99 -12 -402 -12 l-403 0
-100 -100 -100 -99 -174 -2 -174 -1 -73 73 c-54 54 -74 81 -74 99 0 14 -5 31
-12 38 -35 35 -102 -14 -79 -57 11 -20 45 -36 59 -27 5 3 42 -29 82 -69 l74
-75 191 0 190 0 100 100 100 100 397 0 c324 0 398 -2 398 -13 0 -26 45 -57 81
-57 72 0 106 84 54 135 -32 33 -83 34 -113 2z m88 -32 c7 -9 10 -25 6 -40 -6
-22 -11 -26 -39 -23 -27 3 -33 8 -35 32 -5 43 41 64 68 31z m-1632 -27 c14
-14 -2 -48 -22 -48 -20 0 -39 27 -32 45 6 18 37 20 54 3z"/>
<path d="M7835 6495 c-53 -52 -18 -135 56 -135 36 0 79 32 79 58 0 9 98 12
398 12 l397 0 100 -100 100 -100 190 0 191 0 74 75 c40 40 77 72 82 69 14 -9
48 7 59 27 23 43 -44 92 -79 57 -7 -7 -12 -24 -12 -38 0 -18 -20 -45 -74 -99
l-73 -73 -174 1 -174 2 -100 99 -100 100 -403 0 c-327 0 -402 2 -402 13 0 8
-10 23 -23 35 -32 30 -81 29 -112 -3z m83 -24 c8 -5 12 -21 10 -37 -2 -24 -8
-29 -35 -32 -28 -3 -33 1 -39 23 -10 42 27 70 64 46z m1627 -45 c0 -10 -8 -24
-18 -30 -24 -15 -53 19 -35 41 16 20 53 12 53 -11z"/>
<path d="M1055 6005 c-14 -13 -25 -29 -25 -35 0 -7 -80 -10 -242 -10 l-243 0
-102 -102 -103 -103 0 -121 c0 -108 -2 -123 -20 -139 -36 -33 -20 -85 26 -85
25 0 54 24 54 46 0 8 -9 23 -20 34 -18 18 -20 33 -20 138 l0 117 98 98 97 97
232 0 232 0 15 -29 c16 -31 65 -54 94 -44 9 3 27 15 40 26 49 45 11 137 -58
137 -19 0 -40 -9 -55 -25z m83 -27 c34 -34 -6 -90 -48 -68 -35 19 -20 80 20
80 9 0 21 -5 28 -12z m-764 -511 c9 -14 7 -21 -7 -32 -25 -18 -47 -9 -47 19 0
40 32 48 54 13z"/>
<path d="M8835 6005 c-45 -44 -26 -116 37 -138 29 -10 78 13 94 44 l15 29 232
0 232 0 98 -98 97 -97 0 -118 c0 -104 -2 -119 -20 -137 -11 -11 -20 -26 -20
-34 0 -22 29 -46 54 -46 46 0 62 52 26 85 -18 16 -20 31 -20 139 l0 121 -103
103 -102 102 -243 0 c-162 0 -242 3 -242 10 0 23 -50 60 -80 60 -19 0 -40 -9
-55 -25z m83 -27 c34 -34 -6 -90 -48 -68 -35 19 -20 80 20 80 9 0 21 -5 28
-12z m760 -517 c4 -29 -15 -43 -40 -30 -21 11 -23 30 -6 47 19 19 43 10 46
-17z"/>
<path d="M0 5606 c0 -3 6 -15 12 -26 10 -16 10 -24 0 -41 -16 -25 -8 -37 13
-19 21 17 19 53 -5 75 -11 10 -20 15 -20 11z"/>
<path d="M9977 5592 c-21 -23 -22 -56 -2 -72 21 -18 29 -6 13 19 -11 17 -11
25 0 42 17 27 10 34 -11 11z"/>
<path d="M147 4842 c-23 -25 -21 -59 3 -74 19 -12 20 -24 20 -413 l0 -401 40
-39 40 -39 0 -574 0 -574 -25 -20 c-31 -24 -34 -77 -7 -101 41 -37 112 -6 112
49 0 16 -12 37 -30 54 l-30 28 0 574 0 574 -40 39 -40 39 0 396 c0 383 1 396
20 413 11 9 20 24 20 32 0 19 -35 55 -53 55 -8 0 -21 -8 -30 -18z m53 -17 c17
-20 5 -45 -20 -45 -23 0 -35 22 -26 45 7 19 30 19 46 0z m94 -2157 c15 -24
-13 -53 -43 -43 -21 6 -29 43 -14 59 12 12 45 2 57 -16z"/>
<path d="M9790 4840 c-11 -11 -20 -27 -20 -35 0 -8 9 -23 20 -32 19 -17 20
-30 20 -413 l0 -396 -40 -39 -40 -39 0 -574 0 -574 -30 -28 c-35 -33 -39 -71
-10 -100 25 -25 72 -26 93 -2 26 28 22 77 -8 100 l-25 20 0 574 0 574 40 39
40 39 0 401 c0 389 1 401 20 413 25 15 26 54 2 75 -24 22 -38 21 -62 -3z m55
-30 c0 -18 -6 -26 -23 -28 -27 -4 -40 22 -22 44 19 22 45 13 45 -16z m-77
-2152 c2 -19 -2 -28 -18 -33 -37 -12 -64 27 -38 53 21 21 53 10 56 -20z"/>
<path d="M312 4588 c-18 -18 -14 -53 8 -73 18 -16 20 -31 20 -139 l0 -121 102
-102 103 -103 242 0 c204 0 243 -2 243 -14 0 -22 49 -56 82 -56 67 0 104 93
56 137 -13 11 -31 23 -40 26 -29 10 -78 -13 -94 -44 l-15 -29 -232 0 -232 0
-98 98 -97 97 0 118 c0 104 2 119 20 137 24 24 25 43 4 64 -18 19 -55 21 -72
4z m68 -31 c0 -17 -20 -37 -37 -37 -7 0 -17 9 -23 19 -14 28 13 55 41 41 10
-6 19 -16 19 -23z m754 -460 c38 -27 -2 -95 -41 -71 -25 16 -29 55 -7 71 10 7
21 13 24 13 3 0 14 -6 24 -13z"/>
<path d="M9616 4584 c-21 -21 -20 -40 4 -64 18 -18 20 -33 20 -138 l0 -117
-98 -98 -97 -97 -232 0 -232 0 -15 29 c-16 31 -65 54 -94 44 -9 -3 -27 -15
-39 -26 -49 -44 -12 -137 55 -137 33 0 82 34 82 56 0 12 39 14 243 14 l242 0
103 103 102 102 0 121 c0 108 2 123 20 139 22 20 26 55 8 73 -17 17 -54 15
-72 -4z m68 -19 c7 -20 -18 -49 -38 -42 -25 10 -32 38 -12 53 20 14 42 9 50
-11z m-770 -468 c22 -16 18 -55 -6 -71 -40 -24 -80 44 -42 71 10 7 21 13 24
13 3 0 14 -6 24 -13z"/>
<path d="M0 4495 c0 -3 6 -14 12 -25 10 -16 10 -24 0 -40 -18 -29 -15 -36 8
-15 22 20 26 55 8 73 -12 12 -28 16 -28 7z"/>
<path d="M9972 4488 c-18 -18 -14 -53 8 -73 23 -21 26 -14 8 15 -10 16 -10 24
0 40 6 11 12 22 12 25 0 9 -16 5 -28 -7z"/>
<path d="M0 3949 c0 -8 29 -44 65 -79 l65 -64 0 -943 c0 -574 -4 -943 -9 -943
-19 0 -41 -32 -41 -60 0 -36 43 -73 74 -64 62 19 76 79 26 116 l-30 22 0 941
0 941 -75 74 c-41 41 -75 68 -75 59z m178 -2092 c-2 -17 -10 -22 -33 -22 -35
0 -47 31 -20 51 25 18 57 0 53 -29z"/>
<path d="M9922 3887 l-72 -72 0 -941 0 -940 -30 -22 c-50 -37 -36 -97 26 -116
31 -9 74 28 74 64 0 28 -22 60 -41 60 -5 0 -9 369 -9 942 l0 942 66 67 c37 37
65 72 63 78 -2 6 -37 -21 -77 -62z m-34 -2030 c-2 -17 -10 -22 -33 -22 -35 0
-47 31 -20 51 25 18 57 0 53 -29z"/>
<path d="M507 3782 l-137 -137 0 -722 c0 -719 0 -722 -21 -733 -27 -15 -39
-49 -27 -80 12 -31 25 -40 65 -40 64 0 83 80 28 116 l-25 16 0 717 0 716 132
132 133 133 210 0 210 0 88 -88 c71 -71 87 -93 87 -118 0 -35 16 -54 45 -54
29 0 45 19 45 51 0 32 -23 53 -49 46 -14 -3 -44 20 -112 89 l-94 94 -220 0
-220 0 -138 -138z m813 -77 c10 -12 10 -18 0 -30 -7 -8 -18 -15 -25 -15 -7 0
-18 7 -25 15 -10 12 -10 18 0 30 7 8 18 15 25 15 7 0 18 -7 25 -15z m-915
-1551 c18 -18 16 -33 -7 -47 -35 -22 -66 21 -36 51 16 16 23 15 43 -4z"/>
<path d="M8821 3826 c-68 -69 -98 -92 -112 -89 -26 7 -49 -14 -49 -46 0 -32
16 -51 45 -51 29 0 45 19 45 54 0 25 16 47 87 118 l88 88 210 0 210 0 133
-133 132 -132 0 -716 0 -717 -25 -16 c-55 -36 -36 -116 28 -116 40 0 53 9 65
40 12 31 0 65 -27 80 -21 11 -21 14 -21 733 l0 722 -138 138 -137 137 -220 0
-220 0 -94 -94z m-91 -121 c10 -12 10 -18 0 -30 -7 -8 -18 -15 -25 -15 -7 0
-18 7 -25 15 -10 12 -10 18 0 30 7 8 18 15 25 15 7 0 18 -7 25 -15z m908
-1547 c30 -30 -1 -73 -36 -51 -23 14 -25 29 -7 47 20 19 27 20 43 4z"/>
<path d="M580 3705 c-40 -40 -77 -72 -82 -69 -14 9 -48 -7 -59 -27 -23 -43 44
-92 79 -57 7 7 12 24 12 38 0 18 20 45 74 99 l73 73 174 -1 174 -2 100 -99
100 -100 403 0 c327 0 402 -2 402 -13 0 -25 45 -57 79 -57 70 0 109 91 58 138
-31 30 -89 30 -117 0 -11 -12 -20 -28 -20 -35 0 -10 -76 -13 -398 -13 l-397 0
-100 100 -100 100 -190 0 -191 0 -74 -75z m-75 -115 c0 -18 -6 -26 -23 -28
-27 -4 -40 22 -22 44 19 22 45 13 45 -16z m1633 8 c30 -30 0 -75 -43 -64 -19
5 -25 13 -25 35 0 15 3 31 7 34 11 11 48 8 61 -5z"/>
<path d="M8865 3680 l-100 -100 -397 0 c-322 0 -398 3 -398 13 0 7 -9 23 -20
35 -29 31 -89 30 -118 -1 -48 -51 -10 -137 61 -137 34 0 77 33 77 58 0 9 99
12 402 12 l403 0 100 100 100 99 174 2 174 1 73 -73 c54 -54 74 -81 74 -99 0
-14 5 -31 12 -38 35 -35 102 14 79 57 -11 20 -45 36 -59 27 -5 -3 -42 29 -82
69 l-74 75 -191 0 -190 0 -100 -100z m675 -75 c17 -20 5 -45 -20 -45 -23 0
-35 22 -26 45 7 19 30 19 46 0z m-1612 -32 c3 -28 -1 -33 -23 -39 -29 -7 -55
10 -55 35 0 25 22 42 50 39 20 -2 26 -9 28 -35z"/>
<path d="M4 3737 c9 -37 9 -927 0 -962 -5 -19 -3 -26 7 -25 26 4 37 0 43 -15
7 -19 -20 -46 -39 -39 -9 4 -15 0 -15 -10 0 -21 43 -21 64 0 22 21 20 53 -4
79 -19 20 -20 36 -20 492 -1 466 -1 471 -22 489 -21 19 -21 19 -14 -9z"/>
<path d="M9977 3742 c-14 -16 -16 -69 -17 -487 0 -454 -1 -470 -20 -490 -24
-26 -26 -58 -4 -79 20 -21 64 -21 64 -1 0 9 -6 15 -12 14 -25 -3 -36 1 -42 16
-7 19 21 46 41 38 13 -5 15 -2 9 21 -9 35 -9 925 0 960 7 31 3 32 -19 8z"/>
<path d="M756 3674 c-19 -18 -21 -55 -4 -72 18 -18 53 -14 73 8 15 16 31 20
89 20 l71 0 145 -145 144 -144 141 -3 c136 -3 140 -4 141 -25 2 -40 13 -53 43
-53 42 0 59 32 36 67 -13 19 -22 23 -40 19 -13 -3 -27 -2 -30 4 -4 6 -62 10
-143 10 l-137 0 -145 145 -145 145 -80 0 c-69 0 -82 3 -93 20 -15 24 -45 26
-66 4z m54 -19 c17 -20 5 -45 -20 -45 -23 0 -35 22 -26 45 7 19 30 19 46 0z
m817 -341 c3 -8 -2 -23 -11 -32 -15 -15 -17 -15 -32 0 -21 21 -11 48 16 48 11
0 23 -7 27 -16z"/>
<path d="M9178 3670 c-11 -17 -24 -20 -93 -20 l-80 0 -145 -145 -145 -145
-137 0 c-81 0 -139 -4 -143 -10 -3 -6 -17 -7 -30 -4 -18 4 -27 0 -40 -19 -23
-35 -6 -67 36 -67 30 0 41 13 43 53 1 21 5 22 141 25 l141 3 144 144 145 145
71 0 c58 0 74 -4 89 -20 33 -36 85 -20 85 26 0 48 -59 72 -82 34z m57 -30 c0
-18 -6 -26 -23 -28 -27 -4 -40 22 -22 44 19 22 45 13 45 -16z m-808 -326 c3
-8 -2 -23 -11 -32 -15 -15 -17 -15 -32 0 -21 21 -11 48 16 48 11 0 23 -7 27
-16z"/>
<path d="M601 3536 c-7 -8 -11 -27 -9 -43 3 -24 8 -28 41 -31 26 -2 39 1 43
12 5 13 28 16 143 16 l136 0 173 -173 172 -172 0 -120 0 -120 120 -120 120
-120 0 -160 0 -161 63 -62 63 -62 107 0 c95 0 111 -3 137 -21 28 -21 30 -21
54 -5 28 18 32 36 16 67 -15 26 -66 26 -80 -1 -10 -18 -21 -20 -118 -20 l-108
0 -57 58 -57 58 0 159 0 160 -120 120 -120 120 0 120 0 120 -177 177 -178 178
-136 0 c-123 0 -138 2 -154 20 -21 23 -57 26 -74 6z m64 -24 c9 -23 -21 -49
-42 -36 -24 15 -26 29 -8 47 18 18 40 13 50 -11z m1303 -1279 c3 -22 -28 -40
-48 -28 -12 7 -13 38 -3 49 15 14 48 1 51 -21z"/>
<path d="M9325 3530 c-16 -18 -31 -20 -154 -20 l-136 0 -178 -178 -177 -177 0
-120 0 -120 -120 -120 -120 -120 0 -160 0 -161 -58 -57 -58 -57 -106 0 c-97 0
-108 2 -118 20 -14 27 -65 27 -80 1 -16 -31 -12 -49 16 -67 24 -16 26 -16 54
5 26 18 42 21 137 21 l109 0 62 63 62 63 0 159 0 160 120 120 120 120 0 120 0
120 173 173 172 172 137 0 c114 0 137 -3 142 -16 4 -11 17 -14 43 -12 33 3 38
7 41 31 6 54 -46 77 -83 37z m70 -18 c9 -23 -21 -49 -42 -36 -24 15 -26 29 -8
47 18 18 40 13 50 -11z m-1307 -1276 c5 -25 -12 -39 -37 -31 -20 6 -28 34 -14
49 13 13 48 1 51 -18z"/>
<path d="M486 3404 c-19 -18 -21 -55 -4 -72 18 -18 53 -14 73 8 13 15 31 20
65 20 40 0 51 -5 83 -38 l37 -38 0 -97 c0 -84 -3 -102 -21 -127 -21 -28 -21
-30 -5 -54 18 -28 54 -34 74 -14 19 19 15 66 -8 78 -18 10 -20 21 -20 118 l0
108 -43 42 c-39 38 -47 42 -95 42 -39 0 -57 5 -72 20 -24 24 -43 25 -64 4z
m54 -19 c16 -19 6 -45 -18 -45 -28 0 -43 20 -31 42 12 22 32 23 49 3z m240
-340 c15 -18 -2 -45 -30 -45 -23 0 -34 28 -19 46 15 18 33 18 49 -1z"/>
<path d="M9450 3400 c-15 -15 -33 -20 -72 -20 -48 0 -56 -4 -95 -42 l-43 -42
0 -108 c0 -97 -2 -108 -20 -118 -23 -12 -27 -59 -8 -78 20 -20 56 -14 74 14
16 24 16 26 -5 54 -18 25 -21 43 -21 128 l0 98 38 37 c32 32 44 37 83 37 33 0
51 -6 64 -20 33 -36 85 -20 85 26 0 25 -24 54 -46 54 -8 0 -23 -9 -34 -20z
m59 -18 c12 -22 -3 -42 -31 -42 -24 0 -34 26 -18 45 17 20 37 19 49 -3z m-240
-336 c15 -18 4 -46 -19 -46 -28 0 -45 27 -30 45 16 19 34 19 49 1z"/>
<path d="M1367 3303 c-12 -12 -7 -50 8 -63 12 -10 15 -36 15 -114 l0 -101 115
-115 c63 -64 117 -126 120 -139 9 -46 46 -66 73 -39 29 29 4 83 -37 76 -15 -2
-52 29 -136 112 l-115 115 0 102 c0 57 4 103 9 103 16 0 23 40 11 55 -13 15
-51 20 -63 8z m51 -26 c4 -20 -25 -34 -40 -19 -15 15 -1 44 19 40 10 -2 19
-11 21 -21z m276 -496 c10 -16 -5 -41 -24 -41 -23 0 -34 16 -26 35 6 16 42 20
50 6z"/>
<path d="M8571 3296 c-13 -16 -6 -56 10 -56 5 0 9 -46 9 -103 l0 -102 -115
-115 c-84 -83 -121 -114 -136 -112 -41 7 -66 -47 -37 -76 27 -27 64 -7 73 39
3 13 57 75 120 139 l115 115 0 101 c0 80 3 104 16 114 8 8 14 25 12 39 -2 20
-9 27 -29 29 -14 2 -31 -4 -38 -12z m57 -19 c4 -20 -25 -34 -40 -19 -15 15 -1
44 19 40 10 -2 19 -11 21 -21z m-273 -512 c0 -25 -40 -33 -49 -10 -9 24 2 37
27 33 14 -2 22 -10 22 -23z"/>
<path d="M976 3285 c-22 -23 -20 -62 4 -75 17 -9 20 -21 20 -83 l0 -72 -85
-85 -85 -85 0 -237 c0 -152 -4 -238 -10 -238 -21 0 -50 -41 -50 -70 0 -63 75
-93 118 -47 31 33 28 70 -8 100 l-30 26 0 228 0 228 85 85 85 85 0 74 c0 63 3
78 22 98 21 22 21 26 7 51 -17 32 -50 39 -73 17z m59 -35 c0 -18 -6 -26 -23
-28 -24 -4 -38 18 -28 44 3 9 15 14 28 12 17 -2 23 -10 23 -28z m-171 -886 c9
-8 16 -19 16 -24 0 -13 -30 -40 -44 -40 -31 0 -47 45 -24 68 16 16 33 15 52
-4z"/>
<path d="M8956 3278 c-21 -29 -20 -41 4 -63 17 -15 20 -31 20 -94 l0 -76 85
-85 85 -85 0 -228 0 -228 -30 -26 c-37 -31 -40 -70 -7 -101 46 -44 117 -14
117 48 0 29 -29 70 -50 70 -6 0 -10 86 -10 238 l0 237 -85 85 -85 85 0 72 c0
62 3 74 20 83 39 21 15 90 -30 90 -10 0 -26 -10 -34 -22z m59 -28 c0 -18 -6
-26 -23 -28 -13 -2 -25 3 -28 12 -10 26 4 48 28 44 17 -2 23 -10 23 -28z m179
-892 c13 -21 -2 -51 -26 -56 -16 -3 -48 23 -48 38 0 15 32 41 48 38 8 -2 20
-11 26 -20z"/>
<path d="M520 3267 c-13 -7 -31 -24 -39 -38 -19 -33 -2 -81 35 -97 23 -11 24
-16 24 -105 l0 -93 70 -69 70 -69 0 -271 0 -271 58 -57 58 -57 185 0 185 0 74
75 c61 61 80 75 105 75 36 0 55 16 55 45 0 29 -19 45 -51 45 -32 0 -52 -21
-47 -49 2 -14 -19 -43 -72 -96 l-74 -75 -176 0 -176 0 -52 53 -52 53 0 273 0
273 -70 72 -70 73 0 80 c0 76 1 80 25 91 24 11 45 47 45 77 0 19 -41 62 -65
69 -11 3 -31 0 -45 -7z m60 -42 c26 -32 -13 -81 -47 -59 -35 22 -23 74 17 74
10 0 23 -7 30 -15z m794 -878 c16 -25 -16 -56 -38 -37 -19 15 -20 32 -4 48 15
15 28 11 42 -11z"/>
<path d="M9423 3270 c-60 -24 -67 -107 -12 -139 28 -16 29 -18 29 -95 l0 -79
-70 -73 -70 -72 0 -274 0 -274 -53 -52 -53 -52 -175 0 -175 0 -74 75 c-53 53
-74 82 -72 96 5 28 -15 49 -47 49 -32 0 -51 -16 -51 -45 0 -29 19 -45 55 -45
25 0 44 -14 105 -75 l74 -75 185 0 185 0 58 57 58 57 0 271 0 271 70 69 70 69
0 93 c0 89 1 94 24 104 24 11 46 47 46 74 0 19 -41 62 -65 68 -11 3 -30 2 -42
-3z m57 -45 c26 -32 -13 -81 -47 -59 -35 22 -23 74 17 74 10 0 23 -7 30 -15z
m-806 -878 c16 -25 -16 -56 -38 -37 -19 15 -20 32 -4 48 15 15 28 11 42 -11z"/>
<path d="M1147 3132 c-23 -25 -21 -59 3 -74 18 -12 20 -24 20 -128 l0 -115
100 -100 c67 -67 99 -106 97 -117 -7 -24 21 -58 47 -58 30 0 46 18 46 52 0 30
-31 54 -58 43 -11 -4 -45 23 -114 92 l-98 98 0 112 c0 84 3 114 14 120 25 15
29 50 7 72 -26 26 -43 26 -64 3z m57 -25 c9 -14 7 -21 -7 -32 -25 -18 -47 -9
-47 19 0 40 32 48 54 13z m236 -502 c15 -18 -2 -45 -30 -45 -23 0 -34 28 -19
46 15 18 33 18 49 -1z"/>
<path d="M8789 3129 c-22 -22 -18 -57 7 -72 11 -6 14 -36 14 -120 l0 -112 -98
-98 c-69 -69 -103 -96 -114 -92 -27 11 -58 -13 -58 -43 0 -34 16 -52 46 -52
26 0 54 34 47 58 -2 11 30 50 97 117 l100 100 0 115 c0 104 2 116 20 128 25
15 26 54 2 75 -24 22 -38 21 -63 -4z m59 -28 c4 -29 -15 -43 -40 -30 -21 11
-23 30 -6 47 19 19 43 10 46 -17z m-239 -495 c15 -18 4 -46 -19 -46 -28 0 -45
27 -30 45 16 19 34 19 49 1z"/>
<path d="M1020 2800 c-27 -27 -25 -64 5 -88 24 -19 25 -24 25 -128 l-1 -109
-32 -20 c-59 -37 -45 -135 22 -150 33 -7 85 15 95 40 18 47 4 91 -35 111 l-29
15 0 109 c0 103 1 110 25 134 31 31 32 59 3 86 -28 25 -52 26 -78 0z m60 -25
c17 -20 5 -45 -20 -45 -23 0 -35 22 -26 45 7 19 30 19 46 0z m8 -357 c35 -35
-15 -99 -53 -68 -30 25 -12 80 25 80 9 0 21 -5 28 -12z"/>
<path d="M8902 2800 c-29 -27 -28 -55 3 -86 24 -24 25 -31 25 -134 l0 -109
-29 -15 c-31 -16 -41 -34 -41 -71 0 -37 10 -55 42 -71 63 -32 122 10 116 83
-2 30 -10 42 -35 58 l-32 20 -1 109 c0 104 1 109 25 128 30 24 32 61 5 88 -26
26 -50 25 -78 0z m63 -40 c0 -18 -6 -26 -23 -28 -27 -4 -40 22 -22 44 19 22
45 13 45 -16z m3 -342 c17 -17 15 -53 -3 -68 -12 -10 -21 -10 -40 -2 -40 19
-29 82 15 82 9 0 21 -5 28 -12z"/>
<path d="M504 2700 c-30 -12 -54 -49 -54 -83 0 -27 38 -77 60 -77 6 0 10 -67
10 -198 l0 -198 73 -72 72 -72 301 0 300 0 69 70 c42 43 75 68 84 65 39 -15
79 53 49 83 -31 31 -95 -1 -84 -42 4 -16 -10 -36 -62 -88 l-66 -68 -291 0
-291 0 -67 68 -67 68 0 189 0 190 30 17 c70 40 58 134 -20 151 -14 3 -35 1
-46 -3z m56 -48 c28 -23 20 -59 -16 -68 -46 -12 -72 37 -38 70 20 20 27 20 54
-2z m898 -466 c5 -25 -12 -39 -37 -31 -20 6 -28 34 -14 49 13 13 48 1 51 -18z"/>
<path d="M9445 2703 c-73 -18 -82 -113 -15 -151 l30 -17 0 -190 0 -191 -68
-67 -68 -67 -290 0 -290 0 -66 68 c-52 52 -66 72 -62 88 11 41 -53 73 -84 42
-30 -30 10 -98 49 -83 9 3 42 -22 84 -65 l69 -70 300 0 301 0 72 72 73 72 0
198 c0 131 4 198 10 198 6 0 22 11 35 25 58 57 0 157 -80 138z m49 -49 c34
-33 8 -82 -38 -70 -36 9 -44 45 -16 68 27 22 34 22 54 2z m-896 -471 c3 -22
-28 -40 -48 -28 -12 7 -13 38 -3 49 15 14 48 1 51 -21z"/>
<path d="M1833 2652 c-27 -4 -63 -47 -63 -74 0 -27 26 -74 45 -82 27 -10 70
-7 83 6 10 10 27 -3 82 -57 76 -75 87 -107 50 -140 -36 -33 -20 -85 26 -85 25
0 54 24 54 46 0 8 -9 23 -20 34 -12 12 -20 33 -20 52 0 27 -12 45 -67 101 -63
63 -68 71 -68 112 -1 65 -37 97 -102 87z m63 -67 c9 -22 -15 -55 -39 -55 -47
0 -63 48 -25 74 23 16 54 7 64 -19z m188 -308 c9 -15 7 -21 -8 -32 -22 -17
-46 -4 -46 25 0 35 34 39 54 7z"/>
<path d="M8124 2652 c-36 -5 -58 -39 -59 -87 0 -41 -5 -49 -67 -112 -56 -56
-68 -74 -68 -101 0 -19 -8 -40 -20 -52 -11 -11 -20 -26 -20 -34 0 -22 29 -46
54 -46 46 0 62 52 26 85 -37 33 -26 65 50 140 55 54 72 67 82 57 13 -13 56
-16 83 -6 19 8 45 55 45 82 0 46 -53 82 -106 74z m64 -76 c10 -47 -60 -64 -80
-20 -11 23 -10 29 11 45 21 17 26 18 45 6 12 -8 22 -22 24 -31z m-220 -299 c6
-28 -16 -49 -39 -36 -22 11 -24 30 -7 47 17 17 42 11 46 -11z"/>
<path d="M10 2446 c-10 -13 -9 -20 4 -41 23 -35 24 -356 1 -375 -8 -7 -15 -19
-15 -28 0 -12 6 -10 25 8 25 23 25 25 25 201 0 151 2 178 16 183 10 4 14 15
12 33 -2 22 -9 29 -29 31 -14 2 -31 -4 -39 -12z m58 -19 c4 -20 -25 -34 -40
-19 -15 15 -1 44 19 40 10 -2 19 -11 21 -21z"/>
<path d="M214 2435 c-20 -30 -12 -70 16 -85 19 -10 20 -21 20 -183 l0 -173 63
-62 63 -62 504 0 505 0 83 83 c69 69 88 83 108 79 32 -6 54 14 54 49 0 21 -7
32 -24 40 -34 16 -66 -4 -66 -39 0 -21 -19 -47 -83 -110 l-82 -82 -495 0 -494
0 -58 57 -58 57 0 167 0 167 25 16 c29 19 34 66 9 90 -24 25 -71 20 -90 -9z
m74 -34 c-4 -31 -35 -36 -52 -8 -9 14 -7 21 7 32 27 19 49 8 45 -24z m1321
-305 c16 -20 3 -46 -24 -46 -13 0 -26 7 -29 16 -7 19 10 44 29 44 7 0 18 -6
24 -14z"/>
<path d="M9696 2444 c-25 -24 -20 -71 9 -90 l25 -16 0 -167 0 -167 -58 -57
-58 -57 -495 0 -494 0 -83 83 c-63 63 -82 89 -82 110 0 19 -7 31 -24 38 -34
16 -66 -3 -66 -40 0 -35 22 -55 54 -49 20 4 39 -10 108 -79 l83 -83 505 0 506
0 62 63 62 63 0 171 c0 162 1 173 20 183 49 26 27 110 -30 110 -15 0 -36 -7
-44 -16z m74 -38 c0 -20 -27 -39 -45 -32 -18 7 -20 52 -2 59 17 6 47 -11 47
-27z m-1331 -310 c16 -20 3 -46 -24 -46 -13 0 -26 7 -29 16 -7 19 10 44 29 44
7 0 18 -6 24 -14z"/>
<path d="M9927 2453 c-13 -12 -7 -54 8 -59 13 -5 15 -35 15 -183 0 -176 0
-178 25 -201 19 -18 25 -20 25 -8 0 9 -7 21 -15 28 -23 19 -22 340 1 375 13
20 14 28 4 40 -13 15 -51 20 -63 8z m51 -26 c4 -20 -25 -34 -40 -19 -15 15 -1
44 19 40 10 -2 19 -11 21 -21z"/>
<path d="M1692 2134 c-27 -19 -28 -48 -2 -74 18 -18 20 -33 20 -173 l0 -152
-93 -93 -92 -92 -537 0 -537 0 -15 29 c-9 16 -23 31 -31 35 -87 33 -160 -57
-104 -128 35 -44 119 -32 139 20 l10 24 542 0 543 0 98 98 97 97 0 160 c0 148
2 162 20 178 26 22 25 52 -2 71 -12 9 -25 16 -28 16 -3 0 -16 -7 -28 -16z m53
-34 c0 -18 -6 -26 -23 -28 -24 -4 -38 18 -28 44 3 9 15 14 28 12 17 -2 23 -10
23 -28z m-1343 -545 c8 -19 8 -28 -2 -40 -25 -30 -80 -12 -80 25 0 44 63 55
82 15z"/>
<path d="M2026 2134 c-22 -22 -20 -61 4 -76 19 -12 20 -24 20 -168 l0 -155
103 -103 102 -102 560 0 560 -1 20 -32 c37 -59 135 -45 150 22 18 81 -82 135
-140 76 -14 -13 -25 -29 -25 -35 0 -7 -176 -10 -558 -10 l-557 0 -98 98 -97
97 0 150 c0 138 2 152 20 168 11 9 20 24 20 32 0 19 -35 55 -54 55 -8 0 -22
-7 -30 -16z m54 -19 c17 -20 5 -45 -20 -45 -23 0 -35 22 -26 45 7 19 30 19 46
0z m1422 -561 c11 -23 10 -29 -11 -45 -21 -17 -26 -18 -45 -6 -41 27 -27 77
20 77 17 0 28 -9 36 -26z"/>
<path d="M7910 2130 c-11 -11 -20 -27 -20 -35 0 -8 9 -23 20 -32 18 -16 20
-30 20 -168 l0 -150 -98 -98 -97 -97 -558 0 c-381 0 -557 3 -557 10 0 6 -11
22 -25 35 -58 59 -158 5 -140 -76 9 -39 44 -61 92 -57 30 2 42 10 58 35 l20
32 560 1 560 0 102 102 103 103 0 155 c0 144 1 156 20 168 24 15 26 54 4 76
-21 21 -40 20 -64 -4z m55 -30 c0 -18 -6 -26 -23 -28 -27 -4 -40 22 -22 44 19
22 45 13 45 -16z m-1395 -535 c16 -19 9 -45 -16 -62 -19 -12 -24 -11 -45 6
-21 16 -22 22 -11 45 13 29 52 36 72 11z"/>
<path d="M8252 2134 c-27 -19 -28 -49 -2 -71 18 -16 20 -30 20 -178 l0 -160
98 -98 97 -97 543 0 542 0 10 -24 c20 -52 104 -64 139 -20 56 71 -17 161 -104
128 -8 -4 -22 -19 -31 -35 l-15 -29 -537 0 -537 0 -93 93 -92 92 0 153 c0 139
2 154 20 172 26 26 25 55 -2 74 -12 9 -25 16 -28 16 -3 0 -16 -7 -28 -16z m53
-34 c0 -18 -6 -26 -23 -28 -13 -2 -25 3 -28 12 -10 26 4 48 28 44 17 -2 23
-10 23 -28z m1369 -542 c24 -39 -44 -79 -74 -43 -21 25 3 67 37 63 14 -2 31
-11 37 -20z"/>
<path d="M1856 2114 c-4 -9 0 -27 9 -40 12 -19 15 -65 15 -266 l0 -243 -117
-117 -118 -118 -119 0 -119 0 -38 35 -39 35 -298 0 -299 0 -23 25 c-32 34 -82
34 -115 0 -51 -50 -17 -135 53 -135 45 1 69 17 83 59 l11 31 289 0 289 0 39
-35 38 -35 129 0 129 0 123 123 122 122 0 258 c0 175 3 257 11 257 6 0 9 12 7
28 -2 21 -9 28 -29 30 -18 2 -29 -3 -33 -14z m51 -10 c3 -8 1 -20 -5 -26 -15
-15 -43 8 -35 28 7 19 32 18 40 -2z m-1217 -714 c8 -14 8 -26 0 -40 -19 -35
-80 -20 -80 20 0 40 61 55 80 20z"/>
<path d="M8087 2123 c-11 -10 -8 -53 3 -53 6 0 10 -93 10 -258 l0 -257 123
-123 122 -122 129 0 129 0 38 35 39 35 289 0 289 0 11 -31 c14 -42 38 -58 83
-59 70 0 104 85 53 135 -33 34 -83 34 -115 0 l-23 -25 -299 0 -298 0 -39 -35
-38 -35 -119 0 -119 0 -118 118 -117 117 0 243 c0 201 3 247 15 266 9 13 13
31 9 40 -6 16 -44 22 -57 9z m46 -17 c8 -20 -20 -43 -35 -28 -14 14 -3 42 16
42 7 0 16 -6 19 -14z m1251 -718 c15 -24 -3 -52 -37 -56 -33 -4 -53 28 -37 59
14 25 58 23 74 -3z"/>
<path d="M2131 1964 c-44 -56 -8 -134 61 -134 28 0 44 -11 98 -65 l64 -65 681
0 680 0 17 -30 c47 -82 168 -37 150 56 -6 32 -48 64 -84 64 -28 0 -78 -38 -78
-60 0 -7 -213 -10 -678 -10 l-678 0 -59 60 -59 60 18 31 c34 57 -4 119 -73
119 -31 0 -44 -6 -60 -26z m99 -34 c8 -14 8 -26 0 -40 -19 -35 -80 -20 -80 20
0 40 61 55 80 20z m1610 -199 c18 -35 -18 -79 -54 -65 -22 8 -31 51 -16 69 18
21 57 19 70 -4z"/>
<path d="M7750 1970 c-30 -30 -35 -64 -14 -99 l18 -31 -59 -60 -59 -60 -678 0
c-465 0 -678 3 -678 10 0 22 -50 60 -78 60 -36 0 -78 -32 -84 -64 -18 -93 103
-138 150 -56 l17 30 680 0 681 0 64 65 c54 54 70 65 98 65 69 0 105 78 61 134
-26 33 -88 37 -119 6z m94 -42 c15 -24 -3 -52 -37 -56 -33 -4 -53 28 -37 59
14 25 58 23 74 -3z m-1614 -193 c15 -18 6 -61 -16 -69 -19 -7 -50 8 -58 29
-16 42 45 75 74 40z"/>
<path d="M1359 1755 c-14 -14 -88 -16 -600 -16 l-586 0 -44 -45 c-25 -26 -49
-42 -58 -39 -22 8 -61 -23 -61 -48 0 -31 18 -47 52 -47 30 0 53 30 44 58 -4
12 7 30 33 56 l38 37 582 1 c520 0 584 -2 600 -16 44 -40 109 1 82 53 -14 25
-59 28 -82 6z m65 -18 c8 -12 7 -21 -5 -32 -21 -21 -49 -9 -49 20 0 36 34 44
54 12z m-1340 -120 c16 -25 -16 -56 -38 -37 -19 15 -21 46 -3 53 18 8 29 3 41
-16z"/>
<path d="M8559 1749 c-27 -52 38 -93 82 -53 16 14 80 16 600 16 l582 -1 38
-37 c26 -26 37 -44 33 -56 -9 -28 14 -58 44 -58 34 0 52 16 52 47 0 25 -39 56
-61 48 -9 -3 -33 13 -58 39 l-44 45 -585 0 c-512 0 -587 2 -602 16 -25 22 -67
19 -81 -6z m55 5 c21 -8 21 -50 0 -58 -32 -12 -57 27 -32 52 14 14 12 14 32 6z
m1340 -120 c20 -8 21 -38 1 -54 -29 -24 -60 21 -33 48 14 14 12 14 32 6z"/>
<path d="M1825 1320 l-140 -140 -403 0 c-382 0 -405 1 -428 19 -45 35 -101 -8
-75 -58 15 -28 66 -29 83 -1 12 19 24 20 423 20 l410 0 140 140 140 140 405 0
405 0 125 -125 125 -125 367 0 c249 0 368 -3 368 -10 0 -23 50 -60 80 -60 43
0 65 14 80 50 10 24 10 36 0 60 -15 36 -37 50 -80 50 -30 0 -80 -37 -80 -60 0
-7 -117 -10 -363 -10 l-362 0 -125 125 -125 125 -415 0 -415 0 -140 -140z
m2065 -100 c8 -14 8 -26 0 -40 -19 -35 -80 -20 -80 20 0 40 61 55 80 20z
m-3056 -26 c20 -8 21 -38 1 -54 -29 -24 -60 21 -33 48 14 14 12 14 32 6z"/>
<path d="M7080 1335 l-125 -125 -362 0 c-246 0 -363 3 -363 10 0 23 -50 60
-80 60 -43 0 -65 -14 -80 -50 -10 -24 -10 -36 0 -60 15 -36 37 -50 80 -50 30
0 80 37 80 60 0 7 119 10 368 10 l367 0 125 125 125 125 405 0 405 0 140 -140
140 -140 410 0 c399 0 411 -1 423 -20 18 -29 69 -27 83 4 23 50 -30 90 -75 55
-23 -18 -46 -19 -428 -19 l-403 0 -140 140 -140 140 -415 0 -415 0 -125 -125z
m-896 -117 c15 -24 -3 -52 -37 -56 -33 -4 -53 28 -37 59 14 25 58 23 74 -3z
m3020 -41 c16 -25 -16 -56 -38 -37 -19 15 -21 46 -3 53 18 8 29 3 41 -16z"/>
<path d="M26 1349 c-21 -16 -26 -29 -26 -64 0 -55 37 -90 86 -82 27 5 38 -1
75 -39 l43 -44 158 0 c130 0 160 -3 164 -15 13 -33 66 -28 85 7 25 47 -55 94
-83 48 -12 -19 -24 -20 -161 -20 l-148 0 -41 39 c-39 36 -41 41 -30 65 19 42
14 65 -17 97 -35 34 -68 37 -105 8z m78 -35 c9 -8 16 -22 16 -29 0 -18 -27
-45 -45 -45 -16 0 -45 27 -45 42 0 16 31 48 46 48 7 0 20 -7 28 -16z m492
-169 c7 -18 -13 -45 -33 -45 -17 0 -27 24 -19 45 7 20 45 19 52 0z"/>
<path d="M9869 1341 c-31 -32 -36 -55 -17 -97 11 -24 9 -29 -30 -65 l-41 -39
-148 0 c-137 0 -149 1 -161 20 -29 46 -108 -1 -83 -49 19 -35 72 -38 85 -5 4
11 36 14 164 14 l158 0 43 44 c37 38 48 44 75 39 49 -8 86 27 86 82 0 35 -5
48 -26 64 -37 29 -70 26 -105 -8z m83 -28 c10 -9 18 -22 18 -29 0 -17 -28 -44
-45 -44 -18 0 -45 27 -45 45 0 16 27 45 42 45 6 0 20 -7 30 -17z m-494 -181
c4 -28 -24 -40 -45 -19 -21 21 -9 49 19 45 15 -2 24 -11 26 -26z"/>
<path d="M2280 1240 l-28 -30 -144 0 -143 0 -95 -95 -95 -95 -625 0 -625 0
-103 -103 -102 -102 0 -320 0 -320 -87 -87 c-48 -49 -81 -88 -73 -88 9 0 52
37 98 83 l82 82 0 320 0 320 98 98 97 97 625 0 625 0 95 95 95 95 138 0 139 0
28 -30 c32 -34 58 -38 91 -12 46 38 16 122 -43 122 -11 0 -33 -13 -48 -30z
m74 -23 c11 -18 0 -47 -21 -54 -12 -4 -43 23 -43 37 0 14 31 41 43 37 6 -2 15
-11 21 -20z"/>
<path d="M2770 1250 c-11 -11 -20 -24 -20 -30 0 -6 -49 -10 -128 -10 l-127 0
-85 -85 -85 -85 -118 0 -118 0 -26 30 c-47 56 -126 30 -126 -42 0 -66 84 -92
125 -38 l22 30 126 0 125 0 85 85 85 85 122 0 c75 0 123 -4 123 -10 0 -21 41
-50 70 -50 38 0 70 32 70 70 0 38 -32 70 -70 70 -17 0 -39 -9 -50 -20z m80
-25 c26 -32 -13 -81 -47 -59 -35 22 -23 74 17 74 10 0 23 -7 30 -15z m-816
-171 c21 -20 20 -27 -5 -50 -15 -14 -24 -16 -37 -8 -22 14 -27 41 -12 59 16
19 35 19 54 -1z"/>
<path d="M7130 1250 c-43 -43 -11 -120 50 -120 29 0 70 29 70 50 0 6 48 10
123 10 l122 0 85 -85 85 -85 125 0 126 0 22 -30 c41 -54 125 -28 125 38 0 72
-79 98 -126 42 l-26 -30 -118 0 -118 0 -85 85 -85 85 -127 0 c-79 0 -128 4
-128 10 0 21 -41 50 -70 50 -17 0 -39 -9 -50 -20z m80 -25 c26 -32 -13 -81
-47 -59 -35 22 -23 74 17 74 10 0 23 -7 30 -15z m810 -170 c15 -18 10 -45 -12
-59 -13 -8 -22 -6 -37 8 -25 23 -26 30 -5 50 19 20 38 20 54 1z"/>
<path d="M7629 1252 c-46 -38 -16 -122 43 -122 11 0 33 14 48 30 l28 30 139 0
138 0 95 -95 95 -95 625 0 625 0 98 -98 97 -97 0 -320 0 -320 83 -83 c45 -45
89 -82 97 -82 8 0 -25 39 -73 88 l-87 87 0 320 0 320 -102 102 -103 103 -625
0 -625 0 -95 95 -95 95 -143 0 -144 0 -28 30 c-32 34 -58 38 -91 12z m65 -28
c9 -8 16 -19 16 -24 0 -10 -29 -40 -39 -40 -13 0 -31 24 -31 40 0 16 18 40 31
40 4 0 15 -7 23 -16z"/>
<path d="M2515 1115 c-14 -13 -25 -36 -25 -50 0 -34 42 -75 76 -75 16 0 36 11
53 29 l28 30 1069 1 c588 1 1075 1 1082 1 6 -1 12 -8 12 -16 0 -25 42 -55 77
-55 43 0 83 38 83 78 0 44 -35 82 -75 82 -47 0 -64 -8 -81 -41 l-15 -29 -1079
0 c-745 0 -1080 3 -1080 10 0 21 -49 60 -75 60 -14 0 -37 -11 -50 -25z m84
-34 c14 -26 -8 -54 -39 -49 -25 3 -36 27 -26 54 8 20 53 17 65 -5z m2325 -3
c15 -24 -3 -52 -37 -56 -33 -4 -53 28 -37 59 14 25 58 23 74 -3z"/>
<path d="M5051 1114 c-44 -56 -8 -134 62 -134 35 0 77 30 77 55 0 8 6 15 13
16 6 0 493 0 1081 -1 l1069 -1 28 -30 c17 -18 37 -29 53 -29 34 0 76 41 76 75
0 33 -42 75 -75 75 -26 0 -75 -39 -75 -60 0 -7 -335 -10 -1080 -10 l-1079 0
-15 29 c-17 33 -34 41 -81 41 -24 0 -39 -7 -54 -26z m99 -34 c8 -14 8 -26 0
-40 -19 -35 -80 -20 -80 20 0 40 61 55 80 20z m2315 -15 c0 -24 -5 -31 -24
-33 -32 -5 -54 23 -40 50 7 13 19 18 37 16 23 -2 27 -8 27 -33z"/>
<path d="M4463 985 c-16 -7 -34 -24 -41 -39 l-12 -26 -822 0 -823 0 -125 -125
-125 -125 -370 0 -370 0 -145 145 -145 145 -384 0 -384 0 -124 -122 -123 -122
0 -300 0 -300 -57 -58 c-33 -33 -51 -58 -42 -58 8 0 38 24 67 53 l52 53 0 299
0 299 118 118 118 118 375 0 374 0 145 -145 145 -145 380 0 380 0 125 125 125
125 822 0 c677 0 823 -2 823 -13 0 -25 45 -57 79 -57 68 0 104 78 61 132 -24
31 -59 39 -97 23z m75 -69 c9 -42 -58 -64 -78 -26 -12 22 0 55 22 63 18 6 52
-17 56 -37z"/>
<path d="M5483 992 c-30 -5 -63 -48 -63 -84 0 -67 92 -104 138 -55 12 13 22
29 22 35 0 9 195 12 823 12 l822 0 125 -125 125 -125 380 0 380 0 145 145 145
145 374 0 375 0 118 -118 118 -118 0 -300 0 -300 53 -52 c29 -29 59 -52 67
-52 8 0 -11 26 -43 58 l-57 58 0 300 0 300 -123 122 -124 122 -384 0 -384 0
-145 -145 -145 -145 -370 0 -370 0 -125 125 -125 125 -822 0 -822 0 -15 29
c-16 31 -56 49 -93 43z m58 -63 c14 -26 -5 -59 -34 -59 -47 0 -63 48 -26 74
25 17 45 12 60 -15z"/>
<path d="M0 982 c0 -4 6 -14 12 -20 10 -10 10 -17 0 -32 -15 -25 -15 -30 1
-30 7 0 41 -28 75 -63 l62 -63 0 -253 0 -253 -25 -20 c-47 -37 -22 -108 37
-108 31 0 58 29 58 63 0 25 -23 57 -41 57 -5 0 -9 108 -9 263 l0 263 -65 64
c-47 46 -65 72 -65 90 0 25 -16 50 -32 50 -4 0 -8 -4 -8 -8z m185 -782 c0 -18
-6 -26 -23 -28 -24 -4 -38 18 -28 44 3 9 15 14 28 12 17 -2 23 -10 23 -28z"/>
<path d="M9972 978 c-7 -7 -12 -24 -12 -38 0 -18 -18 -44 -65 -90 l-65 -64 0
-263 c0 -155 -4 -263 -9 -263 -19 0 -41 -32 -41 -59 0 -54 68 -82 103 -43 25
27 21 67 -8 90 l-25 20 0 254 0 254 63 62 c34 34 68 62 75 62 15 0 15 13 0 28
-10 10 -10 17 0 32 6 11 12 22 12 25 0 9 -16 5 -28 -7z m-107 -778 c0 -18 -6
-26 -23 -28 -13 -2 -25 3 -28 12 -10 26 4 48 28 44 17 -2 23 -10 23 -28z"/>
<path d="M1789 909 c-46 -46 7 -135 68 -113 16 5 32 19 38 32 l10 22 303 0
304 0 20 -25 c14 -18 29 -25 53 -25 66 0 86 79 30 116 -21 14 -30 14 -55 4
-16 -7 -32 -21 -35 -31 -6 -18 -21 -19 -307 -19 l-300 0 -28 30 c-33 36 -71
39 -101 9z m69 -21 c18 -18 14 -46 -7 -58 -37 -19 -70 38 -33 59 22 13 26 13
40 -1z m746 -4 c27 -26 12 -58 -25 -52 -27 3 -37 32 -19 53 16 19 25 19 44 -1z"/>
<path d="M7375 905 c-29 -28 -31 -51 -9 -83 22 -32 76 -30 102 3 l20 25 304 0
303 0 10 -22 c6 -13 22 -27 38 -32 61 -22 114 67 68 113 -30 30 -68 27 -101
-9 l-28 -30 -300 0 c-284 0 -301 1 -307 18 -5 18 -44 42 -66 42 -5 0 -21 -11
-34 -25z m68 -27 c15 -23 1 -48 -28 -48 -14 0 -25 2 -25 4 0 2 -3 11 -6 19 -6
16 23 50 39 44 6 -2 15 -10 20 -19z m738 12 c23 -13 24 -33 3 -54 -12 -12 -20
-13 -35 -6 -21 12 -25 40 -7 58 15 15 15 15 39 2z"/>
<path d="M1282 870 c-12 -5 -30 -23 -40 -40 l-17 -30 -165 0 -165 0 -118 -118
-117 -117 0 -220 0 -219 -62 -63 c-35 -35 -56 -63 -47 -63 8 0 40 26 72 58
l57 58 0 219 0 220 113 113 112 112 163 0 c106 0 162 -4 162 -10 0 -6 11 -22
25 -35 31 -32 75 -32 111 -1 70 59 1 171 -84 136z m63 -54 c19 -29 10 -54 -21
-62 -46 -12 -72 37 -38 70 22 22 41 20 59 -8z"/>
<path d="M8650 867 c-14 -7 -31 -25 -38 -39 -38 -81 70 -157 133 -93 14 13 25
29 25 35 0 6 56 10 163 10 l162 0 113 -113 112 -112 0 -220 0 -221 58 -57 c32
-31 64 -57 72 -57 8 0 -14 28 -48 63 l-62 63 0 219 0 220 -117 117 -118 118
-167 0 c-154 0 -167 1 -173 19 -14 45 -73 70 -115 48z m64 -43 c34 -33 8 -82
-38 -70 -31 8 -40 33 -21 62 18 28 37 30 59 8z"/>
<path d="M2303 620 c-12 -5 -27 -18 -33 -29 -11 -21 -15 -21 -638 -21 l-627 0
-108 -108 -107 -107 0 -145 0 -144 -32 -33 c-21 -22 -27 -33 -17 -33 8 0 29
15 47 33 l32 33 0 145 0 144 98 98 97 97 621 0 621 0 11 -25 c22 -47 101 -46
121 3 16 37 0 79 -34 92 -15 6 -27 10 -28 9 -1 0 -12 -4 -24 -9z m56 -49 c13
-24 -8 -55 -34 -50 -28 6 -42 34 -26 53 18 22 48 20 60 -3z"/>
<path d="M7642 620 c-31 -13 -46 -56 -31 -92 20 -49 99 -50 121 -3 l11 25 621
0 621 0 98 -98 97 -97 0 -146 0 -145 33 -32 c44 -43 71 -42 29 1 l-32 33 0
145 0 144 -108 108 -107 107 -625 0 -624 0 -21 24 c-24 29 -52 38 -83 26z m59
-46 c9 -11 10 -20 2 -32 -15 -24 -44 -27 -59 -7 -28 38 27 75 57 39z"/>
<path d="M0 221 c0 -141 4 -221 10 -221 14 0 14 427 0 435 -7 4 -10 -70 -10
-214z"/>
<path d="M9987 433 c-11 -11 -8 -433 3 -433 6 0 10 80 10 220 0 121 -1 220 -3
220 -2 0 -7 -3 -10 -7z"/>
</g>
</svg>
