<svg viewBox="0 0 640 640" xmlns="http://www.w3.org/2000/svg" xmlns:xlink="http://www.w3.org/1999/xlink" overflow="hidden"><style>
.MsftOfcThm_Background1_Fill_v2 {
 fill:#FFFFFF; 
}
</style>
<path d="M512 96 127.9 96C110.3 96 96 110.5 96 128.3L96 511.7C96 529.5 110.3 544 127.9 544L512 544C529.6 544 544 529.5 544 511.7L544 128.3C544 110.5 529.6 96 512 96ZM231.4 480 165 480 165 266.2 231.5 266.2 231.5 480 231.4 480ZM198.2 160C219.5 160 236.7 177.2 236.7 198.5 236.7 219.8 219.5 237 198.2 237 176.9 237 159.7 219.8 159.7 198.5 159.7 177.2 176.9 160 198.2 160ZM480.3 480 413.9 480 413.9 376C413.9 351.2 413.4 319.3 379.4 319.3 344.8 319.3 339.5 346.3 339.5 374.2L339.5 480 273.1 480 273.1 266.2 336.8 266.2 336.8 295.4 337.7 295.4C346.6 278.6 368.3 260.9 400.6 260.9 467.8 260.9 480.3 305.2 480.3 362.8L480.3 480Z" class="MsftOfcThm_Background1_Fill_v2" fill="#FFFFFF"/></svg>