<svg width="1333.33" height="1333.33" viewBox="0 0 1000 1000" xmlns="http://www.w3.org/2000/svg" xmlns:xlink="http://www.w3.org/1999/xlink" overflow="hidden"><g transform="matrix(0.1 0 0 -0.1 0 1000)"><path d="M0 9784C0 9643 3 9571 10 9575 24 9583 24 10000 10 10000 4 10000 0 9921 0 9784Z"/><path d="M238 9917 320 9835 320 9515 320 9195 423 9092 525 8990 1150 8990 1775 8990 1870 8895 1965 8800 2108 8800 2252 8800 2280 8770C2314 8734 2343 8732 2375 8765 2407 8796 2407 8824 2375 8855 2343 8888 2314 8886 2280 8850L2252 8820 2113 8820 1975 8820 1880 8915 1785 9010 1160 9010 535 9010 437 9108 340 9205 340 9525 340 9845 262 9923C220 9965 178 10000 170 10000 162 10000 192 9963 238 9917ZM2354 8827C2365 8809 2354 8780 2333 8773 2321 8769 2290 8796 2290 8810 2290 8824 2321 8851 2333 8847 2339 8845 2348 8836 2354 8827Z"/><path d="M418 9947 470 9894 470 9594 470 9294 593 9172 717 9050 1101 9050 1485 9050 1630 9195 1775 9340 2145 9340 2515 9340 2640 9215 2765 9090 3587 9090 4409 9090 4425 9060C4451 9010 4519 9003 4558 9046 4605 9099 4568 9180 4497 9180 4463 9180 4420 9147 4420 9122 4420 9113 4225 9110 3597 9110L2775 9110 2650 9235 2525 9360 2145 9360 1765 9360 1620 9215 1475 9070 1101 9070 726 9070 608 9188 490 9306 490 9606 490 9906 442 9953C416 9979 388 10000 380 10000 372 10000 389 9976 418 9947ZM4528 9128C4546 9110 4543 9085 4520 9065 4502 9048 4499 9048 4475 9064 4447 9082 4445 9092 4460 9121 4472 9142 4510 9146 4528 9128Z"/><path d="M603 9942 660 9884 660 9665 660 9445 777 9328 895 9210 1061 9210 1227 9210 1238 9186C1276 9102 1394 9125 1394 9217 1394 9289 1305 9326 1255 9275 1241 9262 1230 9246 1230 9240 1230 9234 1174 9230 1067 9230L905 9230 792 9343 680 9455 680 9675 680 9896 627 9948C598 9977 568 10000 560 10000 552 10000 571 9974 603 9942ZM1344 9244C1364 9224 1364 9217 1342 9190 1319 9162 1283 9170 1274 9206 1262 9252 1311 9278 1344 9244Z"/><path d="M763 9972C790 9944 790 9943 790 9799L790 9655 898 9547 1005 9440 1632 9440C2255 9440 2259 9440 2270 9419 2310 9346 2421 9405 2389 9482 2369 9531 2290 9532 2268 9485L2257 9460 1636 9460 1015 9460 917 9558 820 9655 820 9801 820 9946 792 9973C754 10010 728 10009 763 9972ZM2359 9471C2372 9447 2351 9416 2325 9421 2297 9427 2283 9455 2299 9474 2317 9496 2347 9494 2359 9471Z"/><path d="M9207 9972C9180 9944 9180 9943 9180 9799L9180 9655 9082 9557 8985 9460 8364 9460 7743 9460 7732 9485C7710 9532 7631 9531 7611 9482 7579 9405 7690 9346 7730 9419 7741 9440 7745 9440 8368 9440L8995 9440 9103 9548 9210 9655 9210 9800C9210 9943 9210 9944 9237 9972 9256 9992 9259 10000 9249 10000 9240 10000 9222 9987 9207 9972ZM7701 9474C7710 9463 7711 9454 7703 9442 7688 9418 7659 9415 7644 9435 7616 9473 7671 9510 7701 9474Z"/><path d="M9372 9947 9320 9894 9320 9675 9320 9455 9207 9342 9095 9230 8932 9230C8826 9230 8770 9234 8770 9240 8770 9246 8759 9262 8745 9275 8695 9326 8606 9289 8606 9217 8606 9125 8724 9102 8762 9186L8773 9210 8939 9210 9105 9210 9223 9328 9340 9445 9340 9665 9340 9884 9397 9942C9430 9975 9448 10000 9439 10000 9431 10000 9401 9976 9372 9947ZM8720 9245C8737 9224 8724 9183 8698 9174 8682 9169 8671 9173 8658 9190 8636 9217 8636 9224 8656 9244 8676 9264 8704 9264 8720 9245Z"/><path d="M9557 9952 9510 9904 9510 9605 9510 9306 9392 9188 9274 9070 8899 9070 8525 9070 8380 9215 8235 9360 7855 9360 7475 9360 7350 9235 7225 9110 6403 9110C5726 9110 5580 9112 5580 9123 5580 9131 5570 9146 5557 9158 5483 9228 5375 9122 5443 9046 5481 9003 5549 9010 5575 9060L5591 9090 6413 9090 7235 9090 7360 9215 7485 9340 7855 9340 8225 9340 8370 9195 8515 9050 8899 9050 9283 9050 9407 9172 9530 9294 9530 9594 9530 9894 9582 9947C9612 9978 9628 10000 9619 10000 9611 10000 9583 9978 9557 9952ZM5540 9121C5555 9092 5553 9082 5525 9064 5501 9048 5498 9048 5480 9065 5457 9085 5454 9110 5472 9128 5490 9146 5528 9142 5540 9121Z"/><path d="M9737 9922 9660 9845 9660 9525 9660 9205 9562 9107 9465 9010 8840 9010 8215 9010 8120 8915 8025 8820 7887 8820 7748 8820 7720 8850C7705 8867 7682 8880 7671 8880 7643 8880 7600 8837 7600 8810 7600 8783 7643 8740 7671 8740 7682 8740 7705 8754 7720 8770L7748 8800 7892 8800 8035 8800 8130 8895 8225 8990 8850 8990 9475 8990 9577 9092 9680 9195 9680 9515 9680 9835 9762 9917C9808 9963 9838 10000 9830 10000 9821 10000 9780 9965 9737 9922ZM7694 8834C7703 8826 7710 8815 7710 8810 7710 8800 7681 8770 7671 8770 7658 8770 7640 8794 7640 8810 7640 8826 7658 8850 7671 8850 7675 8850 7686 8843 7694 8834Z"/><path d="M9980 9791C9980 9662 9984 9579 9990 9575 9997 9571 10000 9643 10000 9784 10000 9921 9996 10000 9990 10000 9984 10000 9980 9924 9980 9791Z"/><path d="M117 9852C92 9825 96 9785 125 9762L150 9742 150 9488 150 9234 87 9172C53 9138 19 9110 12 9110-3 9110-3 9097 12 9082 22 9072 22 9065 12 9049-4 9024 4 9012 25 9030 33 9037 40 9054 40 9069 40 9088 57 9113 105 9160L170 9224 170 9487C170 9642 174 9750 179 9750 198 9750 220 9782 220 9809 220 9863 152 9891 117 9852ZM185 9810C185 9792 179 9784 162 9782 149 9780 137 9785 134 9794 124 9820 138 9842 162 9838 179 9836 185 9828 185 9810Z"/><path d="M9797 9852C9768 9820 9784 9750 9821 9750 9826 9750 9830 9642 9830 9487L9830 9224 9895 9160C9943 9113 9960 9088 9960 9069 9960 9054 9967 9037 9975 9030 9996 9012 10004 9024 9988 9049 9978 9065 9978 9072 9988 9082 10004 9098 10003 9110 9987 9110 9980 9110 9946 9138 9912 9173L9850 9236 9850 9489 9850 9742 9875 9762C9922 9799 9897 9870 9838 9870 9824 9870 9806 9862 9797 9852ZM9865 9810C9865 9792 9859 9784 9842 9782 9818 9778 9804 9800 9814 9826 9817 9835 9829 9840 9842 9838 9859 9836 9865 9828 9865 9810Z"/><path d="M1796 9199C1764 9174 1761 9129 1790 9100 1819 9071 1857 9075 1890 9110L1918 9140 2218 9140C2504 9140 2519 9139 2525 9121 2528 9111 2544 9097 2560 9090 2585 9080 2594 9080 2615 9094 2671 9131 2651 9210 2585 9210 2561 9210 2546 9203 2532 9185L2512 9160 2215 9160 1918 9160 1890 9190C1857 9225 1833 9228 1796 9199ZM1870 9151C1870 9123 1842 9104 1822 9117 1799 9131 1796 9155 1815 9174 1835 9194 1870 9179 1870 9151ZM2609 9166C2632 9138 2592 9098 2564 9121 2549 9133 2545 9162 2557 9173 2568 9185 2597 9181 2609 9166Z"/><path d="M8110 9190 8082 9160 7785 9160 7488 9160 7468 9185C7454 9203 7439 9210 7415 9210 7349 9210 7329 9131 7385 9094 7406 9080 7415 9080 7440 9090 7456 9097 7472 9111 7475 9121 7481 9139 7496 9140 7782 9140L8082 9140 8110 9110C8143 9075 8181 9071 8210 9100 8239 9129 8236 9174 8204 9199 8167 9228 8143 9225 8110 9190ZM8196 9158C8205 9129 8176 9101 8152 9116 8128 9131 8125 9161 8145 9176 8166 9192 8187 9184 8196 9158ZM7448 9154C7452 9129 7429 9107 7407 9116 7385 9124 7377 9150 7391 9167 7408 9187 7444 9179 7448 9154Z"/><path d="M1959 9032C1944 9019 1937 9002 1937 8982 1937 8910 2016 8884 2063 8940L2089 8970 2207 8970 2325 8970 2410 8885 2495 8800 2621 8800C2745 8800 2747 8800 2758 8775 2764 8762 2781 8748 2796 8744 2858 8728 2905 8778 2884 8837 2866 8889 2780 8894 2758 8845 2747 8820 2745 8820 2626 8820L2505 8820 2420 8905 2335 8990 2210 8990 2084 8990 2062 9020C2035 9055 1995 9060 1959 9032ZM2034 9001C2053 8980 2046 8953 2019 8945 1981 8933 1954 8980 1982 9008 1999 9025 2014 9023 2034 9001ZM2850 8835C2876 8803 2837 8754 2803 8776 2768 8798 2780 8850 2820 8850 2830 8850 2843 8843 2850 8835Z"/><path d="M7938 9020 7916 8990 7790 8990 7665 8990 7580 8905 7495 8820 7374 8820C7255 8820 7253 8820 7242 8845 7220 8894 7134 8889 7116 8837 7095 8778 7142 8728 7204 8744 7219 8748 7236 8762 7242 8775 7253 8800 7255 8800 7379 8800L7505 8800 7590 8885 7675 8970 7793 8970 7911 8970 7937 8940C7984 8884 8063 8910 8063 8982 8063 9048 7979 9074 7938 9020ZM8018 9008C8046 8980 8019 8933 7981 8945 7954 8953 7947 8980 7966 9001 7986 9023 8001 9025 8018 9008ZM7210 8835C7236 8803 7197 8754 7163 8776 7128 8798 7140 8850 7180 8850 7190 8850 7203 8843 7210 8835Z"/><path d="M4832 9010C4820 8998 4810 8983 4810 8975 4810 8967 4804 8960 4798 8959 4791 8959 4304 8959 3716 8960L2647 8961 2619 8991C2602 9009 2582 9020 2566 9020 2532 9020 2490 8979 2490 8945 2490 8912 2532 8870 2565 8870 2591 8870 2640 8909 2640 8930 2640 8937 2975 8940 3720 8940L4799 8940 4814 8911C4831 8878 4848 8870 4895 8870 4962 8870 4994 8957 4945 9005 4915 9036 4863 9038 4832 9010ZM4924 8968C4939 8944 4921 8916 4887 8912 4854 8908 4834 8940 4850 8971 4864 8996 4908 8994 4924 8968ZM2599 8961C2613 8935 2591 8907 2560 8912 2535 8915 2524 8939 2534 8966 2542 8986 2587 8983 2599 8961Z"/><path d="M5055 9005C5006 8957 5038 8870 5105 8870 5152 8870 5169 8878 5186 8911L5201 8940 6280 8940C7025 8940 7360 8937 7360 8930 7360 8909 7409 8870 7435 8870 7468 8870 7510 8912 7510 8945 7510 8979 7468 9020 7434 9020 7418 9020 7398 9009 7381 8991L7353 8961 6284 8960C5696 8959 5209 8959 5203 8959 5196 8960 5190 8967 5190 8975 5190 8983 5180 8998 5168 9010 5137 9038 5085 9036 5055 9005ZM5150 8970C5158 8956 5158 8944 5150 8930 5131 8895 5070 8910 5070 8950 5070 8990 5131 9005 5150 8970ZM7465 8945C7465 8921 7460 8914 7441 8912 7409 8907 7387 8935 7401 8962 7408 8975 7420 8980 7438 8978 7461 8976 7465 8970 7465 8945Z"/><path d="M533 8910C517 8892 503 8890 360 8890L204 8890 161 8846C124 8808 113 8802 86 8807 37 8815 0 8780 0 8725 0 8690 5 8677 26 8661 63 8632 96 8635 131 8669 162 8701 167 8724 148 8766 137 8790 139 8795 178 8831L219 8870 367 8870C504 8870 516 8869 528 8850 544 8823 585 8824 604 8852 613 8864 620 8878 620 8882 620 8896 581 8930 565 8930 557 8930 542 8921 533 8910ZM590 8895C607 8875 595 8850 570 8850 547 8850 535 8872 544 8895 551 8914 574 8914 590 8895ZM104 8754C113 8746 120 8732 120 8725 120 8709 93 8680 78 8680 62 8680 30 8711 30 8726 30 8743 58 8770 75 8770 82 8770 96 8763 104 8754Z"/><path d="M9400 8910C9376 8886 9376 8881 9396 8852 9415 8824 9456 8823 9472 8850 9484 8869 9496 8870 9633 8870L9781 8870 9822 8831C9861 8795 9863 8790 9852 8766 9833 8724 9838 8701 9869 8669 9904 8635 9937 8632 9974 8661 9995 8677 10000 8690 10000 8725 10000 8780 9963 8815 9914 8807 9887 8802 9876 8808 9839 8846L9796 8890 9640 8890C9497 8890 9483 8892 9467 8910 9458 8921 9443 8930 9435 8930 9427 8930 9411 8921 9400 8910ZM9455 8880C9455 8862 9449 8854 9432 8852 9405 8848 9392 8874 9410 8896 9429 8918 9455 8909 9455 8880ZM9954 8754C9963 8746 9970 8734 9970 8728 9970 8712 9939 8680 9924 8680 9907 8680 9880 8708 9880 8725 9880 8732 9887 8746 9896 8754 9904 8763 9918 8770 9925 8770 9932 8770 9946 8763 9954 8754Z"/><path d="M780 8870C766 8844 775 8813 802 8799 818 8790 828 8792 851 8809 879 8830 889 8830 1282 8830L1685 8830 1825 8690 1965 8550 2380 8550 2795 8550 2920 8675 3045 8800 3407 8800C3653 8800 3770 8797 3770 8790 3770 8767 3820 8730 3850 8730 3893 8730 3915 8744 3930 8780 3940 8804 3940 8816 3930 8840 3915 8876 3893 8890 3850 8890 3820 8890 3770 8853 3770 8830 3770 8823 3651 8820 3402 8820L3035 8820 2910 8695 2785 8570 2380 8570 1975 8570 1835 8710 1695 8850 1285 8850C886 8850 874 8851 862 8870 845 8897 794 8897 780 8870ZM838 8868C855 8851 853 8823 834 8816 816 8809 790 8826 790 8844 790 8857 810 8880 820 8880 823 8880 831 8875 838 8868ZM3890 8830C3898 8816 3898 8804 3890 8790 3871 8755 3810 8770 3810 8810 3810 8850 3871 8865 3890 8830Z"/><path d="M6099 8880C6070 8863 6056 8814 6070 8780 6085 8744 6107 8730 6150 8730 6180 8730 6230 8767 6230 8790 6230 8797 6347 8800 6593 8800L6955 8800 7080 8675 7205 8550 7620 8550 8035 8550 8175 8690 8315 8830 8718 8830C9111 8830 9121 8830 9149 8809 9172 8792 9182 8790 9198 8799 9225 8813 9234 8844 9220 8870 9206 8897 9155 8897 9138 8870 9126 8851 9114 8850 8715 8850L8305 8850 8165 8710 8025 8570 7620 8570 7215 8570 7090 8695 6965 8820 6598 8820C6349 8820 6230 8823 6230 8830 6230 8836 6219 8852 6205 8865 6180 8891 6130 8898 6099 8880ZM9204 8857C9218 8836 9191 8806 9167 8816 9147 8823 9145 8851 9162 8868 9177 8883 9190 8879 9204 8857ZM6184 8828C6199 8804 6181 8776 6147 8772 6114 8768 6094 8800 6110 8831 6124 8856 6168 8854 6184 8828Z"/><path d="M591 8694C526 8612 639 8509 710 8585L733 8610 1032 8610 1330 8610 1369 8645 1407 8680 1526 8680 1645 8680 1763 8562 1880 8445 1880 8202C1880 8001 1877 7955 1865 7936 1844 7904 1855 7878 1889 7882 1909 7884 1916 7891 1918 7913 1920 7928 1917 7940 1911 7940 1903 7940 1900 8022 1900 8198L1900 8455 1777 8578 1655 8700 1526 8700 1397 8700 1359 8665 1320 8630 1031 8630 742 8630 731 8661C717 8703 693 8719 648 8720 620 8720 607 8714 591 8694ZM690 8660C698 8646 698 8634 690 8620 671 8585 610 8600 610 8640 610 8680 671 8695 690 8660ZM1908 7917C1912 7895 1881 7882 1870 7901 1860 7916 1877 7943 1894 7937 1900 7935 1906 7926 1908 7917Z"/><path d="M9297 8706C9288 8699 9275 8679 9269 8661L9258 8630 8969 8630 8680 8630 8641 8665 8603 8700 8474 8700 8345 8700 8222 8577 8100 8455 8100 8197C8100 8022 8097 7940 8089 7940 8083 7940 8080 7928 8082 7913 8084 7891 8091 7884 8111 7882 8145 7878 8156 7904 8135 7936 8123 7955 8120 8001 8120 8202L8120 8445 8237 8562 8355 8680 8474 8680 8593 8680 8631 8645 8670 8610 8968 8610 9267 8610 9290 8585C9322 8551 9372 8551 9405 8585 9456 8635 9422 8720 9352 8720 9332 8720 9307 8713 9297 8706ZM9384 8658C9399 8634 9381 8606 9347 8602 9314 8598 9294 8630 9310 8661 9324 8686 9368 8684 9384 8658ZM8127 7929C8141 7915 8133 7890 8115 7890 8097 7890 8087 7907 8094 7925 8100 7943 8112 7944 8127 7929Z"/><path d="M300 8523C257 8469 295 8390 364 8390 399 8391 421 8405 439 8438L451 8460 988 8460 1525 8460 1618 8367 1710 8275 1710 8122C1710 7983 1708 7968 1690 7950 1663 7923 1665 7894 1695 7874 1718 7859 1722 7859 1745 7874 1775 7894 1777 7924 1750 7947 1732 7963 1730 7977 1730 8125L1730 8285 1632 8383 1535 8480 992 8480 450 8480 440 8504C420 8557 336 8568 300 8523ZM400 8495C410 8483 410 8474 402 8455 383 8415 320 8426 320 8470 320 8507 375 8525 400 8495ZM1748 7913C1751 7891 1720 7873 1700 7885 1688 7892 1687 7923 1697 7934 1712 7948 1745 7935 1748 7913Z"/><path d="M3405 8525C3391 8512 3380 8496 3380 8490 3380 8483 3202 8480 2817 8480L2255 8480 2152 8377 2050 8275 2050 8120C2050 7976 2049 7964 2030 7952 2006 7937 2004 7898 2026 7876 2047 7855 2066 7856 2090 7880 2115 7905 2115 7926 2090 7947 2072 7963 2070 7977 2070 8115L2070 8265 2168 8363 2265 8460 2823 8460C3204 8460 3380 8457 3380 8450 3380 8444 3391 8428 3405 8415 3463 8356 3563 8410 3545 8491 3532 8551 3450 8571 3405 8525ZM3506 8485C3515 8463 3491 8430 3467 8430 3420 8430 3404 8478 3442 8504 3465 8520 3496 8511 3506 8485ZM2086 7925C2093 7907 2073 7880 2053 7880 2036 7880 2026 7904 2034 7925 2041 7945 2079 7944 2086 7925Z"/><path d="M6483 8535C6442 8506 6445 8437 6489 8403 6516 8382 6568 8388 6595 8415 6609 8428 6620 8444 6620 8450 6620 8457 6796 8460 7178 8460L7735 8460 7833 8362 7930 8265 7930 8115C7930 7977 7928 7963 7910 7947 7899 7938 7890 7923 7890 7915 7890 7896 7925 7860 7944 7860 7986 7860 8006 7930 7970 7952 7951 7964 7950 7976 7950 8120L7950 8275 7847 8378 7745 8480 7182 8480C6798 8480 6620 8483 6620 8490 6620 8496 6609 8512 6595 8525 6567 8554 6516 8558 6483 8535ZM6578 8476C6588 8429 6518 8412 6498 8456 6487 8479 6488 8485 6509 8501 6530 8518 6535 8519 6554 8507 6566 8499 6576 8485 6578 8476ZM7968 7912C7972 7884 7944 7872 7923 7893 7902 7914 7914 7942 7942 7938 7957 7936 7966 7927 7968 7912Z"/><path d="M9587 8539C9577 8533 9565 8517 9560 8504L9550 8480 9008 8480 8465 8480 8367 8382 8270 8285 8270 8125C8270 7977 8268 7963 8250 7947 8223 7924 8225 7894 8255 7874 8278 7859 8282 7859 8305 7874 8335 7894 8337 7923 8310 7950 8292 7968 8290 7983 8290 8123L8290 8275 8383 8368 8475 8460 9012 8460 9549 8460 9561 8438C9579 8405 9601 8391 9636 8390 9705 8390 9743 8469 9700 8523 9683 8544 9670 8550 9642 8550 9622 8550 9597 8545 9587 8539ZM9674 8488C9689 8463 9671 8436 9637 8432 9603 8428 9579 8470 9600 8495 9617 8515 9659 8511 9674 8488ZM8308 7916C8313 7891 8296 7877 8271 7885 8251 7891 8243 7919 8257 7934 8270 7947 8305 7935 8308 7916Z"/><path d="M22 8438C-8 8408 32 8340 71 8355 80 8358 104 8342 129 8316L173 8271 758 8271C1270 8271 1345 8269 1360 8255 1386 8231 1429 8236 1441 8264 1465 8316 1403 8354 1359 8314 1343 8299 1281 8298 759 8298L177 8299 138 8337C113 8362 102 8380 106 8392 115 8420 92 8450 62 8450 46 8450 29 8445 22 8438ZM90 8406C90 8386 65 8369 46 8376 27 8383 25 8411 42 8428 56 8442 90 8426 90 8406ZM1424 8297C1432 8285 1431 8276 1419 8265 1398 8244 1370 8256 1370 8285 1370 8321 1404 8329 1424 8297Z"/><path d="M9900 8430C9894 8418 9891 8401 9894 8392 9898 8380 9887 8362 9862 8337L9823 8299 9241 8298C8719 8298 8657 8299 8641 8314 8597 8354 8535 8316 8559 8264 8571 8236 8614 8231 8640 8255 8655 8269 8730 8271 9242 8271L9827 8271 9871 8316C9896 8342 9920 8358 9929 8355 9968 8340 10008 8408 9978 8438 9958 8458 9912 8453 9900 8430ZM9970 8400C9970 8377 9942 8366 9924 8381 9905 8397 9907 8417 9927 8429 9948 8440 9970 8426 9970 8400ZM8614 8314C8635 8306 8635 8264 8614 8256 8582 8244 8557 8283 8582 8308 8596 8322 8594 8322 8614 8314Z"/><path d="M3772 8380C3760 8375 3742 8357 3732 8340L3715 8310 3035 8310 2354 8310 2290 8245C2236 8191 2220 8180 2192 8180 2150 8180 2110 8142 2110 8102 2110 8057 2144 8020 2186 8020 2233 8020 2255 8033 2269 8069 2280 8094 2279 8104 2264 8135L2247 8171 2306 8231 2364 8290 3042 8290C3507 8290 3720 8287 3720 8280 3720 8258 3770 8220 3798 8220 3834 8220 3876 8252 3882 8284 3890 8323 3866 8366 3830 8379 3812 8385 3797 8390 3796 8389 3795 8389 3785 8385 3772 8380ZM3819 8340C3859 8319 3850 8260 3807 8260 3763 8260 3745 8303 3776 8334 3794 8353 3796 8353 3819 8340ZM2230 8120C2238 8106 2238 8094 2230 8080 2211 8045 2150 8060 2150 8100 2150 8140 2211 8155 2230 8120Z"/><path d="M6163 8375C6130 8361 6113 8326 6119 8285 6122 8255 6167 8220 6201 8220 6230 8220 6280 8257 6280 8280 6280 8287 6493 8290 6958 8290L7636 8290 7694 8231 7753 8171 7736 8135C7721 8104 7720 8094 7731 8069 7745 8033 7767 8020 7814 8020 7856 8020 7890 8057 7890 8102 7890 8142 7850 8180 7808 8180 7780 8180 7764 8191 7710 8245L7646 8310 6963 8310C6306 8310 6281 8311 6275 8329 6261 8374 6210 8395 6163 8375ZM6224 8334C6255 8303 6237 8260 6193 8260 6138 8260 6146 8343 6202 8349 6206 8350 6216 8343 6224 8334ZM7844 8118C7859 8094 7841 8066 7807 8062 7774 8058 7754 8090 7770 8121 7784 8146 7828 8144 7844 8118Z"/><path d="M106 8199C89 8186 80 8169 80 8150 80 8122 102 8090 121 8090 126 8090 130 7721 130 7147L130 6204 65 6140C29 6105 0 6069 0 6061 0 6052 34 6079 75 6120L150 6194 150 7135 150 8076 180 8098C219 8127 221 8170 184 8199 169 8211 152 8220 145 8220 138 8220 121 8211 106 8199ZM179 8156C184 8129 153 8108 129 8121 110 8131 104 8160 117 8174 131 8188 175 8175 179 8156Z"/><path d="M9816 8199C9779 8170 9781 8127 9820 8098L9850 8076 9850 7135 9850 6194 9925 6120C9966 6079 10000 6052 10000 6061 10000 6069 9971 6105 9935 6140L9870 6204 9870 7147C9870 7721 9874 8090 9879 8090 9898 8090 9920 8122 9920 8150 9920 8179 9882 8220 9855 8220 9848 8220 9831 8211 9816 8199ZM9889 8156C9894 8129 9863 8108 9839 8121 9820 8131 9814 8160 9827 8174 9841 8188 9885 8175 9889 8156Z"/><path d="M312 8077 250 8014 250 7843C250 7681 249 7670 230 7660 181 7634 203 7550 260 7550 319 7550 344 7624 295 7656L270 7672 270 7839 270 8006 328 8063 386 8120 881 8120 1375 8120 1458 8037C1521 7974 1540 7948 1540 7927 1540 7908 1547 7896 1564 7889 1598 7873 1630 7892 1630 7929 1630 7964 1608 7984 1576 7978 1556 7974 1537 7988 1468 8057L1385 8140 880 8140 374 8140 312 8077ZM1614 7944C1621 7925 1604 7900 1585 7900 1566 7900 1549 7925 1556 7944 1559 7953 1572 7960 1585 7960 1598 7960 1611 7953 1614 7944ZM290 7621C304 7593 277 7566 249 7580 227 7592 224 7610 242 7628 260 7646 278 7643 290 7621Z"/><path d="M8532 8057C8463 7988 8444 7974 8424 7978 8392 7984 8370 7964 8370 7929 8370 7892 8402 7873 8436 7889 8453 7896 8460 7908 8460 7928 8460 7949 8478 7974 8543 8038L8625 8120 9121 8120 9616 8120 9673 8062 9730 8004 9730 7838 9730 7672 9705 7656C9656 7624 9681 7550 9740 7550 9797 7550 9819 7634 9770 7660 9751 7670 9750 7681 9750 7843L9750 8016 9687 8078 9624 8140 9120 8140 8615 8140 8532 8057ZM8444 7944C8451 7925 8434 7900 8415 7900 8396 7900 8379 7925 8386 7944 8389 7953 8402 7960 8415 7960 8428 7960 8441 7953 8444 7944ZM9758 7628C9776 7610 9773 7592 9751 7580 9736 7573 9728 7574 9716 7586 9704 7598 9703 7606 9710 7621 9722 7643 9740 7646 9758 7628Z"/><path d="M0 8008C0 7999 7 7987 15 7980 38 7961 37 7640 14 7605-7 7573 11 7548 49 7552 69 7554 76 7561 78 7583 80 7601 76 7612 66 7616 52 7621 50 7648 50 7799 50 7975 50 7977 25 8000 6 8018 0 8020 0 8008ZM68 7587C72 7567 43 7553 28 7568 13 7583 27 7612 47 7608 57 7606 66 7597 68 7587Z"/><path d="M9972 7997C9951 7975 9950 7966 9950 7798 9950 7648 9948 7621 9934 7616 9924 7612 9920 7601 9922 7583 9924 7561 9931 7554 9951 7552 9989 7548 10007 7573 9986 7605 9962 7641 9962 7955 9986 7981 10011 8009 9998 8024 9972 7997ZM9978 7587C9982 7567 9953 7553 9938 7568 9923 7583 9937 7612 9957 7608 9967 7606 9976 7597 9978 7587Z"/><path d="M592 7937 520 7865 520 7667 520 7470 495 7460C448 7442 437 7376 474 7334 492 7312 506 7306 534 7307 623 7310 647 7414 570 7458L540 7475 540 7665 540 7856 608 7923 676 7990 966 7990 1256 7990 1322 7923C1374 7870 1388 7850 1384 7834 1373 7793 1437 7761 1468 7792 1498 7822 1462 7888 1423 7876 1409 7872 1386 7888 1335 7940L1266 8010 965 8010 664 8010 592 7937ZM1455 7830C1455 7812 1449 7804 1432 7802 1419 7800 1407 7805 1404 7814 1394 7840 1408 7862 1432 7858 1449 7856 1455 7848 1455 7830ZM564 7414C586 7392 584 7373 556 7355 527 7336 502 7345 494 7376 482 7422 531 7448 564 7414Z"/><path d="M8665 7940C8614 7888 8591 7872 8577 7876 8538 7888 8502 7822 8532 7792 8563 7761 8627 7793 8616 7834 8612 7850 8626 7870 8678 7923L8744 7990 9035 7990 9326 7990 9393 7922 9460 7854 9460 7665 9460 7475 9430 7458C9353 7414 9377 7310 9466 7307 9494 7306 9508 7312 9526 7334 9563 7376 9552 7442 9505 7460L9480 7470 9480 7668 9480 7866 9407 7938 9335 8010 9034 8010 8734 8010 8665 7940ZM8595 7830C8595 7812 8589 7804 8572 7802 8548 7798 8534 7820 8544 7846 8547 7855 8559 7860 8572 7858 8589 7856 8595 7848 8595 7830ZM9500 7415C9515 7396 9506 7354 9484 7346 9464 7338 9420 7365 9420 7385 9420 7422 9476 7443 9500 7415Z"/><path d="M344 7932C305 7906 308 7842 350 7820 370 7809 370 7805 370 7087L370 6365 508 6227 645 6090 865 6090 1085 6090 1179 6184C1247 6253 1277 6276 1291 6273 1317 6266 1340 6287 1340 6319 1340 6351 1324 6370 1295 6370 1265 6370 1250 6351 1250 6315 1250 6289 1235 6269 1161 6197L1073 6110 864 6110 655 6110 522 6243 390 6375 390 7091 390 7808 415 7824C470 7860 451 7940 387 7940 370 7940 350 7936 344 7932ZM409 7896C432 7868 392 7828 364 7851 349 7863 345 7892 357 7903 368 7915 397 7911 409 7896ZM1320 6335C1330 6323 1330 6317 1320 6305 1313 6297 1302 6290 1295 6290 1288 6290 1277 6297 1270 6305 1260 6317 1260 6323 1270 6335 1277 6343 1288 6350 1295 6350 1302 6350 1313 6343 1320 6335Z"/><path d="M9564 7915C9543 7883 9552 7846 9585 7824L9610 7808 9610 7091 9610 6375 9478 6243 9345 6110 9136 6110 8927 6110 8839 6197C8765 6269 8750 6289 8750 6315 8750 6351 8735 6370 8705 6370 8676 6370 8660 6351 8660 6319 8660 6287 8683 6266 8709 6273 8723 6276 8753 6253 8821 6184L8915 6090 9135 6090 9355 6090 9493 6228 9630 6365 9630 7087C9630 7805 9630 7809 9650 7820 9679 7836 9693 7876 9679 7903 9663 7933 9651 7940 9613 7940 9589 7940 9576 7933 9564 7915ZM9648 7884C9652 7859 9629 7837 9607 7846 9585 7854 9577 7880 9591 7897 9608 7917 9644 7909 9648 7884ZM8730 6335C8740 6323 8740 6317 8730 6305 8723 6297 8712 6290 8705 6290 8698 6290 8687 6297 8680 6305 8670 6317 8670 6323 8680 6335 8687 6343 8698 6350 8705 6350 8712 6350 8723 6343 8730 6335Z"/><path d="M737 7812 680 7754 680 7484 680 7214 610 7145 540 7076 540 6983C540 6894 539 6889 516 6878 479 6862 462 6814 481 6781 501 6745 541 6727 574 6739 636 6763 645 6846 589 6879 561 6895 560 6897 560 6974L560 7053 630 7126 700 7198 700 7472 700 7746 753 7798 806 7850 981 7850 1156 7850 1230 7775C1283 7722 1304 7693 1302 7679 1297 7651 1317 7630 1349 7630 1381 7630 1400 7646 1400 7675 1400 7704 1381 7720 1345 7720 1320 7720 1301 7734 1240 7795L1166 7870 980 7870 794 7870 737 7812ZM1374 7687C1390 7662 1358 7631 1336 7650 1317 7665 1316 7682 1332 7698 1347 7713 1360 7709 1374 7687ZM580 6835C606 6803 567 6754 533 6776 498 6798 510 6850 550 6850 560 6850 573 6843 580 6835Z"/><path d="M8760 7795C8699 7734 8680 7720 8655 7720 8619 7720 8600 7704 8600 7675 8600 7646 8619 7630 8651 7630 8683 7630 8703 7651 8698 7679 8696 7693 8717 7722 8770 7775L8844 7850 9020 7850 9196 7850 9248 7797 9300 7744 9300 7471 9300 7198 9370 7126 9440 7053 9440 6974C9440 6897 9439 6895 9411 6879 9355 6846 9364 6763 9426 6739 9459 6727 9499 6745 9519 6781 9538 6814 9521 6862 9484 6878 9461 6889 9460 6894 9460 6983L9460 7076 9390 7145 9320 7214 9320 7485 9320 7756 9262 7813 9204 7870 9019 7870 8834 7870 8760 7795ZM8674 7687C8690 7662 8658 7631 8636 7650 8617 7665 8616 7682 8632 7698 8647 7713 8660 7709 8674 7687ZM9480 6835C9506 6803 9467 6754 9433 6776 9398 6798 9410 6850 9450 6850 9460 6850 9473 6843 9480 6835Z"/><path d="M1907 7810C1885 7793 1867 7790 1773 7790L1664 7790 1602 7727 1540 7664 1540 7505 1540 7345 1420 7225 1300 7105 1300 6985 1300 6865 1127 6692 955 6520 818 6520C707 6520 681 6523 676 6535 673 6544 658 6550 636 6550 606 6550 599 6546 594 6523 580 6470 638 6439 675 6480 692 6498 705 6500 829 6500L965 6500 1142 6677 1320 6855 1320 6975 1320 7095 1440 7215 1560 7335 1560 7495 1560 7654 1617 7712 1674 7770 1780 7770C1875 7770 1886 7768 1898 7749 1918 7717 1972 7726 1985 7764 1993 7788 1991 7795 1971 7811 1942 7835 1939 7835 1907 7810ZM1954 7804C1976 7796 1974 7763 1952 7751 1930 7739 1910 7754 1910 7780 1910 7808 1924 7816 1954 7804ZM659 6526C684 6496 643 6459 615 6486 597 6505 596 6512 612 6528 628 6544 645 6543 659 6526Z"/><path d="M8029 7811C8009 7795 8007 7788 8015 7764 8028 7726 8082 7717 8102 7749 8114 7768 8125 7770 8220 7770L8326 7770 8383 7712 8440 7654 8440 7495 8440 7335 8560 7215 8680 7095 8680 6975 8680 6855 8858 6677 9035 6500 9171 6500C9295 6500 9308 6498 9325 6480 9362 6439 9420 6470 9406 6523 9401 6546 9394 6550 9364 6550 9342 6550 9327 6544 9324 6535 9319 6523 9293 6520 9181 6520L9045 6520 8872 6693 8700 6865 8700 6985 8700 7105 8580 7225 8460 7345 8460 7505 8460 7666 8397 7728 8334 7790 8226 7790C8133 7790 8115 7793 8093 7810 8061 7835 8058 7835 8029 7811ZM8088 7787C8090 7777 8086 7763 8080 7755 8064 7736 8030 7753 8030 7780 8030 7813 8082 7819 8088 7787ZM9389 6526C9414 6496 9373 6459 9345 6486 9327 6505 9326 6512 9342 6528 9358 6544 9375 6543 9389 6526Z"/><path d="M2022 7778C2004 7760 2008 7725 2030 7705 2067 7672 2056 7640 1980 7565 1925 7511 1908 7498 1898 7508 1880 7526 1825 7523 1801 7503 1742 7454 1778 7358 1854 7358 1908 7358 1934 7387 1935 7445 1935 7486 1940 7494 2003 7557 2058 7613 2070 7631 2070 7658 2070 7677 2078 7698 2090 7710 2114 7734 2115 7753 2094 7774 2076 7793 2039 7795 2022 7778ZM2090 7746C2090 7726 2063 7707 2045 7714 2027 7720 2025 7751 2042 7768 2056 7782 2090 7766 2090 7746ZM1892 7454C1903 7431 1902 7425 1881 7409 1860 7392 1855 7391 1836 7403 1795 7430 1809 7480 1856 7480 1873 7480 1884 7471 1892 7454Z"/><path d="M7906 7774C7885 7753 7886 7734 7910 7710 7922 7698 7930 7677 7930 7658 7930 7631 7942 7613 7998 7557 8060 7494 8065 7486 8065 7445 8066 7387 8092 7358 8146 7358 8199 7358 8235 7398 8226 7449 8223 7469 8211 7493 8199 7503 8175 7523 8120 7526 8102 7508 8092 7498 8075 7511 8020 7565 7944 7640 7933 7672 7970 7705 7992 7725 7996 7760 7978 7778 7961 7795 7924 7793 7906 7774ZM7968 7736C7964 7710 7931 7708 7916 7733 7907 7748 7909 7754 7924 7765 7948 7783 7972 7767 7968 7736ZM8180 7465C8196 7446 8189 7420 8164 7403 8145 7391 8140 7392 8119 7409 8098 7425 8097 7431 8108 7454 8121 7483 8160 7490 8180 7465Z"/><path d="M790 7720C779 7709 770 7687 770 7670 770 7641 799 7600 820 7600 826 7600 830 7514 830 7362L830 7125 915 7040 1000 6955 1000 6885C1000 6826 997 6813 980 6802 940 6777 967 6705 1013 6712 1025 6714 1041 6727 1049 6742 1063 6767 1063 6771 1042 6793 1023 6813 1020 6828 1020 6891L1020 6965 935 7050 850 7135 850 7363 850 7591 880 7617C916 7647 920 7686 890 7718 864 7746 817 7747 790 7720ZM864 7694C873 7686 880 7675 880 7670 880 7661 852 7630 844 7630 827 7630 800 7653 800 7668 800 7706 837 7721 864 7694ZM1035 6760C1035 6742 1029 6734 1012 6732 988 6728 974 6750 984 6776 987 6785 999 6790 1012 6788 1029 6786 1035 6778 1035 6760Z"/><path d="M9110 7718C9080 7686 9084 7647 9120 7617L9150 7591 9150 7363 9150 7135 9065 7050 8980 6965 8980 6891C8980 6828 8977 6813 8958 6793 8937 6771 8937 6767 8951 6742 8959 6727 8975 6714 8987 6712 9033 6705 9060 6777 9020 6802 9003 6813 9000 6826 9000 6885L9000 6955 9085 7040 9170 7125 9170 7362C9170 7514 9174 7600 9180 7600 9201 7600 9230 7641 9230 7670 9230 7733 9153 7764 9110 7718ZM9188 7698C9206 7680 9202 7652 9181 7640 9170 7635 9159 7630 9156 7630 9148 7630 9120 7661 9120 7670 9120 7683 9150 7710 9164 7710 9170 7710 9181 7705 9188 7698ZM9015 6760C9015 6742 9009 6734 8992 6732 8968 6728 8954 6750 8964 6776 8967 6785 8979 6790 8992 6788 9009 6786 9015 6778 9015 6760Z"/><path d="M1023 7700C993 7688 978 7656 982 7612 984 7583 992 7571 1017 7555L1049 7535 1050 7426C1050 7322 1049 7317 1025 7298 995 7274 993 7237 1020 7210 1046 7184 1070 7185 1098 7210 1127 7237 1126 7265 1095 7296 1071 7320 1070 7327 1070 7430L1070 7539 1099 7554C1130 7570 1140 7588 1140 7625 1140 7662 1130 7680 1099 7695 1067 7712 1055 7713 1023 7700ZM1081 7660C1118 7640 1096 7573 1054 7582 1045 7584 1031 7594 1024 7605 1012 7623 1013 7629 1026 7648 1043 7673 1053 7675 1081 7660ZM1086 7265C1093 7247 1073 7220 1053 7220 1036 7220 1026 7244 1034 7265 1041 7285 1079 7284 1086 7265Z"/><path d="M8905 7699C8875 7682 8860 7659 8860 7629 8860 7588 8869 7571 8901 7554L8930 7539 8930 7430C8930 7327 8929 7320 8905 7296 8874 7265 8873 7237 8902 7210 8930 7185 8954 7184 8980 7210 9007 7237 9005 7274 8975 7298 8951 7317 8950 7322 8950 7426L8951 7535 8983 7555C9009 7572 9016 7583 9018 7616 9020 7644 9015 7663 9003 7678 8981 7704 8933 7715 8905 7699ZM8976 7645C9002 7606 8945 7559 8912 7592 8894 7610 8897 7647 8918 7659 8941 7673 8960 7669 8976 7645ZM8968 7252C8972 7224 8944 7212 8923 7233 8902 7254 8914 7282 8942 7278 8957 7276 8966 7267 8968 7252Z"/><path d="M1377 7449C1369 7438 1364 7421 1367 7412 1369 7401 1337 7362 1270 7295L1170 7195 1170 7080C1170 6976 1168 6964 1150 6952 1108 6926 1143 6850 1189 6865 1229 6877 1238 6932 1203 6953 1194 6959 1190 6991 1190 7073L1190 7185 1288 7283C1357 7352 1391 7379 1402 7375 1429 7364 1460 7388 1460 7418 1460 7434 1455 7451 1448 7458 1429 7477 1393 7472 1377 7449ZM1440 7435C1450 7423 1450 7417 1440 7405 1433 7397 1422 7390 1415 7390 1396 7390 1379 7415 1386 7434 1394 7454 1424 7455 1440 7435ZM1210 6916C1210 6896 1183 6877 1165 6884 1147 6891 1145 6936 1163 6943 1180 6949 1210 6932 1210 6916Z"/><path d="M8552 7458C8545 7451 8540 7434 8540 7418 8540 7388 8571 7364 8598 7375 8609 7379 8643 7352 8712 7283L8810 7185 8810 7072C8810 6985 8807 6958 8796 6954 8761 6941 8772 6877 8811 6865 8857 6850 8892 6926 8850 6952 8832 6964 8830 6976 8830 7080L8830 7195 8730 7295C8663 7362 8631 7401 8633 7412 8644 7453 8582 7488 8552 7458ZM8614 7434C8621 7415 8604 7390 8585 7390 8578 7390 8567 7397 8560 7405 8550 7417 8550 7423 8560 7435 8576 7455 8606 7454 8614 7434ZM8848 6911C8844 6880 8813 6875 8796 6903 8787 6917 8789 6924 8803 6935 8830 6954 8852 6943 8848 6911Z"/><path d="M217 7402C191 7374 195 7325 225 7302L250 7282 250 6708 250 6134 210 6095 170 6056 170 5655C170 5266 169 5254 150 5242 125 5227 124 5188 148 5167 172 5145 186 5146 210 5170 235 5195 235 5216 210 5237 191 5254 190 5267 190 5650L190 6046 230 6085 270 6124 270 6698 270 7272 300 7300C335 7333 339 7371 310 7400 285 7425 238 7426 217 7402ZM291 7374C308 7353 291 7325 259 7325 241 7325 234 7331 232 7349 226 7387 266 7404 291 7374ZM206 5215C213 5197 193 5170 173 5170 156 5170 146 5194 154 5215 161 5235 199 5234 206 5215Z"/><path d="M9690 7400C9661 7371 9665 7333 9700 7300L9730 7272 9730 6698 9730 6124 9770 6085 9810 6046 9810 5650C9810 5267 9809 5254 9790 5237 9779 5228 9770 5213 9770 5205 9770 5186 9805 5150 9823 5150 9843 5150 9870 5183 9870 5208 9870 5220 9861 5235 9850 5242 9831 5254 9830 5266 9830 5655L9830 6056 9790 6095 9750 6134 9750 6708 9750 7282 9775 7302C9806 7326 9809 7379 9782 7403 9757 7426 9714 7424 9690 7400ZM9758 7381C9766 7377 9770 7362 9768 7349 9764 7320 9723 7315 9707 7342 9688 7372 9726 7402 9758 7381ZM9848 5202C9852 5174 9824 5162 9803 5183 9782 5204 9794 5232 9822 5228 9837 5226 9846 5217 9848 5202Z"/><path d="M0 7324C0 7314 6 7310 15 7314 34 7321 61 7294 54 7275 50 7267 37 7260 23 7260 1 7260-1 7257 4 7234 13 7200 13 6309 4 6273-3 6245-3 6245 19 6264 40 6283 40 6285 40 6755 40 7214 41 7227 60 7245 84 7267 86 7303 64 7324 43 7345 0 7345 0 7324Z"/><path d="M9936 7324C9914 7303 9916 7267 9940 7245 9959 7227 9960 7214 9960 6755 9960 6285 9960 6283 9981 6264 10003 6245 10003 6245 9996 6273 9987 6309 9987 7200 9996 7234 10001 7257 9999 7260 9977 7260 9947 7260 9935 7284 9956 7304 9964 7312 9977 7317 9985 7314 9994 7310 10000 7314 10000 7324 10000 7345 9957 7345 9936 7324Z"/><path d="M1641 7276C1634 7268 1627 7251 1625 7239 1622 7226 1569 7164 1505 7101L1390 6987 1390 6884C1390 6805 1387 6780 1374 6770 1366 6762 1360 6745 1362 6731 1364 6710 1370 6705 1394 6705 1433 6705 1450 6732 1427 6758 1413 6773 1410 6796 1410 6876L1410 6975 1525 7090C1609 7173 1646 7204 1661 7202 1688 7198 1710 7217 1710 7244 1710 7285 1665 7306 1641 7276ZM1694 7254C1702 7233 1693 7220 1670 7220 1648 7220 1636 7235 1644 7255 1651 7275 1686 7274 1694 7254ZM1418 6737C1422 6717 1393 6703 1378 6718 1363 6733 1377 6762 1397 6758 1407 6756 1416 6747 1418 6737Z"/><path d="M8302 7278C8273 7249 8298 7195 8339 7202 8354 7204 8391 7173 8475 7090L8590 6975 8590 6876C8590 6796 8587 6773 8573 6758 8550 6732 8567 6705 8606 6705 8630 6705 8636 6710 8638 6731 8640 6745 8634 6762 8626 6770 8613 6780 8610 6805 8610 6884L8610 6987 8495 7101C8431 7164 8378 7226 8375 7239 8366 7285 8329 7305 8302 7278ZM8355 7245C8355 7224 8324 7212 8309 7227 8304 7232 8302 7244 8306 7254 8315 7278 8355 7271 8355 7245ZM8628 6737C8632 6717 8603 6703 8588 6718 8573 6733 8587 6762 8607 6758 8617 6756 8626 6747 8628 6737Z"/><path d="M717 7009C701 6987 705 6957 726 6939 736 6931 740 6901 740 6826L740 6724 702 6687C670 6655 658 6650 619 6650 586 6650 568 6656 555 6670 522 6706 470 6690 470 6644 470 6619 494 6590 516 6590 524 6590 539 6599 550 6610 565 6625 583 6630 623 6630 672 6630 679 6633 718 6673L760 6716 760 6823C760 6919 762 6930 780 6940 803 6952 807 6999 788 7018 769 7037 733 7032 717 7009ZM780 6995C790 6983 790 6977 780 6965 773 6957 762 6950 755 6950 736 6950 719 6975 726 6994 734 7014 764 7015 780 6995ZM545 6646C545 6636 537 6622 527 6616 503 6601 474 6635 492 6657 508 6677 545 6669 545 6646Z"/><path d="M9212 7018C9193 6999 9197 6952 9220 6940 9238 6930 9240 6919 9240 6823L9240 6716 9282 6673C9321 6633 9328 6630 9377 6630 9417 6630 9435 6625 9450 6610 9461 6599 9476 6590 9484 6590 9506 6590 9530 6619 9530 6644 9530 6690 9478 6706 9445 6670 9432 6655 9414 6650 9380 6650 9340 6650 9329 6655 9297 6688L9260 6726 9260 6827C9260 6901 9264 6931 9274 6939 9295 6957 9299 6987 9283 7009 9267 7032 9231 7037 9212 7018ZM9274 6994C9281 6975 9264 6950 9245 6950 9238 6950 9227 6957 9220 6965 9210 6977 9210 6983 9220 6995 9236 7015 9266 7014 9274 6994ZM9508 6658C9522 6644 9506 6610 9486 6610 9466 6610 9447 6637 9454 6655 9460 6673 9491 6675 9508 6658Z"/><path d="M1561 6732C1556 6722 1552 6705 1553 6695 1555 6676 1547 6675 1415 6672L1274 6669 1130 6525 985 6380 914 6380C855 6380 840 6384 825 6400 803 6424 762 6423 747 6399 716 6350 785 6294 821 6338 836 6357 848 6360 917 6360L995 6360 1140 6505 1285 6650 1422 6650C1503 6650 1561 6654 1565 6660 1568 6666 1582 6667 1595 6664 1627 6656 1657 6699 1640 6729 1626 6756 1575 6758 1561 6732ZM1620 6725C1637 6705 1625 6680 1600 6680 1589 6680 1577 6687 1574 6695 1568 6710 1585 6740 1600 6740 1604 6740 1613 6733 1620 6725ZM815 6390C826 6372 809 6340 789 6340 767 6340 755 6362 764 6385 770 6402 806 6405 815 6390Z"/><path d="M8360 6729C8343 6699 8373 6656 8405 6664 8418 6667 8432 6666 8435 6660 8439 6654 8497 6650 8578 6650L8715 6650 8860 6505 9005 6360 9083 6360C9152 6360 9164 6357 9179 6338 9215 6294 9284 6350 9253 6399 9238 6423 9197 6424 9175 6400 9160 6384 9145 6380 9086 6380L9015 6380 8870 6525 8726 6669 8585 6672C8453 6675 8445 6676 8447 6695 8451 6747 8384 6774 8360 6729ZM8420 6725C8437 6705 8425 6680 8400 6680 8389 6680 8377 6687 8374 6695 8368 6710 8385 6740 8400 6740 8404 6740 8413 6733 8420 6725ZM9238 6372C9242 6344 9214 6332 9193 6353 9172 6374 9184 6402 9212 6398 9227 6396 9236 6387 9238 6372Z"/><path d="M2052 6497C2040 6484 2030 6468 2030 6462 2030 6453 1931 6450 1628 6450L1225 6450 1125 6350 1025 6251 851 6249 677 6248 604 6321C550 6375 530 6402 530 6420 530 6434 525 6451 518 6458 483 6493 416 6444 439 6401 450 6381 484 6365 498 6374 503 6377 540 6345 580 6305L654 6230 845 6230 1035 6230 1135 6330 1235 6430 1632 6430C1956 6430 2030 6428 2030 6417 2030 6391 2075 6360 2111 6360 2183 6360 2217 6444 2165 6495 2133 6528 2082 6529 2052 6497ZM2140 6465C2147 6456 2150 6440 2146 6425 2140 6403 2135 6399 2107 6402 2080 6405 2074 6410 2072 6434 2067 6477 2113 6498 2140 6465ZM508 6438C522 6424 506 6390 486 6390 466 6390 447 6417 454 6435 460 6453 491 6455 508 6438Z"/><path d="M7835 6495C7782 6443 7817 6360 7891 6360 7927 6360 7970 6392 7970 6418 7970 6427 8068 6430 8368 6430L8765 6430 8865 6330 8965 6230 9155 6230 9346 6230 9420 6305C9460 6345 9497 6377 9502 6374 9516 6365 9550 6381 9561 6401 9584 6444 9517 6493 9482 6458 9475 6451 9470 6434 9470 6420 9470 6402 9450 6375 9396 6321L9323 6248 9149 6249 8975 6251 8875 6350 8775 6450 8372 6450C8045 6450 7970 6452 7970 6463 7970 6471 7960 6486 7947 6498 7915 6528 7866 6527 7835 6495ZM7918 6471C7926 6466 7930 6450 7928 6434 7926 6410 7920 6405 7893 6402 7865 6399 7860 6403 7854 6425 7844 6467 7881 6495 7918 6471ZM9545 6426C9545 6416 9537 6402 9527 6396 9503 6381 9474 6415 9492 6437 9508 6457 9545 6449 9545 6426Z"/><path d="M1055 6005C1041 5992 1030 5976 1030 5970 1030 5963 950 5960 788 5960L545 5960 443 5858 340 5755 340 5634C340 5526 338 5511 320 5495 284 5462 300 5410 346 5410 371 5410 400 5434 400 5456 400 5464 391 5479 380 5490 362 5508 360 5523 360 5628L360 5745 458 5843 555 5940 787 5940 1019 5940 1034 5911C1050 5880 1099 5857 1128 5867 1137 5870 1155 5882 1168 5893 1217 5938 1179 6030 1110 6030 1091 6030 1070 6021 1055 6005ZM1138 5978C1172 5944 1132 5888 1090 5910 1055 5929 1070 5990 1110 5990 1119 5990 1131 5985 1138 5978ZM374 5467C383 5453 381 5446 367 5435 342 5417 320 5426 320 5454 320 5494 352 5502 374 5467Z"/><path d="M8835 6005C8790 5961 8809 5889 8872 5867 8901 5857 8950 5880 8966 5911L8981 5940 9213 5940 9445 5940 9543 5842 9640 5745 9640 5627C9640 5523 9638 5508 9620 5490 9609 5479 9600 5464 9600 5456 9600 5434 9629 5410 9654 5410 9700 5410 9716 5462 9680 5495 9662 5511 9660 5526 9660 5634L9660 5755 9557 5858 9455 5960 9212 5960C9050 5960 8970 5963 8970 5970 8970 5993 8920 6030 8890 6030 8871 6030 8850 6021 8835 6005ZM8918 5978C8952 5944 8912 5888 8870 5910 8835 5929 8850 5990 8890 5990 8899 5990 8911 5985 8918 5978ZM9678 5461C9682 5432 9663 5418 9638 5431 9617 5442 9615 5461 9632 5478 9651 5497 9675 5488 9678 5461Z"/><path d="M0 5606C0 5603 6 5591 12 5580 22 5564 22 5556 12 5539-4 5514 4 5502 25 5520 46 5537 44 5573 20 5595 9 5605 0 5610 0 5606Z"/><path d="M9977 5592C9956 5569 9955 5536 9975 5520 9996 5502 10004 5514 9988 5539 9977 5556 9977 5564 9988 5581 10005 5608 9998 5615 9977 5592Z"/><path d="M147 4842C124 4817 126 4783 150 4768 169 4756 170 4744 170 4355L170 3954 210 3915 250 3876 250 3302 250 2728 225 2708C194 2684 191 2631 218 2607 259 2570 330 2601 330 2656 330 2672 318 2693 300 2710L270 2738 270 3312 270 3886 230 3925 190 3964 190 4360C190 4743 191 4756 210 4773 221 4782 230 4797 230 4805 230 4824 195 4860 177 4860 169 4860 156 4852 147 4842ZM200 4825C217 4805 205 4780 180 4780 157 4780 145 4802 154 4825 161 4844 184 4844 200 4825ZM294 2668C309 2644 281 2615 251 2625 230 2631 222 2668 237 2684 249 2696 282 2686 294 2668Z"/><path d="M9790 4840C9779 4829 9770 4813 9770 4805 9770 4797 9779 4782 9790 4773 9809 4756 9810 4743 9810 4360L9810 3964 9770 3925 9730 3886 9730 3312 9730 2738 9700 2710C9665 2677 9661 2639 9690 2610 9715 2585 9762 2584 9783 2608 9809 2636 9805 2685 9775 2708L9750 2728 9750 3302 9750 3876 9790 3915 9830 3954 9830 4355C9830 4744 9831 4756 9850 4768 9875 4783 9876 4822 9852 4843 9828 4865 9814 4864 9790 4840ZM9845 4810C9845 4792 9839 4784 9822 4782 9795 4778 9782 4804 9800 4826 9819 4848 9845 4839 9845 4810ZM9768 2658C9770 2639 9766 2630 9750 2625 9713 2613 9686 2652 9712 2678 9733 2699 9765 2688 9768 2658Z"/><path d="M312 4588C294 4570 298 4535 320 4515 338 4499 340 4484 340 4376L340 4255 442 4153 545 4050 787 4050C991 4050 1030 4048 1030 4036 1030 4014 1079 3980 1112 3980 1179 3980 1216 4073 1168 4117 1155 4128 1137 4140 1128 4143 1099 4153 1050 4130 1034 4099L1019 4070 787 4070 555 4070 457 4168 360 4265 360 4383C360 4487 362 4502 380 4520 404 4544 405 4563 384 4584 366 4603 329 4605 312 4588ZM380 4557C380 4540 360 4520 343 4520 336 4520 326 4529 320 4539 306 4567 333 4594 361 4580 371 4574 380 4564 380 4557ZM1134 4097C1172 4070 1132 4002 1093 4026 1068 4042 1064 4081 1086 4097 1096 4104 1107 4110 1110 4110 1113 4110 1124 4104 1134 4097Z"/><path d="M9616 4584C9595 4563 9596 4544 9620 4520 9638 4502 9640 4487 9640 4382L9640 4265 9542 4167 9445 4070 9213 4070 8981 4070 8966 4099C8950 4130 8901 4153 8872 4143 8863 4140 8845 4128 8833 4117 8784 4073 8821 3980 8888 3980 8921 3980 8970 4014 8970 4036 8970 4048 9009 4050 9213 4050L9455 4050 9558 4153 9660 4255 9660 4376C9660 4484 9662 4499 9680 4515 9702 4535 9706 4570 9688 4588 9671 4605 9634 4603 9616 4584ZM9684 4565C9691 4545 9666 4516 9646 4523 9621 4533 9614 4561 9634 4576 9654 4590 9676 4585 9684 4565ZM8914 4097C8936 4081 8932 4042 8908 4026 8868 4002 8828 4070 8866 4097 8876 4104 8887 4110 8890 4110 8893 4110 8904 4104 8914 4097Z"/><path d="M0 4495C0 4492 6 4481 12 4470 22 4454 22 4446 12 4430-6 4401-3 4394 20 4415 42 4435 46 4470 28 4488 16 4500 0 4504 0 4495Z"/><path d="M9972 4488C9954 4470 9958 4435 9980 4415 10003 4394 10006 4401 9988 4430 9978 4446 9978 4454 9988 4470 9994 4481 10000 4492 10000 4495 10000 4504 9984 4500 9972 4488Z"/><path d="M0 3949C0 3941 29 3905 65 3870L130 3806 130 2863C130 2289 126 1920 121 1920 102 1920 80 1888 80 1860 80 1824 123 1787 154 1796 216 1815 230 1875 180 1912L150 1934 150 2875 150 3816 75 3890C34 3931 0 3958 0 3949ZM178 1857C176 1840 168 1835 145 1835 110 1835 98 1866 125 1886 150 1904 182 1886 178 1857Z"/><path d="M9922 3887 9850 3815 9850 2874 9850 1934 9820 1912C9770 1875 9784 1815 9846 1796 9877 1787 9920 1824 9920 1860 9920 1888 9898 1920 9879 1920 9874 1920 9870 2289 9870 2862L9870 3804 9936 3871C9973 3908 10001 3943 9999 3949 9997 3955 9962 3928 9922 3887ZM9888 1857C9886 1840 9878 1835 9855 1835 9820 1835 9808 1866 9835 1886 9860 1904 9892 1886 9888 1857Z"/><path d="M507 3782 370 3645 370 2923C370 2204 370 2201 349 2190 322 2175 310 2141 322 2110 334 2079 347 2070 387 2070 451 2070 470 2150 415 2186L390 2202 390 2919 390 3635 522 3767 655 3900 865 3900 1075 3900 1163 3812C1234 3741 1250 3719 1250 3694 1250 3659 1266 3640 1295 3640 1324 3640 1340 3659 1340 3691 1340 3723 1317 3744 1291 3737 1277 3734 1247 3757 1179 3826L1085 3920 865 3920 645 3920 507 3782ZM1320 3705C1330 3693 1330 3687 1320 3675 1313 3667 1302 3660 1295 3660 1288 3660 1277 3667 1270 3675 1260 3687 1260 3693 1270 3705 1277 3713 1288 3720 1295 3720 1302 3720 1313 3713 1320 3705ZM405 2154C423 2136 421 2121 398 2107 363 2085 332 2128 362 2158 378 2174 385 2173 405 2154Z"/><path d="M8821 3826C8753 3757 8723 3734 8709 3737 8683 3744 8660 3723 8660 3691 8660 3659 8676 3640 8705 3640 8734 3640 8750 3659 8750 3694 8750 3719 8766 3741 8837 3812L8925 3900 9135 3900 9345 3900 9478 3767 9610 3635 9610 2919 9610 2202 9585 2186C9530 2150 9549 2070 9613 2070 9653 2070 9666 2079 9678 2110 9690 2141 9678 2175 9651 2190 9630 2201 9630 2204 9630 2923L9630 3645 9492 3783 9355 3920 9135 3920 8915 3920 8821 3826ZM8730 3705C8740 3693 8740 3687 8730 3675 8723 3667 8712 3660 8705 3660 8698 3660 8687 3667 8680 3675 8670 3687 8670 3693 8680 3705 8687 3713 8698 3720 8705 3720 8712 3720 8723 3713 8730 3705ZM9638 2158C9668 2128 9637 2085 9602 2107 9579 2121 9577 2136 9595 2154 9615 2173 9622 2174 9638 2158Z"/><path d="M580 3705C540 3665 503 3633 498 3636 484 3645 450 3629 439 3609 416 3566 483 3517 518 3552 525 3559 530 3576 530 3590 530 3608 550 3635 604 3689L677 3762 851 3761 1025 3759 1125 3660 1225 3560 1628 3560C1955 3560 2030 3558 2030 3547 2030 3522 2075 3490 2109 3490 2179 3490 2218 3581 2167 3628 2136 3658 2078 3658 2050 3628 2039 3616 2030 3600 2030 3593 2030 3583 1954 3580 1632 3580L1235 3580 1135 3680 1035 3780 845 3780 654 3780 580 3705ZM505 3590C505 3572 499 3564 482 3562 455 3558 442 3584 460 3606 479 3628 505 3619 505 3590ZM2138 3598C2168 3568 2138 3523 2095 3534 2076 3539 2070 3547 2070 3569 2070 3584 2073 3600 2077 3603 2088 3614 2125 3611 2138 3598Z"/><path d="M8865 3680 8765 3580 8368 3580C8046 3580 7970 3583 7970 3593 7970 3600 7961 3616 7950 3628 7921 3659 7861 3658 7832 3627 7784 3576 7822 3490 7893 3490 7927 3490 7970 3523 7970 3548 7970 3557 8069 3560 8372 3560L8775 3560 8875 3660 8975 3759 9149 3761 9323 3762 9396 3689C9450 3635 9470 3608 9470 3590 9470 3576 9475 3559 9482 3552 9517 3517 9584 3566 9561 3609 9550 3629 9516 3645 9502 3636 9497 3633 9460 3665 9420 3705L9346 3780 9155 3780 8965 3780 8865 3680ZM9540 3605C9557 3585 9545 3560 9520 3560 9497 3560 9485 3582 9494 3605 9501 3624 9524 3624 9540 3605ZM7928 3573C7931 3545 7927 3540 7905 3534 7876 3527 7850 3544 7850 3569 7850 3594 7872 3611 7900 3608 7920 3606 7926 3599 7928 3573Z"/><path d="M4 3737C13 3700 13 2810 4 2775-1 2756 1 2749 11 2750 37 2754 48 2750 54 2735 61 2716 34 2689 15 2696 6 2700 0 2696 0 2686 0 2665 43 2665 64 2686 86 2707 84 2739 60 2765 41 2785 40 2801 40 3257 39 3723 39 3728 18 3746-3 3765-3 3765 4 3737Z"/><path d="M9977 3742C9963 3726 9961 3673 9960 3255 9960 2801 9959 2785 9940 2765 9916 2739 9914 2707 9936 2686 9956 2665 10000 2665 10000 2685 10000 2694 9994 2700 9988 2699 9963 2696 9952 2700 9946 2715 9939 2734 9967 2761 9987 2753 10000 2748 10002 2751 9996 2774 9987 2809 9987 3699 9996 3734 10003 3765 9999 3766 9977 3742Z"/><path d="M756 3674C737 3656 735 3619 752 3602 770 3584 805 3588 825 3610 840 3626 856 3630 914 3630L985 3630 1130 3485 1274 3341 1415 3338C1551 3335 1555 3334 1556 3313 1558 3273 1569 3260 1599 3260 1641 3260 1658 3292 1635 3327 1622 3346 1613 3350 1595 3346 1582 3343 1568 3344 1565 3350 1561 3356 1503 3360 1422 3360L1285 3360 1140 3505 995 3650 915 3650C846 3650 833 3653 822 3670 807 3694 777 3696 756 3674ZM810 3655C827 3635 815 3610 790 3610 767 3610 755 3632 764 3655 771 3674 794 3674 810 3655ZM1627 3314C1630 3306 1625 3291 1616 3282 1601 3267 1599 3267 1584 3282 1563 3303 1573 3330 1600 3330 1611 3330 1623 3323 1627 3314Z"/><path d="M9178 3670C9167 3653 9154 3650 9085 3650L9005 3650 8860 3505 8715 3360 8578 3360C8497 3360 8439 3356 8435 3350 8432 3344 8418 3343 8405 3346 8387 3350 8378 3346 8365 3327 8342 3292 8359 3260 8401 3260 8431 3260 8442 3273 8444 3313 8445 3334 8449 3335 8585 3338L8726 3341 8870 3485 9015 3630 9086 3630C9144 3630 9160 3626 9175 3610 9208 3574 9260 3590 9260 3636 9260 3684 9201 3708 9178 3670ZM9235 3640C9235 3622 9229 3614 9212 3612 9185 3608 9172 3634 9190 3656 9209 3678 9235 3669 9235 3640ZM8427 3314C8430 3306 8425 3291 8416 3282 8401 3267 8399 3267 8384 3282 8363 3303 8373 3330 8400 3330 8411 3330 8423 3323 8427 3314Z"/><path d="M601 3536C594 3528 590 3509 592 3493 595 3469 600 3465 633 3462 659 3460 672 3463 676 3474 681 3487 704 3490 819 3490L955 3490 1128 3317 1300 3145 1300 3025 1300 2905 1420 2785 1540 2665 1540 2505 1540 2344 1603 2282 1666 2220 1773 2220C1868 2220 1884 2217 1910 2199 1938 2178 1940 2178 1964 2194 1992 2212 1996 2230 1980 2261 1965 2287 1914 2287 1900 2260 1890 2242 1879 2240 1782 2240L1674 2240 1617 2298 1560 2356 1560 2515 1560 2675 1440 2795 1320 2915 1320 3035 1320 3155 1143 3332 965 3510 829 3510C706 3510 691 3512 675 3530 654 3553 618 3556 601 3536ZM665 3512C674 3489 644 3463 623 3476 599 3491 597 3505 615 3523 633 3541 655 3536 665 3512ZM1968 2233C1971 2211 1940 2193 1920 2205 1908 2212 1907 2243 1917 2254 1932 2268 1965 2255 1968 2233Z"/><path d="M9325 3530C9309 3512 9294 3510 9171 3510L9035 3510 8857 3332 8680 3155 8680 3035 8680 2915 8560 2795 8440 2675 8440 2515 8440 2354 8382 2297 8324 2240 8218 2240C8121 2240 8110 2242 8100 2260 8086 2287 8035 2287 8020 2261 8004 2230 8008 2212 8036 2194 8060 2178 8062 2178 8090 2199 8116 2217 8132 2220 8227 2220L8336 2220 8398 2283 8460 2346 8460 2505 8460 2665 8580 2785 8700 2905 8700 3025 8700 3145 8873 3318 9045 3490 9182 3490C9296 3490 9319 3487 9324 3474 9328 3463 9341 3460 9367 3462 9400 3465 9405 3469 9408 3493 9414 3547 9362 3570 9325 3530ZM9395 3512C9404 3489 9374 3463 9353 3476 9329 3491 9327 3505 9345 3523 9363 3541 9385 3536 9395 3512ZM8088 2236C8093 2211 8076 2197 8051 2205 8031 2211 8023 2239 8037 2254 8050 2267 8085 2255 8088 2236Z"/><path d="M486 3404C467 3386 465 3349 482 3332 500 3314 535 3318 555 3340 568 3355 586 3360 620 3360 660 3360 671 3355 703 3322L740 3284 740 3187C740 3103 737 3085 719 3060 698 3032 698 3030 714 3006 732 2978 768 2972 788 2992 807 3011 803 3058 780 3070 762 3080 760 3091 760 3188L760 3296 717 3338C678 3376 670 3380 622 3380 583 3380 565 3385 550 3400 526 3424 507 3425 486 3404ZM540 3385C556 3366 546 3340 522 3340 494 3340 479 3360 491 3382 503 3404 523 3405 540 3385ZM780 3045C795 3027 778 3000 750 3000 727 3000 716 3028 731 3046 746 3064 764 3064 780 3045Z"/><path d="M9450 3400C9435 3385 9417 3380 9378 3380 9330 3380 9322 3376 9283 3338L9240 3296 9240 3188C9240 3091 9238 3080 9220 3070 9197 3058 9193 3011 9212 2992 9232 2972 9268 2978 9286 3006 9302 3030 9302 3032 9281 3060 9263 3085 9260 3103 9260 3188L9260 3286 9298 3323C9330 3355 9342 3360 9381 3360 9414 3360 9432 3354 9445 3340 9478 3304 9530 3320 9530 3366 9530 3391 9506 3420 9484 3420 9476 3420 9461 3411 9450 3400ZM9509 3382C9521 3360 9506 3340 9478 3340 9454 3340 9444 3366 9460 3385 9477 3405 9497 3404 9509 3382ZM9269 3046C9284 3028 9273 3000 9250 3000 9222 3000 9205 3027 9220 3045 9236 3064 9254 3064 9269 3046Z"/><path d="M1367 3303C1355 3291 1360 3253 1375 3240 1387 3230 1390 3204 1390 3126L1390 3025 1505 2910C1568 2846 1622 2784 1625 2771 1634 2725 1671 2705 1698 2732 1727 2761 1702 2815 1661 2808 1646 2806 1609 2837 1525 2920L1410 3035 1410 3137C1410 3194 1414 3240 1419 3240 1435 3240 1442 3280 1430 3295 1417 3310 1379 3315 1367 3303ZM1418 3277C1422 3257 1393 3243 1378 3258 1363 3273 1377 3302 1397 3298 1407 3296 1416 3287 1418 3277ZM1694 2781C1704 2765 1689 2740 1670 2740 1647 2740 1636 2756 1644 2775 1650 2791 1686 2795 1694 2781Z"/><path d="M8571 3296C8558 3280 8565 3240 8581 3240 8586 3240 8590 3194 8590 3137L8590 3035 8475 2920C8391 2837 8354 2806 8339 2808 8298 2815 8273 2761 8302 2732 8329 2705 8366 2725 8375 2771 8378 2784 8432 2846 8495 2910L8610 3025 8610 3126C8610 3206 8613 3230 8626 3240 8634 3248 8640 3265 8638 3279 8636 3299 8629 3306 8609 3308 8595 3310 8578 3304 8571 3296ZM8628 3277C8632 3257 8603 3243 8588 3258 8573 3273 8587 3302 8607 3298 8617 3296 8626 3287 8628 3277ZM8355 2765C8355 2740 8315 2732 8306 2755 8297 2779 8308 2792 8333 2788 8347 2786 8355 2778 8355 2765Z"/><path d="M976 3285C954 3262 956 3223 980 3210 997 3201 1000 3189 1000 3127L1000 3055 915 2970 830 2885 830 2648C830 2496 826 2410 820 2410 799 2410 770 2369 770 2340 770 2277 845 2247 888 2293 919 2326 916 2363 880 2393L850 2419 850 2647 850 2875 935 2960 1020 3045 1020 3119C1020 3182 1023 3197 1042 3217 1063 3239 1063 3243 1049 3268 1032 3300 999 3307 976 3285ZM1035 3250C1035 3232 1029 3224 1012 3222 988 3218 974 3240 984 3266 987 3275 999 3280 1012 3278 1029 3276 1035 3268 1035 3250ZM864 2364C873 2356 880 2345 880 2340 880 2327 850 2300 836 2300 805 2300 789 2345 812 2368 828 2384 845 2383 864 2364Z"/><path d="M8956 3278C8935 3249 8936 3237 8960 3215 8977 3200 8980 3184 8980 3121L8980 3045 9065 2960 9150 2875 9150 2647 9150 2419 9120 2393C9083 2362 9080 2323 9113 2292 9159 2248 9230 2278 9230 2340 9230 2369 9201 2410 9180 2410 9174 2410 9170 2496 9170 2648L9170 2885 9085 2970 9000 3055 9000 3127C9000 3189 9003 3201 9020 3210 9059 3231 9035 3300 8990 3300 8980 3300 8964 3290 8956 3278ZM9015 3250C9015 3232 9009 3224 8992 3222 8979 3220 8967 3225 8964 3234 8954 3260 8968 3282 8992 3278 9009 3276 9015 3268 9015 3250ZM9194 2358C9207 2337 9192 2307 9168 2302 9152 2299 9120 2325 9120 2340 9120 2355 9152 2381 9168 2378 9176 2376 9188 2367 9194 2358Z"/><path d="M520 3267C507 3260 489 3243 481 3229 462 3196 479 3148 516 3132 539 3121 540 3116 540 3027L540 2934 610 2865 680 2796 680 2525 680 2254 738 2197 796 2140 981 2140 1166 2140 1240 2215C1301 2276 1320 2290 1345 2290 1381 2290 1400 2306 1400 2335 1400 2364 1381 2380 1349 2380 1317 2380 1297 2359 1302 2331 1304 2317 1283 2288 1230 2235L1156 2160 980 2160 804 2160 752 2213 700 2266 700 2539 700 2812 630 2884 560 2957 560 3037C560 3113 561 3117 585 3128 609 3139 630 3175 630 3205 630 3224 589 3267 565 3274 554 3277 534 3274 520 3267ZM580 3225C606 3193 567 3144 533 3166 498 3188 510 3240 550 3240 560 3240 573 3233 580 3225ZM1374 2347C1390 2322 1358 2291 1336 2310 1317 2325 1316 2342 1332 2358 1347 2373 1360 2369 1374 2347Z"/><path d="M9423 3270C9363 3246 9356 3163 9411 3131 9439 3115 9440 3113 9440 3036L9440 2957 9370 2884 9300 2812 9300 2538 9300 2264 9247 2212 9194 2160 9019 2160 8844 2160 8770 2235C8717 2288 8696 2317 8698 2331 8703 2359 8683 2380 8651 2380 8619 2380 8600 2364 8600 2335 8600 2306 8619 2290 8655 2290 8680 2290 8699 2276 8760 2215L8834 2140 9019 2140 9204 2140 9262 2197 9320 2254 9320 2525 9320 2796 9390 2865 9460 2934 9460 3027C9460 3116 9461 3121 9484 3131 9508 3142 9530 3178 9530 3205 9530 3224 9489 3267 9465 3273 9454 3276 9435 3275 9423 3270ZM9480 3225C9506 3193 9467 3144 9433 3166 9398 3188 9410 3240 9450 3240 9460 3240 9473 3233 9480 3225ZM8674 2347C8690 2322 8658 2291 8636 2310 8617 2325 8616 2342 8632 2358 8647 2373 8660 2369 8674 2347Z"/><path d="M1147 3132C1124 3107 1126 3073 1150 3058 1168 3046 1170 3034 1170 2930L1170 2815 1270 2715C1337 2648 1369 2609 1367 2598 1360 2574 1388 2540 1414 2540 1444 2540 1460 2558 1460 2592 1460 2622 1429 2646 1402 2635 1391 2631 1357 2658 1288 2727L1190 2825 1190 2937C1190 3021 1193 3051 1204 3057 1229 3072 1233 3107 1211 3129 1185 3155 1168 3155 1147 3132ZM1204 3107C1213 3093 1211 3086 1197 3075 1172 3057 1150 3066 1150 3094 1150 3134 1182 3142 1204 3107ZM1440 2605C1455 2587 1438 2560 1410 2560 1387 2560 1376 2588 1391 2606 1406 2624 1424 2624 1440 2605Z"/><path d="M8789 3129C8767 3107 8771 3072 8796 3057 8807 3051 8810 3021 8810 2937L8810 2825 8712 2727C8643 2658 8609 2631 8598 2635 8571 2646 8540 2622 8540 2592 8540 2558 8556 2540 8586 2540 8612 2540 8640 2574 8633 2598 8631 2609 8663 2648 8730 2715L8830 2815 8830 2930C8830 3034 8832 3046 8850 3058 8875 3073 8876 3112 8852 3133 8828 3155 8814 3154 8789 3129ZM8848 3101C8852 3072 8833 3058 8808 3071 8787 3082 8785 3101 8802 3118 8821 3137 8845 3128 8848 3101ZM8609 2606C8624 2588 8613 2560 8590 2560 8562 2560 8545 2587 8560 2605 8576 2624 8594 2624 8609 2606Z"/><path d="M1020 2800C993 2773 995 2736 1025 2712 1049 2693 1050 2688 1050 2584L1049 2475 1017 2455C958 2418 972 2320 1039 2305 1072 2298 1124 2320 1134 2345 1152 2392 1138 2436 1099 2456L1070 2471 1070 2580C1070 2683 1071 2690 1095 2714 1126 2745 1127 2773 1098 2800 1070 2825 1046 2826 1020 2800ZM1080 2775C1097 2755 1085 2730 1060 2730 1037 2730 1025 2752 1034 2775 1041 2794 1064 2794 1080 2775ZM1088 2418C1123 2383 1073 2319 1035 2350 1005 2375 1023 2430 1060 2430 1069 2430 1081 2425 1088 2418Z"/><path d="M8902 2800C8873 2773 8874 2745 8905 2714 8929 2690 8930 2683 8930 2580L8930 2471 8901 2456C8870 2440 8860 2422 8860 2385 8860 2348 8870 2330 8902 2314 8965 2282 9024 2324 9018 2397 9016 2427 9008 2439 8983 2455L8951 2475 8950 2584C8950 2688 8951 2693 8975 2712 9005 2736 9007 2773 8980 2800 8954 2826 8930 2825 8902 2800ZM8965 2760C8965 2742 8959 2734 8942 2732 8915 2728 8902 2754 8920 2776 8939 2798 8965 2789 8965 2760ZM8968 2418C8985 2401 8983 2365 8965 2350 8953 2340 8944 2340 8925 2348 8885 2367 8896 2430 8940 2430 8949 2430 8961 2425 8968 2418Z"/><path d="M504 2700C474 2688 450 2651 450 2617 450 2590 488 2540 510 2540 516 2540 520 2473 520 2342L520 2144 593 2072 665 2000 966 2000 1266 2000 1335 2070C1377 2113 1410 2138 1419 2135 1458 2120 1498 2188 1468 2218 1437 2249 1373 2217 1384 2176 1388 2160 1374 2140 1322 2088L1256 2020 965 2020 674 2020 607 2088 540 2156 540 2345 540 2535 570 2552C640 2592 628 2686 550 2703 536 2706 515 2704 504 2700ZM560 2652C588 2629 580 2593 544 2584 498 2572 472 2621 506 2654 526 2674 533 2674 560 2652ZM1458 2186C1463 2161 1446 2147 1421 2155 1401 2161 1393 2189 1407 2204 1420 2217 1455 2205 1458 2186Z"/><path d="M9445 2703C9372 2685 9363 2590 9430 2552L9460 2535 9460 2345 9460 2154 9392 2087 9324 2020 9034 2020 8744 2020 8678 2088C8626 2140 8612 2160 8616 2176 8627 2217 8563 2249 8532 2218 8502 2188 8542 2120 8581 2135 8590 2138 8623 2113 8665 2070L8734 2000 9034 2000 9335 2000 9407 2072 9480 2144 9480 2342C9480 2473 9484 2540 9490 2540 9496 2540 9512 2551 9525 2565 9583 2622 9525 2722 9445 2703ZM9494 2654C9528 2621 9502 2572 9456 2584 9420 2593 9412 2629 9440 2652 9467 2674 9474 2674 9494 2654ZM8598 2183C8601 2161 8570 2143 8550 2155 8538 2162 8537 2193 8547 2204 8562 2218 8595 2205 8598 2183Z"/><path d="M1833 2652C1806 2648 1770 2605 1770 2578 1770 2551 1796 2504 1815 2496 1842 2486 1885 2489 1898 2502 1908 2512 1925 2499 1980 2445 2056 2370 2067 2338 2030 2305 1994 2272 2010 2220 2056 2220 2081 2220 2110 2244 2110 2266 2110 2274 2101 2289 2090 2300 2078 2312 2070 2333 2070 2352 2070 2379 2058 2397 2003 2453 1940 2516 1935 2524 1935 2565 1934 2630 1898 2662 1833 2652ZM1896 2585C1905 2563 1881 2530 1857 2530 1810 2530 1794 2578 1832 2604 1855 2620 1886 2611 1896 2585ZM2084 2277C2093 2262 2091 2256 2076 2245 2054 2228 2030 2241 2030 2270 2030 2305 2064 2309 2084 2277Z"/><path d="M8124 2652C8088 2647 8066 2613 8065 2565 8065 2524 8060 2516 7998 2453 7942 2397 7930 2379 7930 2352 7930 2333 7922 2312 7910 2300 7899 2289 7890 2274 7890 2266 7890 2244 7919 2220 7944 2220 7990 2220 8006 2272 7970 2305 7933 2338 7944 2370 8020 2445 8075 2499 8092 2512 8102 2502 8115 2489 8158 2486 8185 2496 8204 2504 8230 2551 8230 2578 8230 2624 8177 2660 8124 2652ZM8188 2576C8198 2529 8128 2512 8108 2556 8097 2579 8098 2585 8119 2601 8140 2618 8145 2619 8164 2607 8176 2599 8186 2585 8188 2576ZM7968 2277C7974 2249 7952 2228 7929 2241 7907 2252 7905 2271 7922 2288 7939 2305 7964 2299 7968 2277Z"/><path d="M10 2446C0 2433 1 2426 14 2405 37 2370 38 2049 15 2030 7 2023 0 2011 0 2002 0 1990 6 1992 25 2010 50 2033 50 2035 50 2211 50 2362 52 2389 66 2394 76 2398 80 2409 78 2427 76 2449 69 2456 49 2458 35 2460 18 2454 10 2446ZM68 2427C72 2407 43 2393 28 2408 13 2423 27 2452 47 2448 57 2446 66 2437 68 2427Z"/><path d="M214 2435C194 2405 202 2365 230 2350 249 2340 250 2329 250 2167L250 1994 313 1932 376 1870 880 1870 1385 1870 1468 1953C1537 2022 1556 2036 1576 2032 1608 2026 1630 2046 1630 2081 1630 2102 1623 2113 1606 2121 1572 2137 1540 2117 1540 2082 1540 2061 1521 2035 1457 1972L1375 1890 880 1890 386 1890 328 1947 270 2004 270 2171 270 2338 295 2354C324 2373 329 2420 304 2444 280 2469 233 2464 214 2435ZM288 2401C284 2370 253 2365 236 2393 227 2407 229 2414 243 2425 270 2444 292 2433 288 2401ZM1609 2096C1625 2076 1612 2050 1585 2050 1572 2050 1559 2057 1556 2066 1549 2085 1566 2110 1585 2110 1592 2110 1603 2104 1609 2096Z"/><path d="M9696 2444C9671 2420 9676 2373 9705 2354L9730 2338 9730 2171 9730 2004 9672 1947 9614 1890 9119 1890 8625 1890 8542 1973C8479 2036 8460 2062 8460 2083 8460 2102 8453 2114 8436 2121 8402 2137 8370 2118 8370 2081 8370 2046 8392 2026 8424 2032 8444 2036 8463 2022 8532 1953L8615 1870 9120 1870 9626 1870 9688 1933 9750 1996 9750 2167C9750 2329 9751 2340 9770 2350 9819 2376 9797 2460 9740 2460 9725 2460 9704 2453 9696 2444ZM9770 2406C9770 2386 9743 2367 9725 2374 9707 2381 9705 2426 9723 2433 9740 2439 9770 2422 9770 2406ZM8439 2096C8455 2076 8442 2050 8415 2050 8402 2050 8389 2057 8386 2066 8379 2085 8396 2110 8415 2110 8422 2110 8433 2104 8439 2096Z"/><path d="M9927 2453C9914 2441 9920 2399 9935 2394 9948 2389 9950 2359 9950 2211 9950 2035 9950 2033 9975 2010 9994 1992 10000 1990 10000 2002 10000 2011 9993 2023 9985 2030 9962 2049 9963 2370 9986 2405 9999 2425 10000 2433 9990 2445 9977 2460 9939 2465 9927 2453ZM9978 2427C9982 2407 9953 2393 9938 2408 9923 2423 9937 2452 9957 2448 9967 2446 9976 2437 9978 2427Z"/><path d="M1692 2134C1665 2115 1664 2086 1690 2060 1708 2042 1710 2027 1710 1887L1710 1735 1617 1642 1525 1550 988 1550 451 1550 436 1579C427 1595 413 1610 405 1614 318 1647 245 1557 301 1486 336 1442 420 1454 440 1506L450 1530 992 1530 1535 1530 1633 1628 1730 1725 1730 1885C1730 2033 1732 2047 1750 2063 1776 2085 1775 2115 1748 2134 1736 2143 1723 2150 1720 2150 1717 2150 1704 2143 1692 2134ZM1745 2100C1745 2082 1739 2074 1722 2072 1698 2068 1684 2090 1694 2116 1697 2125 1709 2130 1722 2128 1739 2126 1745 2118 1745 2100ZM402 1555C410 1536 410 1527 400 1515 375 1485 320 1503 320 1540 320 1584 383 1595 402 1555Z"/><path d="M2026 2134C2004 2112 2006 2073 2030 2058 2049 2046 2050 2034 2050 1890L2050 1735 2153 1632 2255 1530 2815 1530 3375 1529 3395 1497C3432 1438 3530 1452 3545 1519 3563 1600 3463 1654 3405 1595 3391 1582 3380 1566 3380 1560 3380 1553 3204 1550 2822 1550L2265 1550 2167 1648 2070 1745 2070 1895C2070 2033 2072 2047 2090 2063 2101 2072 2110 2087 2110 2095 2110 2114 2075 2150 2056 2150 2048 2150 2034 2143 2026 2134ZM2080 2115C2097 2095 2085 2070 2060 2070 2037 2070 2025 2092 2034 2115 2041 2134 2064 2134 2080 2115ZM3502 1554C3513 1531 3512 1525 3491 1509 3470 1492 3465 1491 3446 1503 3405 1530 3419 1580 3466 1580 3483 1580 3494 1571 3502 1554Z"/><path d="M7910 2130C7899 2119 7890 2103 7890 2095 7890 2087 7899 2072 7910 2063 7928 2047 7930 2033 7930 1895L7930 1745 7832 1647 7735 1550 7177 1550C6796 1550 6620 1553 6620 1560 6620 1566 6609 1582 6595 1595 6537 1654 6437 1600 6455 1519 6464 1480 6499 1458 6547 1462 6577 1464 6589 1472 6605 1497L6625 1529 7185 1530 7745 1530 7847 1632 7950 1735 7950 1890C7950 2034 7951 2046 7970 2058 7994 2073 7996 2112 7974 2134 7953 2155 7934 2154 7910 2130ZM7965 2100C7965 2082 7959 2074 7942 2072 7915 2068 7902 2094 7920 2116 7939 2138 7965 2129 7965 2100ZM6570 1565C6586 1546 6579 1520 6554 1503 6535 1491 6530 1492 6509 1509 6488 1525 6487 1531 6498 1554 6511 1583 6550 1590 6570 1565Z"/><path d="M8252 2134C8225 2115 8224 2085 8250 2063 8268 2047 8270 2033 8270 1885L8270 1725 8368 1627 8465 1530 9008 1530 9550 1530 9560 1506C9580 1454 9664 1442 9699 1486 9755 1557 9682 1647 9595 1614 9587 1610 9573 1595 9564 1579L9549 1550 9012 1550 8475 1550 8382 1643 8290 1735 8290 1888C8290 2027 8292 2042 8310 2060 8336 2086 8335 2115 8308 2134 8296 2143 8283 2150 8280 2150 8277 2150 8264 2143 8252 2134ZM8305 2100C8305 2082 8299 2074 8282 2072 8269 2070 8257 2075 8254 2084 8244 2110 8258 2132 8282 2128 8299 2126 8305 2118 8305 2100ZM9674 1558C9698 1519 9630 1479 9600 1515 9579 1540 9603 1582 9637 1578 9651 1576 9668 1567 9674 1558Z"/><path d="M1856 2114C1852 2105 1856 2087 1865 2074 1877 2055 1880 2009 1880 1808L1880 1565 1763 1448 1645 1330 1526 1330 1407 1330 1369 1365 1330 1400 1032 1400 733 1400 710 1425C678 1459 628 1459 595 1425 544 1375 578 1290 648 1290 693 1291 717 1307 731 1349L742 1380 1031 1380 1320 1380 1359 1345 1397 1310 1526 1310 1655 1310 1778 1433 1900 1555 1900 1813C1900 1988 1903 2070 1911 2070 1917 2070 1920 2082 1918 2098 1916 2119 1909 2126 1889 2128 1871 2130 1860 2125 1856 2114ZM1907 2104C1910 2096 1908 2084 1902 2078 1887 2063 1859 2086 1867 2106 1874 2125 1899 2124 1907 2104ZM690 1390C698 1376 698 1364 690 1350 671 1315 610 1330 610 1370 610 1410 671 1425 690 1390Z"/><path d="M8087 2123C8076 2113 8079 2070 8090 2070 8096 2070 8100 1977 8100 1812L8100 1555 8223 1432 8345 1310 8474 1310 8603 1310 8641 1345 8680 1380 8969 1380 9258 1380 9269 1349C9283 1307 9307 1291 9352 1290 9422 1290 9456 1375 9405 1425 9372 1459 9322 1459 9290 1425L9267 1400 8968 1400 8670 1400 8631 1365 8593 1330 8474 1330 8355 1330 8237 1448 8120 1565 8120 1808C8120 2009 8123 2055 8135 2074 8144 2087 8148 2105 8144 2114 8138 2130 8100 2136 8087 2123ZM8133 2106C8141 2086 8113 2063 8098 2078 8084 2092 8095 2120 8114 2120 8121 2120 8130 2114 8133 2106ZM9384 1388C9399 1364 9381 1336 9347 1332 9314 1328 9294 1360 9310 1391 9324 1416 9368 1414 9384 1388Z"/><path d="M2131 1964C2087 1908 2123 1830 2192 1830 2220 1830 2236 1819 2290 1765L2354 1700 3035 1700 3715 1700 3732 1670C3779 1588 3900 1633 3882 1726 3876 1758 3834 1790 3798 1790 3770 1790 3720 1752 3720 1730 3720 1723 3507 1720 3042 1720L2364 1720 2305 1780 2246 1840 2264 1871C2298 1928 2260 1990 2191 1990 2160 1990 2147 1984 2131 1964ZM2230 1930C2238 1916 2238 1904 2230 1890 2211 1855 2150 1870 2150 1910 2150 1950 2211 1965 2230 1930ZM3840 1731C3858 1696 3822 1652 3786 1666 3764 1674 3755 1717 3770 1735 3788 1756 3827 1754 3840 1731Z"/><path d="M7750 1970C7720 1940 7715 1906 7736 1871L7754 1840 7695 1780 7636 1720 6958 1720C6493 1720 6280 1723 6280 1730 6280 1752 6230 1790 6202 1790 6166 1790 6124 1758 6118 1726 6100 1633 6221 1588 6268 1670L6285 1700 6965 1700 7646 1700 7710 1765C7764 1819 7780 1830 7808 1830 7877 1830 7913 1908 7869 1964 7843 1997 7781 2001 7750 1970ZM7844 1928C7859 1904 7841 1876 7807 1872 7774 1868 7754 1900 7770 1931 7784 1956 7828 1954 7844 1928ZM6230 1735C6245 1717 6236 1674 6214 1666 6195 1659 6164 1674 6156 1695 6140 1737 6201 1770 6230 1735Z"/><path d="M1359 1755C1345 1741 1271 1739 759 1739L173 1739 129 1694C104 1668 80 1652 71 1655 49 1663 10 1632 10 1607 10 1576 28 1560 62 1560 92 1560 115 1590 106 1618 102 1630 113 1648 139 1674L177 1711 759 1712C1279 1712 1343 1710 1359 1696 1403 1656 1468 1697 1441 1749 1427 1774 1382 1777 1359 1755ZM1424 1737C1432 1725 1431 1716 1419 1705 1398 1684 1370 1696 1370 1725 1370 1761 1404 1769 1424 1737ZM84 1617C100 1592 68 1561 46 1580 27 1595 25 1626 43 1633 61 1641 72 1636 84 1617Z"/><path d="M8559 1749C8532 1697 8597 1656 8641 1696 8657 1710 8721 1712 9241 1712L9823 1711 9861 1674C9887 1648 9898 1630 9894 1618 9885 1590 9908 1560 9938 1560 9972 1560 9990 1576 9990 1607 9990 1632 9951 1663 9929 1655 9920 1652 9896 1668 9871 1694L9827 1739 9242 1739C8730 1739 8655 1741 8640 1755 8615 1777 8573 1774 8559 1749ZM8614 1754C8635 1746 8635 1704 8614 1696 8582 1684 8557 1723 8582 1748 8596 1762 8594 1762 8614 1754ZM9954 1634C9974 1626 9975 1596 9955 1580 9926 1556 9895 1601 9922 1628 9936 1642 9934 1642 9954 1634Z"/><path d="M1825 1320 1685 1180 1282 1180C900 1180 877 1181 854 1199 809 1234 753 1191 779 1141 794 1113 845 1112 862 1140 874 1159 886 1160 1285 1160L1695 1160 1835 1300 1975 1440 2380 1440 2785 1440 2910 1315 3035 1190 3402 1190C3651 1190 3770 1187 3770 1180 3770 1157 3820 1120 3850 1120 3893 1120 3915 1134 3930 1170 3940 1194 3940 1206 3930 1230 3915 1266 3893 1280 3850 1280 3820 1280 3770 1243 3770 1220 3770 1213 3653 1210 3407 1210L3045 1210 2920 1335 2795 1460 2380 1460 1965 1460 1825 1320ZM3890 1220C3898 1206 3898 1194 3890 1180 3871 1145 3810 1160 3810 1200 3810 1240 3871 1255 3890 1220ZM834 1194C854 1186 855 1156 835 1140 806 1116 775 1161 802 1188 816 1202 814 1202 834 1194Z"/><path d="M7080 1335 6955 1210 6593 1210C6347 1210 6230 1213 6230 1220 6230 1243 6180 1280 6150 1280 6107 1280 6085 1266 6070 1230 6060 1206 6060 1194 6070 1170 6085 1134 6107 1120 6150 1120 6180 1120 6230 1157 6230 1180 6230 1187 6349 1190 6598 1190L6965 1190 7090 1315 7215 1440 7620 1440 8025 1440 8165 1300 8305 1160 8715 1160C9114 1160 9126 1159 9138 1140 9156 1111 9207 1113 9221 1144 9244 1194 9191 1234 9146 1199 9123 1181 9100 1180 8718 1180L8315 1180 8175 1320 8035 1460 7620 1460 7205 1460 7080 1335ZM6184 1218C6199 1194 6181 1166 6147 1162 6114 1158 6094 1190 6110 1221 6124 1246 6168 1244 6184 1218ZM9204 1177C9220 1152 9188 1121 9166 1140 9147 1155 9145 1186 9163 1193 9181 1201 9192 1196 9204 1177Z"/><path d="M26 1349C5 1333 0 1320 0 1285 0 1230 37 1195 86 1203 113 1208 124 1202 161 1164L204 1120 362 1120C492 1120 522 1117 526 1105 539 1072 592 1077 611 1112 636 1159 556 1206 528 1160 516 1141 504 1140 367 1140L219 1140 178 1179C139 1215 137 1220 148 1244 167 1286 162 1309 131 1341 96 1375 63 1378 26 1349ZM104 1314C113 1306 120 1292 120 1285 120 1267 93 1240 75 1240 59 1240 30 1267 30 1282 30 1298 61 1330 76 1330 83 1330 96 1323 104 1314ZM596 1145C603 1127 583 1100 563 1100 546 1100 536 1124 544 1145 551 1165 589 1164 596 1145Z"/><path d="M9869 1341C9838 1309 9833 1286 9852 1244 9863 1220 9861 1215 9822 1179L9781 1140 9633 1140C9496 1140 9484 1141 9472 1160 9443 1206 9364 1159 9389 1111 9408 1076 9461 1073 9474 1106 9478 1117 9510 1120 9638 1120L9796 1120 9839 1164C9876 1202 9887 1208 9914 1203 9963 1195 10000 1230 10000 1285 10000 1320 9995 1333 9974 1349 9937 1378 9904 1375 9869 1341ZM9952 1313C9962 1304 9970 1291 9970 1284 9970 1267 9942 1240 9925 1240 9907 1240 9880 1267 9880 1285 9880 1301 9907 1330 9922 1330 9928 1330 9942 1323 9952 1313ZM9458 1132C9462 1104 9434 1092 9413 1113 9392 1134 9404 1162 9432 1158 9447 1156 9456 1147 9458 1132Z"/><path d="M2280 1240 2252 1210 2108 1210 1965 1210 1870 1115 1775 1020 1150 1020 525 1020 422 917 320 815 320 495 320 175 233 88C185 39 152 0 160 0 169 0 212 37 258 83L340 165 340 485 340 805 438 903 535 1000 1160 1000 1785 1000 1880 1095 1975 1190 2113 1190 2252 1190 2280 1160C2312 1126 2338 1122 2371 1148 2417 1186 2387 1270 2328 1270 2317 1270 2295 1257 2280 1240ZM2354 1217C2365 1199 2354 1170 2333 1163 2321 1159 2290 1186 2290 1200 2290 1214 2321 1241 2333 1237 2339 1235 2348 1226 2354 1217Z"/><path d="M2770 1250C2759 1239 2750 1226 2750 1220 2750 1214 2701 1210 2622 1210L2495 1210 2410 1125 2325 1040 2207 1040 2089 1040 2063 1070C2016 1126 1937 1100 1937 1028 1937 962 2021 936 2062 990L2084 1020 2210 1020 2335 1020 2420 1105 2505 1190 2627 1190C2702 1190 2750 1186 2750 1180 2750 1159 2791 1130 2820 1130 2858 1130 2890 1162 2890 1200 2890 1238 2858 1270 2820 1270 2803 1270 2781 1261 2770 1250ZM2850 1225C2876 1193 2837 1144 2803 1166 2768 1188 2780 1240 2820 1240 2830 1240 2843 1233 2850 1225ZM2034 1054C2055 1034 2054 1027 2029 1004 2014 990 2005 988 1992 996 1970 1010 1965 1037 1980 1055 1996 1074 2015 1074 2034 1054Z"/><path d="M7130 1250C7087 1207 7119 1130 7180 1130 7209 1130 7250 1159 7250 1180 7250 1186 7298 1190 7373 1190L7495 1190 7580 1105 7665 1020 7790 1020 7916 1020 7938 990C7979 936 8063 962 8063 1028 8063 1100 7984 1126 7937 1070L7911 1040 7793 1040 7675 1040 7590 1125 7505 1210 7378 1210C7299 1210 7250 1214 7250 1220 7250 1241 7209 1270 7180 1270 7163 1270 7141 1261 7130 1250ZM7210 1225C7236 1193 7197 1144 7163 1166 7128 1188 7140 1240 7180 1240 7190 1240 7203 1233 7210 1225ZM8020 1055C8035 1037 8030 1010 8008 996 7995 988 7986 990 7971 1004 7946 1027 7945 1034 7966 1054 7985 1074 8004 1074 8020 1055Z"/><path d="M7629 1252C7583 1214 7613 1130 7672 1130 7683 1130 7705 1144 7720 1160L7748 1190 7887 1190 8025 1190 8120 1095 8215 1000 8840 1000 9465 1000 9563 902 9660 805 9660 485 9660 165 9743 82C9788 37 9832 0 9840 0 9848 0 9815 39 9767 88L9680 175 9680 495 9680 815 9578 917 9475 1020 8850 1020 8225 1020 8130 1115 8035 1210 7892 1210 7748 1210 7720 1240C7688 1274 7662 1278 7629 1252ZM7694 1224C7703 1216 7710 1205 7710 1200 7710 1190 7681 1160 7671 1160 7658 1160 7640 1184 7640 1200 7640 1216 7658 1240 7671 1240 7675 1240 7686 1233 7694 1224Z"/><path d="M2515 1115C2501 1102 2490 1079 2490 1065 2490 1031 2532 990 2566 990 2582 990 2602 1001 2619 1019L2647 1049 3716 1050C4304 1051 4791 1051 4798 1051 4804 1050 4810 1043 4810 1035 4810 1010 4852 980 4887 980 4930 980 4970 1018 4970 1058 4970 1102 4935 1140 4895 1140 4848 1140 4831 1132 4814 1099L4799 1070 3720 1070C2975 1070 2640 1073 2640 1080 2640 1101 2591 1140 2565 1140 2551 1140 2528 1129 2515 1115ZM2599 1081C2613 1055 2591 1027 2560 1032 2535 1035 2524 1059 2534 1086 2542 1106 2587 1103 2599 1081ZM4924 1078C4939 1054 4921 1026 4887 1022 4854 1018 4834 1050 4850 1081 4864 1106 4908 1104 4924 1078Z"/><path d="M5051 1114C5007 1058 5043 980 5113 980 5148 980 5190 1010 5190 1035 5190 1043 5196 1050 5203 1051 5209 1051 5696 1051 6284 1050L7353 1049 7381 1019C7398 1001 7418 990 7434 990 7468 990 7510 1031 7510 1065 7510 1098 7468 1140 7435 1140 7409 1140 7360 1101 7360 1080 7360 1073 7025 1070 6280 1070L5201 1070 5186 1099C5169 1132 5152 1140 5105 1140 5081 1140 5066 1133 5051 1114ZM5150 1080C5158 1066 5158 1054 5150 1040 5131 1005 5070 1020 5070 1060 5070 1100 5131 1115 5150 1080ZM7465 1065C7465 1041 7460 1034 7441 1032 7409 1027 7387 1055 7401 1082 7408 1095 7420 1100 7438 1098 7461 1096 7465 1090 7465 1065Z"/><path d="M4463 985C4447 978 4429 961 4422 946L4410 920 3588 920 2765 920 2640 795 2515 670 2145 670 1775 670 1630 815 1485 960 1101 960 717 960 593 838 470 716 470 416 470 116 413 58C380 25 362 0 371 0 379 0 409 24 438 53L490 106 490 405 490 704 608 822 726 940 1101 940 1475 940 1620 795 1765 650 2145 650 2525 650 2650 775 2775 900 3597 900C4274 900 4420 898 4420 887 4420 862 4465 830 4499 830 4567 830 4603 908 4560 962 4536 993 4501 1001 4463 985ZM4538 916C4547 874 4480 852 4460 890 4448 912 4460 945 4482 953 4500 959 4534 936 4538 916Z"/><path d="M5483 992C5453 987 5420 944 5420 908 5420 841 5512 804 5558 853 5570 866 5580 882 5580 888 5580 897 5775 900 6403 900L7225 900 7350 775 7475 650 7855 650 8235 650 8380 795 8525 940 8899 940 9274 940 9392 822 9510 704 9510 404 9510 104 9563 52C9592 23 9622 0 9630 0 9638 0 9619 26 9587 58L9530 116 9530 416 9530 716 9407 838 9283 960 8899 960 8515 960 8370 815 8225 670 7855 670 7485 670 7360 795 7235 920 6413 920 5591 920 5576 949C5560 980 5520 998 5483 992ZM5541 929C5555 903 5536 870 5507 870 5460 870 5444 918 5481 944 5506 961 5526 956 5541 929Z"/><path d="M0 982C0 978 6 968 12 962 22 952 22 945 12 930-3 905-3 900 13 900 20 900 54 872 88 837L150 774 150 521 150 268 125 248C78 211 103 140 162 140 193 140 220 169 220 203 220 228 197 260 179 260 174 260 170 368 170 523L170 786 105 850C58 896 40 922 40 940 40 965 24 990 8 990 4 990 0 986 0 982ZM185 200C185 182 179 174 162 172 138 168 124 190 134 216 137 225 149 230 162 228 179 226 185 218 185 200Z"/><path d="M9972 978C9965 971 9960 954 9960 940 9960 922 9942 896 9895 850L9830 786 9830 523C9830 368 9826 260 9821 260 9802 260 9780 228 9780 201 9780 147 9848 119 9883 158 9908 185 9904 225 9875 248L9850 268 9850 522 9850 776 9913 838C9947 872 9981 900 9988 900 10003 900 10003 913 9988 928 9978 938 9978 945 9988 960 9994 971 10000 982 10000 985 10000 994 9984 990 9972 978ZM9865 200C9865 182 9859 174 9842 172 9829 170 9817 175 9814 184 9804 210 9818 232 9842 228 9859 226 9865 218 9865 200Z"/><path d="M1789 909C1743 863 1796 774 1857 796 1873 801 1889 815 1895 828L1905 850 2208 850 2512 850 2532 825C2546 807 2561 800 2585 800 2651 800 2671 879 2615 916 2594 930 2585 930 2560 920 2544 913 2528 899 2525 889 2519 871 2504 870 2218 870L1918 870 1890 900C1857 936 1819 939 1789 909ZM1858 888C1876 870 1872 842 1851 830 1814 811 1781 868 1818 889 1840 902 1844 902 1858 888ZM2604 884C2631 858 2616 826 2579 832 2552 835 2542 864 2560 885 2576 904 2585 904 2604 884Z"/><path d="M7375 905C7346 877 7344 854 7366 822 7388 790 7442 792 7468 825L7488 850 7792 850 8095 850 8105 828C8111 815 8127 801 8143 796 8204 774 8257 863 8211 909 8181 939 8143 936 8110 900L8082 870 7782 870C7498 870 7481 871 7475 888 7470 906 7431 930 7409 930 7404 930 7388 919 7375 905ZM7443 878C7458 855 7444 830 7415 830 7401 830 7390 832 7390 834 7390 836 7387 845 7384 853 7378 869 7407 903 7423 897 7429 895 7438 887 7443 878ZM8181 890C8204 877 8205 857 8184 836 8172 824 8164 823 8149 830 8128 842 8124 870 8142 888 8157 903 8157 903 8181 890Z"/><path d="M1282 870C1270 865 1252 847 1242 830L1225 800 1060 800 895 800 777 682 660 565 660 345 660 126 598 63C563 28 542 0 551 0 559 0 591 26 623 58L680 116 680 335 680 555 793 668 905 780 1068 780C1174 780 1230 776 1230 770 1230 764 1241 748 1255 735 1286 703 1330 703 1366 734 1436 793 1367 905 1282 870ZM1345 816C1364 787 1355 762 1324 754 1278 742 1252 791 1286 824 1308 846 1327 844 1345 816Z"/><path d="M8650 867C8636 860 8619 842 8612 828 8574 747 8682 671 8745 735 8759 748 8770 764 8770 770 8770 776 8826 780 8933 780L9095 780 9208 667 9320 555 9320 335 9320 114 9378 57C9410 26 9442 0 9450 0 9458 0 9436 28 9402 63L9340 126 9340 345 9340 565 9223 682 9105 800 8938 800C8784 800 8771 801 8765 819 8751 864 8692 889 8650 867ZM8714 824C8748 791 8722 742 8676 754 8645 762 8636 787 8655 816 8673 844 8692 846 8714 824Z"/><path d="M2303 620C2291 615 2276 602 2270 591 2259 570 2255 570 1632 570L1005 570 897 462 790 355 790 210 790 66 758 33C737 11 731 0 741 0 749 0 770 15 788 33L820 66 820 211 820 355 918 453 1015 550 1636 550 2257 550 2268 525C2290 478 2369 479 2389 528 2405 565 2389 607 2355 620 2340 626 2328 630 2327 629 2326 629 2315 625 2303 620ZM2359 571C2372 547 2351 516 2325 521 2297 527 2283 555 2299 574 2317 596 2347 594 2359 571Z"/><path d="M7642 620C7611 607 7596 564 7611 528 7631 479 7710 478 7732 525L7743 550 8364 550 8985 550 9083 452 9180 355 9180 209 9180 64 9213 32C9257-11 9284-10 9242 33L9210 66 9210 211 9210 355 9102 463 8995 570 8370 570 7746 570 7725 594C7701 623 7673 632 7642 620ZM7701 574C7710 563 7711 554 7703 542 7688 518 7659 515 7644 535 7616 573 7671 610 7701 574Z"/><path d="M0 221C0 80 4 0 10 0 24 0 24 427 10 435 3 439 0 365 0 221Z"/><path d="M9987 433C9976 422 9979 0 9990 0 9996 0 10000 80 10000 220 10000 341 9999 440 9997 440 9995 440 9990 437 9987 433Z"/></g></svg>