<svg viewBox="0 0 640 640" xmlns="http://www.w3.org/2000/svg" xmlns:xlink="http://www.w3.org/1999/xlink" overflow="hidden"><path d="M183.1 137.4C170.6 124.9 150.3 124.9 137.8 137.4 125.3 149.9 125.3 170.2 137.8 182.7L275.2 320 137.9 457.4C125.4 469.9 125.4 490.2 137.9 502.7 150.4 515.2 170.7 515.2 183.2 502.7L320.5 365.3 457.9 502.6C470.4 515.1 490.7 515.1 503.2 502.6 515.7 490.1 515.7 469.8 503.2 457.3L365.8 320 503.1 182.6C515.6 170.1 515.6 149.8 503.1 137.3 490.6 124.8 470.3 124.8 457.8 137.3L320.5 274.7 183.1 137.4Z"/></svg>