<svg viewBox="0 0 640 640" xmlns="http://www.w3.org/2000/svg" xmlns:xlink="http://www.w3.org/1999/xlink" overflow="hidden"><path d="M482.2 241.2C476.8 239.4 471.4 237.7 466 236.1 466.9 232.4 467.7 228.7 468.5 225 480.8 165.4 472.7 117.5 445.4 101.7 419.1 86.6 376.2 102.3 332.8 140.1 328.5 143.8 324.3 147.7 320.3 151.6 317.6 149 314.8 146.4 312 143.9 266.5 103.5 220.9 86.5 193.6 102.4 167.4 117.6 159.6 162.7 170.6 219.1 171.7 224.7 172.9 230.2 174.3 235.8 167.9 237.6 161.6 239.6 155.7 241.7 102.3 260.2 64 289.4 64 319.6 64 350.8 104.8 382.1 160.3 401.1 164.8 402.6 169.3 404.1 173.9 405.4 172.4 411.4 171.1 417.3 169.9 423.4 159.4 478.9 167.6 522.9 193.8 538 220.8 553.6 266.2 537.6 310.4 498.9 313.9 495.8 317.4 492.6 320.9 489.2 325.3 493.5 329.9 497.6 334.5 501.6 377.3 538.4 419.6 553.3 445.7 538.2 472.7 522.6 481.5 475.3 470.1 417.7 469.2 413.3 468.2 408.8 467.1 404.2 470.3 403.3 473.4 402.3 476.5 401.3 534.2 382.2 576 351.3 576 319.6 576 289.3 536.6 259.9 482.2 241.2ZM346.9 156.3C384.1 123.9 418.8 111.2 434.6 120.3 451.5 130 458 169.2 447.4 220.7 446.7 224.1 446 227.4 445.1 230.7 422.9 225.7 400.4 222.1 377.8 220.1 364.8 201.5 350.6 183.7 335.2 167 339.1 163.3 342.9 159.8 346.9 156.3ZM231.2 371.5C236.3 380.2 241.5 388.9 247 397.4 231.4 395.7 215.9 393.2 200.6 389.9 205 375.5 210.5 360.6 216.9 345.4 221.5 354.2 226.2 362.9 231.2 371.5ZM200.9 251.2C215.3 248 230.6 245.4 246.5 243.4 241.2 251.7 236 260.2 231.1 268.8 226.2 277.3 221.4 286 216.9 294.8 210.6 279.9 205.3 265.3 200.9 251.2ZM228.3 320.1C234.9 306.3 242.1 292.8 249.7 279.5 257.3 266.2 265.5 253.3 274.1 240.6 289.1 239.5 304.4 238.9 320 238.9 335.6 238.9 351 239.5 365.9 240.6 374.4 253.2 382.5 266.1 390.2 279.3 397.9 292.5 405.1 306 411.9 319.7 405.2 333.5 398 347.1 390.3 360.5 382.7 373.8 374.6 386.7 366.1 399.5 351.2 400.6 335.7 401.1 320 401.1 304.3 401.1 289.1 400.6 274.4 399.7 265.7 387 257.5 374 249.8 360.7 242.1 347.4 235 333.9 228.3 320.1ZM408.9 371.3C414 362.5 418.8 353.6 423.5 344.6 429.9 359.1 435.5 373.8 440.4 388.9 424.9 392.4 409.2 395.1 393.4 396.9 398.8 388.5 403.9 379.9 408.9 371.3ZM423.3 294.8C418.6 286 413.8 277.2 408.8 268.6 403.9 260.1 398.8 251.7 393.5 243.4 409.6 245.4 425 248.1 439.4 251.4 434.8 266.2 429.4 280.6 423.3 294.8ZM320.2 182.3C330.7 193.7 340.6 205.7 349.8 218.1 330 217.2 310.1 217.2 290.3 218.1 300.1 205.2 310.2 193.2 320.2 182.3ZM204.2 121C221 111.2 258.3 125.2 297.6 160 300.1 162.2 302.6 164.6 305.2 167 289.7 183.7 275.4 201.5 262.3 220.1 239.7 222.1 217.3 225.6 195.1 230.5 193.8 225.4 192.7 220.2 191.6 215 182.2 166.6 188.4 130.1 204.2 121ZM179.7 384.6C175.5 383.4 171.4 382.1 167.3 380.7 146 374 121.8 363.4 104.3 349.5 94.2 342.5 87.4 331.7 85.5 319.6 85.5 301.3 117.1 277.9 162.7 262 168.4 260 174.2 258.2 180 256.5 186.8 278.2 195 299.5 204.5 320.1 194.9 341 186.6 362.6 179.7 384.6ZM296.3 482.6C279.8 497.7 260.7 509.7 239.9 517.9 228.8 523.2 216 523.7 204.6 519.2 188.7 510 182.1 474.7 191.1 427.2 192.2 421.6 193.4 416 194.8 410.5 217.2 415.3 239.8 418.6 262.7 420.3 275.9 439 290.4 456.9 305.9 473.7 302.7 476.8 299.5 479.8 296.3 482.6ZM320.8 458.3C310.6 447.3 300.4 435.1 290.5 422 300.1 422.4 310 422.6 320 422.6 330.3 422.6 340.4 422.4 350.4 421.9 341.2 434.6 331.3 446.7 320.8 458.3ZM451.5 488.3C450.6 500.5 444.6 511.9 435 519.6 419.1 528.8 385.2 516.8 348.6 485.4 344.4 481.8 340.2 477.9 335.9 473.9 351.2 457 365.3 439.1 378.1 420.3 401 418.4 423.8 414.9 446.3 409.8 447.3 413.9 448.2 418 449 422 453.9 443.6 454.7 466.1 451.5 488.3ZM469.7 380.8C466.9 381.7 464.1 382.6 461.2 383.4 454.2 361.6 445.6 340.3 435.7 319.6 445.3 299.2 453.4 278.2 460.2 256.7 465.4 258.2 470.4 259.8 475.2 261.4 521.8 277.4 554.5 301.2 554.5 319.4 554.5 339 519.6 364.3 469.7 380.8ZM320 365.8C345.3 365.8 365.8 345.3 365.8 320 365.8 294.7 345.3 274.2 320 274.2 294.7 274.2 274.2 294.7 274.2 320 274.2 345.3 294.7 365.8 320 365.8Z" fill="#00B0F0"/></svg>