<svg viewBox="0 0 640 640" xmlns="http://www.w3.org/2000/svg" xmlns:xlink="http://www.w3.org/1999/xlink" overflow="hidden"><style>
.MsftOfcThm_Background1_Fill_v2 {
 fill:#FFFFFF; 
}
</style>
<path d="M237.9 461.4C237.9 463.4 235.6 465 232.7 465 229.4 465.3 227.1 463.7 227.1 461.4 227.1 459.4 229.4 457.8 232.3 457.8 235.3 457.5 237.9 459.1 237.9 461.4ZM206.8 456.9C206.1 458.9 208.1 461.2 211.1 461.8 213.7 462.8 216.7 461.8 217.3 459.8 217.9 457.8 216 455.5 213 454.6 210.4 453.9 207.5 454.9 206.8 456.9ZM251 455.2C248.1 455.9 246.1 457.8 246.4 460.1 246.7 462.1 249.3 463.4 252.3 462.7 255.2 462 257.2 460.1 256.9 458.1 256.6 456.2 253.9 454.9 251 455.2ZM316.8 72C178.1 72 72 177.3 72 316 72 426.9 141.8 521.8 241.5 555.2 254.3 557.5 258.8 549.6 258.8 543.1 258.8 536.9 258.5 502.7 258.5 481.7 258.5 481.7 188.5 496.7 173.8 451.9 173.8 451.9 162.4 422.8 146 415.3 146 415.3 123.1 399.6 147.6 399.9 147.6 399.9 172.5 401.9 186.2 425.7 208.1 464.3 244.8 453.2 259.1 446.6 261.4 430.6 267.9 419.5 275.1 412.9 219.2 406.7 162.8 398.6 162.8 302.4 162.8 274.9 170.4 261.1 186.4 243.5 183.8 237 175.3 210.2 189 175.6 209.9 169.1 258 202.6 258 202.6 278 197 299.5 194.1 320.8 194.1 342.1 194.1 363.6 197 383.6 202.6 383.6 202.6 431.7 169 452.6 175.6 466.3 210.3 457.8 237 455.2 243.5 471.2 261.2 481 275 481 302.4 481 398.9 422.1 406.6 366.2 412.9 375.4 420.8 383.2 435.8 383.2 459.3 383.2 493 382.9 534.7 382.9 542.9 382.9 549.4 387.5 557.3 400.2 555 500.2 521.8 568 426.9 568 316 568 177.3 455.5 72 316.8 72ZM169.2 416.9C167.9 417.9 168.2 420.2 169.9 422.1 171.5 423.7 173.8 424.4 175.1 423.1 176.4 422.1 176.1 419.8 174.4 417.9 172.8 416.3 170.5 415.6 169.2 416.9ZM158.4 408.8C157.7 410.1 158.7 411.7 160.7 412.7 162.3 413.7 164.3 413.4 165 412 165.7 410.7 164.7 409.1 162.7 408.1 160.7 407.5 159.1 407.8 158.4 408.8ZM190.8 444.4C189.2 445.7 189.8 448.7 192.1 450.6 194.4 452.9 197.3 453.2 198.6 451.6 199.9 450.3 199.3 447.3 197.3 445.4 195.1 443.1 192.1 442.8 190.8 444.4ZM179.4 429.7C177.8 430.7 177.8 433.3 179.4 435.6 181 437.9 183.7 438.9 185 437.9 186.6 436.6 186.6 434 185 431.7 183.6 429.4 181 428.4 179.4 429.7Z" class="MsftOfcThm_Background1_Fill_v2" fill="#FFFFFF"/></svg>